<svg width="19" height="18" viewBox="0 0 19 18" fill="none" xmlns="http://www.w3.org/2000/svg">
<path d="M9.00208 16.5C4.85983 16.5 1.50208 13.1422 1.50208 9C1.50208 5.6415 3.70933 2.799 6.75208 1.8435V3.4365C5.46277 3.96003 4.39542 4.91528 3.73262 6.13884C3.06982 7.36239 2.85274 8.77823 3.11852 10.1442C3.38429 11.5101 4.11642 12.7412 5.18965 13.627C6.26288 14.5128 7.61053 14.9981 9.00208 15C10.1974 15 11.3655 14.643 12.3567 13.9749C13.3479 13.3068 14.117 12.358 14.5656 11.25H16.1586C15.2031 14.2928 12.3606 16.5 9.00208 16.5V16.5ZM16.4646 9.75H8.25208V1.5375C8.49883 1.51275 8.74933 1.5 9.00208 1.5C13.1443 1.5 16.5021 4.85775 16.5021 9C16.5021 9.25275 16.4893 9.50325 16.4646 9.75ZM9.75208 3.0465V8.25H14.9556C14.7886 6.9282 14.1867 5.6995 13.2446 4.75743C12.3026 3.81535 11.0739 3.21344 9.75208 3.0465Z" fill="#292929"/>
</svg>
