<svg width="19" height="18" viewBox="0 0 19 18" fill="none" xmlns="http://www.w3.org/2000/svg">
<path d="M9.00208 1.5C13.1443 1.5 16.5021 4.85775 16.5021 9C16.5021 13.1422 13.1443 16.5 9.00208 16.5C4.85983 16.5 1.50208 13.1422 1.50208 9H3.00208C3.00208 12.3135 5.68858 15 9.00208 15C12.3156 15 15.0021 12.3135 15.0021 9C15.0021 5.6865 12.3156 3 9.00208 3C6.93958 3 5.12008 4.04025 4.04083 5.625H6.00208V7.125H1.50208V2.625H3.00208V4.5C4.37008 2.6775 6.54883 1.5 9.00208 1.5ZM9.75208 5.25V8.68875L12.1843 11.121L11.1231 12.1823L8.25208 9.30975V5.25H9.75208Z" fill="#292929"/>
</svg>
