<svg width="209" height="34" viewBox="0 0 209 34" fill="none" xmlns="http://www.w3.org/2000/svg">
<path d="M0.0020752 32H208.002V34H0.0020752V32Z" fill="url(#paint0_linear)"/>
<path d="M52.2634 14L53.3316 10.9205H57.8771L58.9396 14H60.8032L56.6157 2.36364H54.5873L50.3998 14H52.2634ZM53.843 9.44318L55.5589 4.47727H55.6498L57.3657 9.44318H53.843Z" fill="url(#paint1_linear)"/>
<path d="M68.8245 7.40341C68.4722 6.04545 67.4097 5.15909 65.5234 5.15909C63.5518 5.15909 62.1541 6.19886 62.1541 7.74432C62.1541 8.98295 62.9041 9.80682 64.5404 10.1705L66.0177 10.4943C66.8586 10.6818 67.2507 11.0568 67.2507 11.6023C67.2507 12.2784 66.5291 12.8068 65.4154 12.8068C64.3984 12.8068 63.745 12.3693 63.5404 11.5114L61.8984 11.7614C62.1825 13.3068 63.4666 14.1761 65.4268 14.1761C67.5347 14.1761 68.995 13.0568 68.995 11.4773C68.995 10.2443 68.2109 9.48295 66.6086 9.11364L65.2222 8.79545C64.262 8.56818 63.8472 8.24432 63.8529 7.65341C63.8472 6.98295 64.5745 6.50568 65.5404 6.50568C66.5972 6.50568 67.0859 7.09091 67.2847 7.67614L68.8245 7.40341Z" fill="url(#paint2_linear)"/>
<path d="M77.4026 7.40341C77.0504 6.04545 75.9879 5.15909 74.1015 5.15909C72.1299 5.15909 70.7322 6.19886 70.7322 7.74432C70.7322 8.98295 71.4822 9.80682 73.1186 10.1705L74.5958 10.4943C75.4367 10.6818 75.8288 11.0568 75.8288 11.6023C75.8288 12.2784 75.1072 12.8068 73.9936 12.8068C72.9765 12.8068 72.3231 12.3693 72.1186 11.5114L70.4765 11.7614C70.7606 13.3068 72.0447 14.1761 74.0049 14.1761C76.1129 14.1761 77.5731 13.0568 77.5731 11.4773C77.5731 10.2443 76.789 9.48295 75.1867 9.11364L73.8004 8.79545C72.8401 8.56818 72.4254 8.24432 72.4311 7.65341C72.4254 6.98295 73.1526 6.50568 74.1186 6.50568C75.1754 6.50568 75.664 7.09091 75.8629 7.67614L77.4026 7.40341Z" fill="url(#paint3_linear)"/>
<path d="M83.2024 14.1761C85.1058 14.1761 86.4524 13.2386 86.8387 11.8182L85.2308 11.5284C84.924 12.3523 84.1853 12.7727 83.2194 12.7727C81.7649 12.7727 80.7876 11.8295 80.7421 10.1477H86.9467V9.54545C86.9467 6.39204 85.0603 5.15909 83.083 5.15909C80.6512 5.15909 79.049 7.01136 79.049 9.69318C79.049 12.4034 80.6285 14.1761 83.2024 14.1761ZM80.7478 8.875C80.816 7.63636 81.7137 6.5625 83.0944 6.5625C84.4126 6.5625 85.2762 7.53977 85.2819 8.875H80.7478Z" fill="url(#paint4_linear)"/>
<path d="M92.9055 5.27273H91.1157V3.18182H89.4168V5.27273H88.1384V6.63636H89.4168V11.7898C89.4112 13.375 90.6214 14.142 91.9623 14.1136C92.5021 14.108 92.8657 14.0057 93.0646 13.9318L92.7578 12.5284C92.6441 12.5511 92.4339 12.6023 92.1612 12.6023C91.61 12.6023 91.1157 12.4205 91.1157 11.4375V6.63636H92.9055V5.27273Z" fill="url(#paint5_linear)"/>
<path d="M99.1555 14H103.616C106.32 14 107.542 12.6534 107.542 10.8693C107.542 9.06818 106.28 8.05114 105.127 7.98864V7.875C106.195 7.60227 107.087 6.875 107.087 5.42045C107.087 3.69886 105.894 2.36364 103.417 2.36364H99.1555V14ZM100.911 12.4943V8.76705H103.508C104.917 8.76705 105.798 9.67614 105.798 10.7841C105.798 11.7614 105.133 12.4943 103.445 12.4943H100.911ZM100.911 7.39773V3.85795H103.309C104.701 3.85795 105.366 4.59091 105.366 5.55682C105.366 6.68182 104.445 7.39773 103.263 7.39773H100.911Z" fill="url(#paint6_linear)"/>
<path d="M109.488 14H111.187V8.67045C111.187 7.52841 112.067 6.70455 113.272 6.70455C113.624 6.70455 114.022 6.76705 114.158 6.80682V5.18182C113.988 5.15909 113.653 5.14205 113.437 5.14205C112.414 5.14205 111.539 5.72159 111.221 6.65909H111.13V5.27273H109.488V14Z" fill="url(#paint7_linear)"/>
<path d="M119.077 14.1761C120.981 14.1761 122.327 13.2386 122.714 11.8182L121.106 11.5284C120.799 12.3523 120.06 12.7727 119.094 12.7727C117.64 12.7727 116.663 11.8295 116.617 10.1477H122.822V9.54545C122.822 6.39204 120.935 5.15909 118.958 5.15909C116.526 5.15909 114.924 7.01136 114.924 9.69318C114.924 12.4034 116.504 14.1761 119.077 14.1761ZM116.623 8.875C116.691 7.63636 117.589 6.5625 118.969 6.5625C120.288 6.5625 121.151 7.53977 121.157 8.875H116.623Z" fill="url(#paint8_linear)"/>
<path d="M127.246 14.1932C128.69 14.1932 129.502 13.4602 129.826 12.8068H129.894V14H131.553V8.20455C131.553 5.66477 129.553 5.15909 128.167 5.15909C126.587 5.15909 125.133 5.79545 124.565 7.38636L126.161 7.75C126.411 7.13068 127.048 6.53409 128.19 6.53409C129.286 6.53409 129.849 7.10795 129.849 8.09659V8.13636C129.849 8.75568 129.212 8.74432 127.644 8.92614C125.991 9.11932 124.298 9.55114 124.298 11.5341C124.298 13.25 125.587 14.1932 127.246 14.1932ZM127.616 12.8295C126.655 12.8295 125.962 12.3977 125.962 11.5568C125.962 10.6477 126.769 10.3239 127.752 10.1932C128.303 10.1193 129.61 9.97159 129.854 9.72727V10.8523C129.854 11.8864 129.03 12.8295 127.616 12.8295Z" fill="url(#paint9_linear)"/>
<path d="M133.816 14H135.515V10.9034L136.361 10.0568L139.327 14H141.413L137.64 9.01705L141.174 5.27273H139.14L135.663 8.96591H135.515V2.36364H133.816V14Z" fill="url(#paint10_linear)"/>
<path d="M145.63 14.1705C147.221 14.1705 147.846 13.1989 148.153 12.642H148.295V14H149.954V2.36364H148.255V6.6875H148.153C147.846 6.14773 147.266 5.15909 145.641 5.15909C143.533 5.15909 141.982 6.82386 141.982 9.65341C141.982 12.4773 143.511 14.1705 145.63 14.1705ZM146.005 12.7216C144.488 12.7216 143.698 11.3864 143.698 9.63636C143.698 7.90341 144.471 6.60227 146.005 6.60227C147.488 6.60227 148.283 7.8125 148.283 9.63636C148.283 11.4716 147.471 12.7216 146.005 12.7216Z" fill="url(#paint11_linear)"/>
<path d="M156.055 14.1761C158.515 14.1761 160.123 12.375 160.123 9.67614C160.123 6.96023 158.515 5.15909 156.055 5.15909C153.594 5.15909 151.986 6.96023 151.986 9.67614C151.986 12.375 153.594 14.1761 156.055 14.1761ZM156.06 12.75C154.452 12.75 153.702 11.3466 153.702 9.67045C153.702 8 154.452 6.57955 156.06 6.57955C157.657 6.57955 158.407 8 158.407 9.67045C158.407 11.3466 157.657 12.75 156.06 12.75Z" fill="url(#paint12_linear)"/>
<path d="M163.646 14H165.373L167.146 7.69886H167.276L169.049 14H170.782L173.344 5.27273H171.589L169.89 11.6534H169.805L168.1 5.27273H166.344L164.628 11.6818H164.543L162.833 5.27273H161.077L163.646 14Z" fill="url(#paint13_linear)"/>
<path d="M176.655 8.81818C176.655 7.42614 177.508 6.63068 178.69 6.63068C179.843 6.63068 180.542 7.38636 180.542 8.65341V14H182.241V8.44886C182.241 6.28977 181.053 5.15909 179.269 5.15909C177.957 5.15909 177.099 5.76705 176.695 6.69318H176.587V5.27273H174.957V14H176.655V8.81818Z" fill="url(#paint14_linear)"/>
<path d="M33.0021 15.5C28.8598 15.5 25.5021 12.1423 25.5021 8C25.5021 4.6415 27.7093 1.799 30.7521 0.8435V2.4365C29.4628 2.96003 28.3954 3.91528 27.7326 5.13884C27.0698 6.36239 26.8527 7.77823 27.1185 9.14416C27.3843 10.5101 28.1164 11.7412 29.1896 12.627C30.2629 13.5128 31.6105 13.9981 33.0021 14C34.1974 14 35.3655 13.643 36.3567 12.9749C37.3479 12.3068 38.117 11.358 38.5656 10.25H40.1586C39.2031 13.2928 36.3606 15.5 33.0021 15.5ZM40.4646 8.75H32.2521V0.5375C32.4988 0.51275 32.7493 0.5 33.0021 0.5C37.1443 0.5 40.5021 3.85775 40.5021 8C40.5021 8.25275 40.4893 8.50325 40.4646 8.75ZM33.7521 2.0465V7.25H38.9556C38.7886 5.9282 38.1867 4.6995 37.2446 3.75743C36.3026 2.81535 35.0739 2.21344 33.7521 2.0465Z" fill="url(#paint15_linear)"/>
<defs>
<linearGradient id="paint0_linear" x1="26.965" y1="59.6484" x2="106.76" y2="-76.1811" gradientUnits="userSpaceOnUse">
<stop stop-color="#00E0FF"/>
<stop offset="1" stop-color="#AA55FF"/>
</linearGradient>
<linearGradient id="paint1_linear" x1="26.965" y1="59.6484" x2="106.76" y2="-76.1811" gradientUnits="userSpaceOnUse">
<stop stop-color="#00E0FF"/>
<stop offset="1" stop-color="#AA55FF"/>
</linearGradient>
<linearGradient id="paint2_linear" x1="26.965" y1="59.6484" x2="106.76" y2="-76.1811" gradientUnits="userSpaceOnUse">
<stop stop-color="#00E0FF"/>
<stop offset="1" stop-color="#AA55FF"/>
</linearGradient>
<linearGradient id="paint3_linear" x1="26.965" y1="59.6484" x2="106.76" y2="-76.1811" gradientUnits="userSpaceOnUse">
<stop stop-color="#00E0FF"/>
<stop offset="1" stop-color="#AA55FF"/>
</linearGradient>
<linearGradient id="paint4_linear" x1="26.965" y1="59.6484" x2="106.76" y2="-76.1811" gradientUnits="userSpaceOnUse">
<stop stop-color="#00E0FF"/>
<stop offset="1" stop-color="#AA55FF"/>
</linearGradient>
<linearGradient id="paint5_linear" x1="26.965" y1="59.6484" x2="106.76" y2="-76.1811" gradientUnits="userSpaceOnUse">
<stop stop-color="#00E0FF"/>
<stop offset="1" stop-color="#AA55FF"/>
</linearGradient>
<linearGradient id="paint6_linear" x1="26.965" y1="59.6484" x2="106.76" y2="-76.1811" gradientUnits="userSpaceOnUse">
<stop stop-color="#00E0FF"/>
<stop offset="1" stop-color="#AA55FF"/>
</linearGradient>
<linearGradient id="paint7_linear" x1="26.965" y1="59.6484" x2="106.76" y2="-76.1811" gradientUnits="userSpaceOnUse">
<stop stop-color="#00E0FF"/>
<stop offset="1" stop-color="#AA55FF"/>
</linearGradient>
<linearGradient id="paint8_linear" x1="26.965" y1="59.6484" x2="106.76" y2="-76.1811" gradientUnits="userSpaceOnUse">
<stop stop-color="#00E0FF"/>
<stop offset="1" stop-color="#AA55FF"/>
</linearGradient>
<linearGradient id="paint9_linear" x1="26.965" y1="59.6484" x2="106.76" y2="-76.1811" gradientUnits="userSpaceOnUse">
<stop stop-color="#00E0FF"/>
<stop offset="1" stop-color="#AA55FF"/>
</linearGradient>
<linearGradient id="paint10_linear" x1="26.965" y1="59.6484" x2="106.76" y2="-76.1811" gradientUnits="userSpaceOnUse">
<stop stop-color="#00E0FF"/>
<stop offset="1" stop-color="#AA55FF"/>
</linearGradient>
<linearGradient id="paint11_linear" x1="26.965" y1="59.6484" x2="106.76" y2="-76.1811" gradientUnits="userSpaceOnUse">
<stop stop-color="#00E0FF"/>
<stop offset="1" stop-color="#AA55FF"/>
</linearGradient>
<linearGradient id="paint12_linear" x1="26.965" y1="59.6484" x2="106.76" y2="-76.1811" gradientUnits="userSpaceOnUse">
<stop stop-color="#00E0FF"/>
<stop offset="1" stop-color="#AA55FF"/>
</linearGradient>
<linearGradient id="paint13_linear" x1="26.965" y1="59.6484" x2="106.76" y2="-76.1811" gradientUnits="userSpaceOnUse">
<stop stop-color="#00E0FF"/>
<stop offset="1" stop-color="#AA55FF"/>
</linearGradient>
<linearGradient id="paint14_linear" x1="26.965" y1="59.6484" x2="106.76" y2="-76.1811" gradientUnits="userSpaceOnUse">
<stop stop-color="#00E0FF"/>
<stop offset="1" stop-color="#AA55FF"/>
</linearGradient>
<linearGradient id="paint15_linear" x1="26.965" y1="59.6484" x2="106.76" y2="-76.1811" gradientUnits="userSpaceOnUse">
<stop stop-color="#00E0FF"/>
<stop offset="1" stop-color="#AA55FF"/>
</linearGradient>
</defs>
</svg>
