<svg width="82" height="19" viewBox="0 0 82 19" fill="none" xmlns="http://www.w3.org/2000/svg">
<path d="M27.2784 15H29.0341V9.92614H34.8352V15H36.5966V3.36364H34.8352V8.42045H29.0341V3.36364H27.2784V15ZM39.017 15H40.7159V6.27273H39.017V15ZM39.875 4.92614C40.4602 4.92614 40.9489 4.47159 40.9489 3.91477C40.9489 3.35795 40.4602 2.89773 39.875 2.89773C39.2841 2.89773 38.8011 3.35795 38.8011 3.91477C38.8011 4.47159 39.2841 4.92614 39.875 4.92614ZM49.5412 8.40341C49.1889 7.04545 48.1264 6.15909 46.2401 6.15909C44.2685 6.15909 42.8707 7.19886 42.8707 8.74432C42.8707 9.98295 43.6207 10.8068 45.2571 11.1705L46.7344 11.4943C47.5753 11.6818 47.9673 12.0568 47.9673 12.6023C47.9673 13.2784 47.2457 13.8068 46.1321 13.8068C45.1151 13.8068 44.4616 13.3693 44.2571 12.5114L42.6151 12.7614C42.8991 14.3068 44.1832 15.1761 46.1435 15.1761C48.2514 15.1761 49.7116 14.0568 49.7116 12.4773C49.7116 11.2443 48.9276 10.483 47.3253 10.1136L45.9389 9.79545C44.9787 9.56818 44.5639 9.24432 44.5696 8.65341C44.5639 7.98295 45.2912 7.50568 46.2571 7.50568C47.3139 7.50568 47.8026 8.09091 48.0014 8.67614L49.5412 8.40341ZM55.6534 6.27273H53.8636V4.18182H52.1648V6.27273H50.8864V7.63636H52.1648V12.7898C52.1591 14.375 53.3693 15.142 54.7102 15.1136C55.25 15.108 55.6136 15.0057 55.8125 14.9318L55.5057 13.5284C55.392 13.5511 55.1818 13.6023 54.9091 13.6023C54.358 13.6023 53.8636 13.4205 53.8636 12.4375V7.63636H55.6534V6.27273ZM61.1151 15.1761C63.5753 15.1761 65.1832 13.375 65.1832 10.6761C65.1832 7.96023 63.5753 6.15909 61.1151 6.15909C58.6548 6.15909 57.0469 7.96023 57.0469 10.6761C57.0469 13.375 58.6548 15.1761 61.1151 15.1761ZM61.1207 13.75C59.5128 13.75 58.7628 12.3466 58.7628 10.6705C58.7628 9 59.5128 7.57955 61.1207 7.57955C62.7173 7.57955 63.4673 9 63.4673 10.6705C63.4673 12.3466 62.7173 13.75 61.1207 13.75ZM67.0795 15H68.7784V9.67045C68.7784 8.52841 69.6591 7.70455 70.8636 7.70455C71.2159 7.70455 71.6136 7.76705 71.75 7.80682V6.18182C71.5795 6.15909 71.2443 6.14205 71.0284 6.14205C70.0057 6.14205 69.1307 6.72159 68.8125 7.65909H68.7216V6.27273H67.0795V15ZM74.5597 18.25C75.9631 18.25 76.8551 17.517 77.3551 16.1648L80.9631 6.28977L79.1278 6.27273L76.9176 13.0455H76.8267L74.6165 6.27273H72.7983L75.9915 15.1136L75.7812 15.6932C75.3494 16.8239 74.7415 16.9261 73.8097 16.6705L73.4006 18.0625C73.6051 18.1591 74.0483 18.25 74.5597 18.25Z" fill="black"/>
<path d="M9 1.5C13.1422 1.5 16.5 4.85775 16.5 9C16.5 13.1422 13.1422 16.5 9 16.5C4.85775 16.5 1.5 13.1422 1.5 9H3C3 12.3135 5.6865 15 9 15C12.3135 15 15 12.3135 15 9C15 5.6865 12.3135 3 9 3C6.9375 3 5.118 4.04025 4.03875 5.625H6V7.125H1.5V2.625H3V4.5C4.368 2.6775 6.54675 1.5 9 1.5ZM9.75 5.25V8.68875L12.1823 11.121L11.121 12.1823L8.25 9.30975V5.25H9.75Z" fill="black"/>
</svg>
