<svg width="131" height="34" viewBox="0 0 131 34" fill="none" xmlns="http://www.w3.org/2000/svg">
<path d="M0.0020752 32H130.002V34H0.0020752V32Z" fill="url(#paint0_linear)"/>
<path d="M51.2805 14H53.0362V8.92614H58.8373V14H60.5987V2.36364H58.8373V7.42045H53.0362V2.36364H51.2805V14Z" fill="url(#paint1_linear)"/>
<path d="M63.0191 14H64.718V5.27273H63.0191V14ZM63.8771 3.92614C64.4623 3.92614 64.9509 3.47159 64.9509 2.91477C64.9509 2.35795 64.4623 1.89773 63.8771 1.89773C63.2862 1.89773 62.8032 2.35795 62.8032 2.91477C62.8032 3.47159 63.2862 3.92614 63.8771 3.92614Z" fill="url(#paint2_linear)"/>
<path d="M73.5433 7.40341C73.191 6.04545 72.1285 5.15909 70.2421 5.15909C68.2705 5.15909 66.8728 6.19886 66.8728 7.74432C66.8728 8.98295 67.6228 9.80682 69.2592 10.1705L70.7365 10.4943C71.5774 10.6818 71.9694 11.0568 71.9694 11.6023C71.9694 12.2784 71.2478 12.8068 70.1342 12.8068C69.1171 12.8068 68.4637 12.3693 68.2592 11.5114L66.6171 11.7614C66.9012 13.3068 68.1853 14.1761 70.1455 14.1761C72.2535 14.1761 73.7137 13.0568 73.7137 11.4773C73.7137 10.2443 72.9296 9.48295 71.3274 9.11364L69.941 8.79545C68.9808 8.56818 68.566 8.24432 68.5717 7.65341C68.566 6.98295 69.2933 6.50568 70.2592 6.50568C71.316 6.50568 71.8046 7.09091 72.0035 7.67614L73.5433 7.40341Z" fill="url(#paint3_linear)"/>
<path d="M79.6555 5.27273H77.8657V3.18182H76.1668V5.27273H74.8884V6.63636H76.1668V11.7898C76.1612 13.375 77.3714 14.142 78.7123 14.1136C79.2521 14.108 79.6157 14.0057 79.8146 13.9318L79.5078 12.5284C79.3941 12.5511 79.1839 12.6023 78.9112 12.6023C78.36 12.6023 77.8657 12.4205 77.8657 11.4375V6.63636H79.6555V5.27273Z" fill="url(#paint4_linear)"/>
<path d="M85.1171 14.1761C87.5774 14.1761 89.1853 12.375 89.1853 9.67614C89.1853 6.96023 87.5774 5.15909 85.1171 5.15909C82.6569 5.15909 81.049 6.96023 81.049 9.67614C81.049 12.375 82.6569 14.1761 85.1171 14.1761ZM85.1228 12.75C83.5149 12.75 82.7649 11.3466 82.7649 9.67045C82.7649 8 83.5149 6.57955 85.1228 6.57955C86.7194 6.57955 87.4694 8 87.4694 9.67045C87.4694 11.3466 86.7194 12.75 85.1228 12.75Z" fill="url(#paint5_linear)"/>
<path d="M91.0816 14H92.7805V8.67045C92.7805 7.52841 93.6612 6.70455 94.8657 6.70455C95.218 6.70455 95.6157 6.76705 95.7521 6.80682V5.18182C95.5816 5.15909 95.2464 5.14205 95.0305 5.14205C94.0078 5.14205 93.1328 5.72159 92.8146 6.65909H92.7237V5.27273H91.0816V14Z" fill="url(#paint6_linear)"/>
<path d="M98.5617 17.25C99.9651 17.25 100.857 16.517 101.357 15.1648L104.965 5.28977L103.13 5.27273L100.92 12.0455H100.829L98.6186 5.27273H96.8004L99.9936 14.1136L99.7833 14.6932C99.3515 15.8239 98.7436 15.9261 97.8117 15.6705L97.4026 17.0625C97.6072 17.1591 98.0504 17.25 98.5617 17.25Z" fill="url(#paint7_linear)"/>
<path d="M33.0021 0.5C37.1443 0.5 40.5021 3.85775 40.5021 8C40.5021 12.1423 37.1443 15.5 33.0021 15.5C28.8598 15.5 25.5021 12.1423 25.5021 8H27.0021C27.0021 11.3135 29.6886 14 33.0021 14C36.3156 14 39.0021 11.3135 39.0021 8C39.0021 4.6865 36.3156 2 33.0021 2C30.9396 2 29.1201 3.04025 28.0408 4.625H30.0021V6.125H25.5021V1.625H27.0021V3.5C28.3701 1.6775 30.5488 0.5 33.0021 0.5ZM33.7521 4.25V7.68875L36.1843 10.121L35.1231 11.1823L32.2521 8.30975V4.25H33.7521Z" fill="url(#paint8_linear)"/>
<defs>
<linearGradient id="paint0_linear" x1="16.8539" y1="59.6484" x2="108.032" y2="-37.3558" gradientUnits="userSpaceOnUse">
<stop stop-color="#00E0FF"/>
<stop offset="1" stop-color="#AA55FF"/>
</linearGradient>
<linearGradient id="paint1_linear" x1="16.8539" y1="59.6484" x2="108.032" y2="-37.3558" gradientUnits="userSpaceOnUse">
<stop stop-color="#00E0FF"/>
<stop offset="1" stop-color="#AA55FF"/>
</linearGradient>
<linearGradient id="paint2_linear" x1="16.8539" y1="59.6484" x2="108.032" y2="-37.3558" gradientUnits="userSpaceOnUse">
<stop stop-color="#00E0FF"/>
<stop offset="1" stop-color="#AA55FF"/>
</linearGradient>
<linearGradient id="paint3_linear" x1="16.8539" y1="59.6484" x2="108.032" y2="-37.3558" gradientUnits="userSpaceOnUse">
<stop stop-color="#00E0FF"/>
<stop offset="1" stop-color="#AA55FF"/>
</linearGradient>
<linearGradient id="paint4_linear" x1="16.8539" y1="59.6484" x2="108.032" y2="-37.3558" gradientUnits="userSpaceOnUse">
<stop stop-color="#00E0FF"/>
<stop offset="1" stop-color="#AA55FF"/>
</linearGradient>
<linearGradient id="paint5_linear" x1="16.8539" y1="59.6484" x2="108.032" y2="-37.3558" gradientUnits="userSpaceOnUse">
<stop stop-color="#00E0FF"/>
<stop offset="1" stop-color="#AA55FF"/>
</linearGradient>
<linearGradient id="paint6_linear" x1="16.8539" y1="59.6484" x2="108.032" y2="-37.3558" gradientUnits="userSpaceOnUse">
<stop stop-color="#00E0FF"/>
<stop offset="1" stop-color="#AA55FF"/>
</linearGradient>
<linearGradient id="paint7_linear" x1="16.8539" y1="59.6484" x2="108.032" y2="-37.3558" gradientUnits="userSpaceOnUse">
<stop stop-color="#00E0FF"/>
<stop offset="1" stop-color="#AA55FF"/>
</linearGradient>
<linearGradient id="paint8_linear" x1="16.8539" y1="59.6484" x2="108.032" y2="-37.3558" gradientUnits="userSpaceOnUse">
<stop stop-color="#00E0FF"/>
<stop offset="1" stop-color="#AA55FF"/>
</linearGradient>
</defs>
</svg>
