<svg width="98" height="14" viewBox="0 0 98 14" fill="none" xmlns="http://www.w3.org/2000/svg">
<path d="M37.3884 7.18181C37.3884 3.46022 35.1612 1.20454 32.1498 1.20454C29.1271 1.20454 26.9055 3.46022 26.9055 7.18181C26.9055 10.8977 29.1271 13.1591 32.1498 13.1591C35.1612 13.1591 37.3884 10.9034 37.3884 7.18181ZM35.6498 7.18181C35.6498 10.017 34.1498 11.5568 32.1498 11.5568C30.1441 11.5568 28.6498 10.017 28.6498 7.18181C28.6498 4.34658 30.1441 2.80681 32.1498 2.80681C34.1498 2.80681 35.6498 4.34658 35.6498 7.18181Z" fill="#292929"/>
<path d="M46.9069 4.27272H45.083L42.8785 10.9886H42.7876L40.5774 4.27272H38.7535L41.924 13H43.7421L46.9069 4.27272Z" fill="#292929"/>
<path d="M51.9524 13.1761C53.8558 13.1761 55.2024 12.2386 55.5887 10.8182L53.9808 10.5284C53.674 11.3523 52.9353 11.7727 51.9694 11.7727C50.5149 11.7727 49.5376 10.8295 49.4921 9.14772H55.6967V8.54545C55.6967 5.39204 53.8103 4.15908 51.833 4.15908C49.4012 4.15908 47.799 6.01136 47.799 8.69317C47.799 11.4034 49.3785 13.1761 51.9524 13.1761ZM49.4978 7.87499C49.566 6.63636 50.4637 5.56249 51.8444 5.56249C53.1626 5.56249 54.0262 6.53977 54.0319 7.87499H49.4978Z" fill="#292929"/>
<path d="M57.5816 13H59.2805V7.67045C59.2805 6.5284 60.1612 5.70454 61.3657 5.70454C61.718 5.70454 62.1157 5.76704 62.2521 5.80681V4.18181C62.0816 4.15908 61.7464 4.14204 61.5305 4.14204C60.5078 4.14204 59.6328 4.72158 59.3146 5.65908H59.2237V4.27272H57.5816V13Z" fill="#292929"/>
<path d="M71.4538 4.27272H69.6299L67.4254 10.9886H67.3345L65.1242 4.27272H63.3004L66.4708 13H68.289L71.4538 4.27272Z" fill="#292929"/>
<path d="M73.0504 13H74.7492V4.27272H73.0504V13ZM73.9083 2.92613C74.4936 2.92613 74.9822 2.47158 74.9822 1.91477C74.9822 1.35795 74.4936 0.89772 73.9083 0.89772C73.3174 0.89772 72.8345 1.35795 72.8345 1.91477C72.8345 2.47158 73.3174 2.92613 73.9083 2.92613Z" fill="#292929"/>
<path d="M80.7961 13.1761C82.6995 13.1761 84.0461 12.2386 84.4325 10.8182L82.8245 10.5284C82.5177 11.3523 81.7791 11.7727 80.8132 11.7727C79.3586 11.7727 78.3813 10.8295 78.3359 9.14772H84.5404V8.54545C84.5404 5.39204 82.6541 4.15908 80.6768 4.15908C78.245 4.15908 76.6427 6.01136 76.6427 8.69317C76.6427 11.4034 78.2222 13.1761 80.7961 13.1761ZM78.3416 7.87499C78.4097 6.63636 79.3075 5.56249 80.6882 5.56249C82.0063 5.56249 82.87 6.53977 82.8757 7.87499H78.3416Z" fill="#292929"/>
<path d="M88.3018 13H90.0291L91.8018 6.69886H91.9325L93.7052 13H95.4382L98.0007 4.27272H96.245L94.5461 10.6534H94.4609L92.7563 4.27272H91.0007L89.2847 10.6818H89.1995L87.4893 4.27272H85.7336L88.3018 13Z" fill="#292929"/>
<path d="M9.0023 0.999993C9.72715 1.49221 12.0133 3.29702 12.0133 6.46497C12.0133 9.60205 9.75917 11.6704 9.00076 12.2772C8.24235 11.6721 5.99148 9.61099 5.99148 6.46497C5.99126 3.309 8.2781 1.49506 9.0023 0.999993Z" fill="#292929"/>
<path d="M1.93033 3.90031C3.69147 3.84873 4.9201 4.28003 5.43616 4.50523C5.26487 5.09695 5.15652 5.74573 5.15652 6.46497C5.15652 9.21076 6.66237 11.1723 7.72805 12.2183C5.74518 11.8621 4.23451 11.0665 3.24077 9.83151C1.51933 7.69227 1.78931 4.81287 1.93033 3.90031Z" fill="#292929"/>
<path d="M3.93842 13.6253C1.77725 13.1197 0.417247 11.1979 0.0020752 10.5307C0.772764 9.81202 1.57394 9.52367 1.98253 9.41341C2.15141 9.71232 2.34046 10.0051 2.56702 10.2892C3.72875 11.7352 5.48594 12.6488 7.79165 13.0186C6.44481 13.701 5.15302 13.9124 3.93842 13.6253Z" fill="#292929"/>
<path d="M16.0743 3.90031C16.2144 4.81287 16.4842 7.69227 14.7625 9.83172C13.7685 11.0667 12.2579 11.8623 10.2759 12.2169C11.3413 11.1723 12.8483 9.21096 12.8483 6.46517C12.8483 5.74593 12.7399 5.09614 12.5687 4.50503C13.0825 4.27922 14.3074 3.84873 16.0743 3.90031Z" fill="#292929"/>
<path d="M14.071 13.6253C12.8571 13.9108 11.5613 13.701 10.2112 13.0186C12.5169 12.6488 14.2739 11.7352 15.4358 10.2892C15.663 10.0053 15.8514 9.7111 16.021 9.41341C16.4278 9.51921 17.2259 9.80288 18.0021 10.5307C17.59 11.1979 16.2363 13.1154 14.071 13.6253Z" fill="#292929"/>
</svg>
