<svg width="19" height="18" viewBox="0 0 19 18" fill="none" xmlns="http://www.w3.org/2000/svg">
<g clip-path="url(#clip0)">
<path d="M9.0023 3C9.72715 3.49222 12.0133 5.29702 12.0133 8.46497C12.0133 11.6021 9.75917 13.6704 9.00076 14.2772C8.24235 13.6721 5.99148 11.611 5.99148 8.46497C5.99126 5.309 8.2781 3.49506 9.0023 3Z" fill="#27C8D2"/>
<path d="M1.93033 5.90032C3.69147 5.84874 4.9201 6.28004 5.43616 6.50524C5.26487 7.09695 5.15652 7.74573 5.15652 8.46497C5.15652 11.2108 6.66237 13.1723 7.72805 14.2183C5.74518 13.8621 4.23451 13.0665 3.24077 11.8315C1.51933 9.69227 1.78931 6.81287 1.93033 5.90032Z" fill="#27C8D2"/>
<path d="M3.93842 15.6253C1.77725 15.1197 0.417247 13.1979 0.0020752 12.5307C0.772764 11.812 1.57394 11.5237 1.98253 11.4134C2.15141 11.7123 2.34046 12.0051 2.56702 12.2892C3.72875 13.7352 5.48594 14.6488 7.79165 15.0186C6.44481 15.701 5.15302 15.9124 3.93842 15.6253Z" fill="#27C8D2"/>
<path d="M16.0743 5.90032C16.2144 6.81287 16.4842 9.69227 14.7625 11.8317C13.7685 13.0667 12.2579 13.8623 10.2759 14.2169C11.3413 13.1723 12.8483 11.211 12.8483 8.46518C12.8483 7.74594 12.7399 7.09614 12.5687 6.50503C13.0825 6.27923 14.3074 5.84874 16.0743 5.90032Z" fill="#27C8D2"/>
<path d="M14.071 15.6253C12.8571 15.9108 11.5613 15.701 10.2112 15.0186C12.5169 14.6488 14.2739 13.7352 15.4358 12.2892C15.663 12.0053 15.8514 11.7111 16.021 11.4134C16.4278 11.5192 17.2259 11.8029 18.0021 12.5307C17.59 13.1979 16.2363 15.1154 14.071 15.6253Z" fill="#27C8D2"/>
</g>
<defs>
<clipPath id="clip0">
<rect width="18" height="18" fill="white" transform="translate(0.0020752)"/>
</clipPath>
</defs>
</svg>
