<svg width="32" height="32" viewBox="0 0 32 32" fill="none" xmlns="http://www.w3.org/2000/svg">
<path d="M16 0C7.16 0 2.33527e-06 7.34128 2.33527e-06 16.4051C-0.00181241 19.849 1.0541 23.206 3.01795 25.9999C4.98179 28.7938 7.75383 30.8827 10.9408 31.9703C11.7408 32.113 12.04 31.6208 12.04 31.1894C12.04 30.8006 12.0192 29.5095 12.0192 28.1347C8 28.8943 6.96 27.1308 6.64 26.2072C6.4592 25.7347 5.68 24.2796 5 23.8891C4.44 23.5823 3.64 22.8228 4.9792 22.8031C6.24 22.7818 7.1392 23.9925 7.44 24.4846C8.88 26.9651 11.1808 26.2678 12.0992 25.838C12.24 24.7717 12.6592 24.0548 13.12 23.6447C9.56 23.2345 5.84 21.8188 5.84 15.5438C5.84 13.759 6.4592 12.2841 7.48 11.1341C7.32 10.724 6.76 9.04249 7.64 6.78679C7.64 6.78679 8.9792 6.35698 12.04 8.46995C13.3425 8.0993 14.6883 7.91274 16.04 7.91546C17.4 7.91546 18.76 8.0992 20.04 8.46831C23.0992 6.33565 24.44 6.78843 24.44 6.78843C25.32 9.04413 24.76 10.7257 24.6 11.1358C25.6192 12.2841 26.24 13.7393 26.24 15.5438C26.24 21.8401 22.5008 23.2345 18.9408 23.6447C19.52 24.1565 20.0208 25.1408 20.0208 26.6796C20.0208 28.873 20 30.6365 20 31.191C20 31.6208 20.3008 32.1327 21.1008 31.9686C24.2768 30.8691 27.0367 28.7762 28.9918 25.9843C30.947 23.1924 31.9991 19.8422 32 16.4051C32 7.34128 24.84 0 16 0Z" fill="url(#paint0_linear)"/>
<defs>
<linearGradient id="paint0_linear" x1="4.14815" y1="56.5" x2="48.6508" y2="44.2992" gradientUnits="userSpaceOnUse">
<stop stop-color="#00E0FF"/>
<stop offset="1" stop-color="#AA55FF"/>
</linearGradient>
</defs>
</svg>
