<svg width="32" height="32" viewBox="0 0 32 32" fill="none" xmlns="http://www.w3.org/2000/svg">
<path d="M1.77778 0H30.2222C30.6937 0 31.1459 0.187301 31.4793 0.520699C31.8127 0.854097 32 1.30628 32 1.77778V30.2222C32 30.6937 31.8127 31.1459 31.4793 31.4793C31.1459 31.8127 30.6937 32 30.2222 32H1.77778C1.30628 32 0.854097 31.8127 0.520699 31.4793C0.187301 31.1459 0 30.6937 0 30.2222V1.77778C0 1.30628 0.187301 0.854097 0.520699 0.520699C0.854097 0.187301 1.30628 0 1.77778 0ZM25.4222 23.0044C25.2444 22.9156 25.1556 22.6489 25.1556 22.4693V8.89956C25.1556 8.72178 25.2444 8.45511 25.4222 8.27556L27.12 6.31111V6.22222H21.0489L16.4978 17.7387L11.3173 6.22222H5.07022V6.31111L6.67556 8.544C7.03289 8.89956 7.12178 9.43644 7.12178 9.88267V19.7013C7.21067 20.2382 7.12178 20.8622 6.85511 21.3973L4.44444 24.7004V24.7893H10.8729V24.7004L8.46222 21.488C8.19556 20.9511 8.10489 20.416 8.19556 19.792V10.8622C8.28444 11.04 8.37333 11.04 8.46222 11.3973L14.5316 24.9671H14.6204L20.5156 10.24C20.4267 10.7733 20.4267 11.3991 20.4267 11.8471V22.3804C20.4267 22.6471 20.3378 22.8249 20.16 23.0044L18.3733 24.7004V24.7893H27.1218V24.7004L25.4258 23.0044H25.4222Z" fill="url(#paint0_linear)"/>
<defs>
<linearGradient id="paint0_linear" x1="4.14815" y1="56.5" x2="48.6508" y2="44.2992" gradientUnits="userSpaceOnUse">
<stop stop-color="#00E0FF"/>
<stop offset="1" stop-color="#AA55FF"/>
</linearGradient>
</defs>
</svg>
