<svg width="39" height="32" viewBox="0 0 39 32" fill="none" xmlns="http://www.w3.org/2000/svg">
<path d="M38.8552 3.79875C37.3999 4.45077 35.8566 4.87898 34.2764 5.06922C35.942 4.06024 37.1886 2.47232 37.7839 0.601347C36.2208 1.54358 34.5071 2.20391 32.7209 2.56111C31.5211 1.26087 29.9308 0.398542 28.1973 0.108192C26.4637 -0.182159 24.684 0.115734 23.1348 0.955558C21.5857 1.79538 20.3538 3.13008 19.6309 4.75216C18.9079 6.37424 18.7342 8.19282 19.1369 9.92517C15.967 9.76425 12.866 8.92989 10.0351 7.47627C7.20421 6.02265 4.70679 3.98227 2.70498 1.48758C1.9964 2.7203 1.62405 4.12163 1.62604 5.54805C1.62604 8.34771 3.03285 10.8211 5.17168 12.2692C3.90594 12.2288 2.66806 11.8826 1.56122 11.2594V11.3598C1.56161 13.2243 2.19862 15.0314 3.36425 16.4746C4.52989 17.9177 6.15241 18.9082 7.95672 19.278C6.78173 19.6005 5.5497 19.648 4.35389 19.417C4.86261 21.0219 5.85413 22.4255 7.18962 23.4313C8.52512 24.4371 10.1377 24.9947 11.8016 25.0259C10.1479 26.3415 8.25443 27.3139 6.22942 27.8877C4.20441 28.4615 2.08759 28.6254 0 28.3701C3.64419 30.7439 7.88637 32.0041 12.2191 32C26.8839 32 34.9036 19.695 34.9036 9.02349C34.9036 8.67595 34.894 8.32454 34.8788 7.98086C36.4398 6.83815 37.787 5.42259 38.8571 3.80068L38.8552 3.79875Z" fill="url(#paint0_linear)"/>
<defs>
<linearGradient id="paint0_linear" x1="5.03704" y1="56.5" x2="57.341" y2="39.0876" gradientUnits="userSpaceOnUse">
<stop stop-color="#00E0FF"/>
<stop offset="1" stop-color="#AA55FF"/>
</linearGradient>
</defs>
</svg>
