<svg width="18" height="18" viewBox="0 0 18 18" fill="none" xmlns="http://www.w3.org/2000/svg">
<path d="M9.00022 3C9.72507 3.49222 12.0113 5.29702 12.0113 8.46497C12.0113 11.6021 9.75709 13.6704 8.99868 14.2772C8.24028 13.6721 5.9894 11.611 5.9894 8.46497C5.98918 5.309 8.27603 3.49506 9.00022 3Z" fill="#27C8D2"/>
<path d="M1.92826 5.90032C3.68939 5.84874 4.91802 6.28004 5.43408 6.50524C5.26279 7.09695 5.15445 7.74573 5.15445 8.46497C5.15445 11.2108 6.6603 13.1723 7.72597 14.2183C5.7431 13.8621 4.23243 13.0665 3.23869 11.8315C1.51725 9.69227 1.78724 6.81287 1.92826 5.90032Z" fill="#27C8D2"/>
<path d="M3.93635 15.6253C1.77517 15.1197 0.415172 13.1979 0 12.5307C0.770689 11.812 1.57186 11.5237 1.98046 11.4134C2.14933 11.7123 2.33839 12.0051 2.56494 12.2892C3.72668 13.7352 5.48387 14.6488 7.78957 15.0186C6.44273 15.701 5.15094 15.9124 3.93635 15.6253Z" fill="#27C8D2"/>
<path d="M16.0722 5.90032C16.2123 6.81287 16.4821 9.69227 14.7604 11.8317C13.7665 13.0667 12.2558 13.8623 10.2738 14.2169C11.3393 13.1723 12.8462 11.211 12.8462 8.46518C12.8462 7.74594 12.7379 7.09614 12.5666 6.50503C13.0804 6.27923 14.3053 5.84874 16.0722 5.90032Z" fill="#27C8D2"/>
<path d="M14.0689 15.6253C12.855 15.9108 11.5592 15.701 10.2091 15.0186C12.5148 14.6488 14.2718 13.7352 15.4337 12.2892C15.661 12.0053 15.8494 11.7111 16.0189 11.4134C16.4257 11.5192 17.2238 11.8029 18 12.5307C17.5879 13.1979 16.2343 15.1154 14.0689 15.6253Z" fill="#27C8D2"/>
</svg>
