<svg width="18" height="18" viewBox="0 0 18 18" fill="none" xmlns="http://www.w3.org/2000/svg">
<path d="M12.048 3.44397C12.048 4.7938 10.9538 5.88793 9.604 5.88793C8.25417 5.88793 7.16003 4.7938 7.16003 3.44397C7.16003 2.09413 8.25417 1 9.604 1C10.9538 1 12.048 2.09413 12.048 3.44397Z" fill="#292929"/>
<path d="M14.3986 13.9746H13.9758C11.1955 13.9746 7.99219 17.1986 7.99219 17.1986H14.3986C15.283 17.1986 16.0001 16.4768 16.0001 15.5866C16.0001 14.6962 15.283 13.9746 14.3986 13.9746Z" fill="#292929"/>
<path d="M5.36506 8.87843L4.9762 13.1H5.11266C5.49632 13.0997 5.87775 13.1529 6.24625 13.2576C7.42207 13.5417 8.5686 14.1713 9.50152 14.8052C10.7603 13.9499 12.4089 13.1 13.9916 13.1H14.1281L13.7394 8.87828C13.6305 7.63836 12.5765 6.68795 11.3156 6.69338H7.78878C6.52794 6.68781 5.47372 7.63836 5.36506 8.87843Z" fill="#292929"/>
<path d="M5.04377 13.9746H4.61697C3.72397 13.9746 3 14.6962 3 15.5866C3 16.4768 3.72397 17.1986 4.61697 17.1986H6.80874L7.38027 16.6287C7.83625 16.1869 8.31846 15.773 8.82392 15.3888C7.70959 14.6538 6.33231 13.9746 5.04377 13.9746Z" fill="#292929"/>
</svg>
