<svg width="130" height="32" viewBox="0 0 130 32" fill="none" xmlns="http://www.w3.org/2000/svg">
<circle cx="16" cy="16" r="16" fill="url(#paint0_linear)"/>
<path d="M16.0003 7C16.9668 7.65629 20.015 10.0627 20.015 14.2866C20.015 18.4694 17.0095 21.2273 15.9982 22.0362C14.987 21.2294 11.9859 18.4813 11.9859 14.2866C11.9856 10.0787 15.0347 7.66008 16.0003 7Z" fill="white"/>
<path d="M6.57101 10.8671C8.91919 10.7983 10.5574 11.3734 11.2454 11.6736C11.0171 12.4626 10.8726 13.3276 10.8726 14.2866C10.8726 17.9477 12.8804 20.5631 14.3013 21.9577C11.6575 21.4828 9.64324 20.422 8.31826 18.7754C6.023 15.923 6.38298 12.0838 6.57101 10.8671Z" fill="white"/>
<path d="M9.24847 23.8337C6.3669 23.1596 4.55356 20.5972 4 19.7075C5.02759 18.7494 6.09582 18.3649 6.64061 18.2179C6.86578 18.6164 7.11785 19.0068 7.41992 19.3856C8.9689 21.3136 11.3118 22.5317 14.3861 23.0247C12.5903 23.9347 10.8679 24.2166 9.24847 23.8337Z" fill="white"/>
<path d="M25.4296 10.8671C25.6164 12.0838 25.9761 15.923 23.6806 18.7756C22.3553 20.4223 20.3411 21.4831 17.6984 21.9558C19.119 20.5631 21.1283 17.948 21.1283 14.2869C21.1283 13.3279 20.9838 12.4615 20.7554 11.6734C21.4406 11.3723 23.0738 10.7983 25.4296 10.8671Z" fill="white"/>
<path d="M22.7586 23.8337C21.14 24.2144 19.4123 23.9347 17.6121 23.0247C20.6864 22.5317 23.029 21.3136 24.5783 19.3856C24.8813 19.0071 25.1325 18.6148 25.3585 18.2179C25.901 18.3589 26.9651 18.7372 28 19.7075C27.4505 20.5972 25.6457 23.1539 22.7586 23.8337Z" fill="white"/>
<path fill-rule="evenodd" clip-rule="evenodd" d="M56.1307 6.6796H59.3508V26.5594H56.2218V13.7457L50.878 26.5594H48.2201L43.1565 13.9073V26.5594H40V6.6796H43.446L49.6457 22.2407L56.1307 6.6796ZM49.6342 23.6959L43.0742 7.23029H40.549V26.0088H42.6076V11.0576L48.5912 26.0088H50.5126L56.7707 11.0025V26.0088H58.8019V7.23029H56.4962L49.6342 23.6959ZM64.0223 26.5594V12.572H66.9867V26.5594H64.0223ZM64.0396 10.5596L64.0336 10.5531C63.6587 10.152 63.4734 9.65722 63.4734 9.10263C63.4734 8.55879 63.6643 8.07728 64.0459 7.69446C64.4435 7.29559 64.9408 7.09262 65.5045 7.09262C66.0544 7.09262 66.5382 7.29859 66.9295 7.68825C67.3346 8.07241 67.5357 8.56709 67.5357 9.13016C67.5357 9.68465 67.3282 10.1722 66.9357 10.5659C66.5433 10.9595 66.0573 11.1677 65.5045 11.1677C64.9408 11.1677 64.4435 10.9647 64.0459 10.5659L64.0396 10.5596ZM66.5476 8.08385C66.2548 7.79015 65.9071 7.6433 65.5045 7.6433C65.0837 7.6433 64.7268 7.79015 64.4341 8.08385C64.1596 8.3592 64.0223 8.69879 64.0223 9.10263C64.0223 9.52482 64.1596 9.88277 64.4341 10.1765C64.7268 10.4702 65.0837 10.617 65.5045 10.617C65.9071 10.617 66.2548 10.4702 66.5476 10.1765C66.8403 9.88277 66.9867 9.534 66.9867 9.13016C66.9867 8.70797 66.8403 8.3592 66.5476 8.08385ZM83.3616 26.5594H80.3972V18.2165C80.3972 17.0111 80.1279 16.2099 79.6856 15.7126C79.2541 15.2273 78.5753 14.9399 77.5426 14.9399C76.372 14.9399 75.5657 15.3451 75.0267 16.1111C74.4539 16.9252 74.1391 18.0589 74.1391 19.5657V26.5594H71.1747V12.572H74.1391V13.6038C74.4095 13.3366 74.7064 13.1024 75.0299 12.9026C75.8575 12.3841 76.8016 12.1314 77.8445 12.1314C78.8174 12.1314 79.7232 12.331 80.5533 12.7367C81.4132 13.148 82.0964 13.7594 82.5914 14.5645C83.1115 15.3803 83.3616 16.3297 83.3616 17.3905V26.5594ZM82.1264 14.8573C81.6873 14.1414 81.0834 13.5999 80.3149 13.2328C79.5646 12.8657 78.7412 12.6821 77.8445 12.6821C76.893 12.6821 76.0513 12.9116 75.3193 13.3705C74.872 13.6466 74.4786 13.9985 74.1391 14.4261C73.937 14.6807 73.754 14.9621 73.5901 15.2703V13.1227H71.7236V26.0088H73.5901V19.5657C73.5901 17.9871 73.9195 16.7297 74.5782 15.7935C75.237 14.8573 76.2251 14.3892 77.5426 14.3892C79.8116 14.3892 80.9462 15.665 80.9462 18.2165V26.0088H82.8126V17.3905C82.8126 16.4176 82.5839 15.5732 82.1264 14.8573ZM99.7785 5.46809V26.5594H96.8141V25.53C96.4667 25.8356 96.0879 26.1013 95.6779 26.3266L95.6735 26.329L95.669 26.3314C94.8175 26.7788 93.8877 27 92.889 27C91.5715 27 90.374 26.6831 89.3115 26.0396C88.2526 25.3982 87.4249 24.5054 86.8313 23.3741C86.2356 22.2387 85.9447 20.9555 85.9447 19.5382C85.9447 18.141 86.2257 16.8772 86.8022 15.7605L86.803 15.7589L86.8039 15.7573C87.396 14.6286 88.2127 13.7362 89.2527 13.0942L89.2547 13.093L89.2566 13.0918C90.3191 12.4483 91.5166 12.1314 92.8341 12.1314C93.8507 12.1314 94.7909 12.3617 95.6437 12.8287C96.0682 13.0472 96.4584 13.3118 96.8141 13.6214V5.46809H99.7785ZM97.3631 15.0501C97.1932 14.8092 97.0102 14.5861 96.8141 14.3809C96.3975 13.9451 95.9218 13.59 95.3868 13.3154C94.6183 12.8932 93.7674 12.6821 92.8341 12.6821C91.6081 12.6821 90.5102 12.9758 89.5404 13.5632C88.5889 14.1506 87.8386 14.9675 87.2897 16.0138C86.759 17.0417 86.4937 18.2165 86.4937 19.5382C86.4937 20.8782 86.7681 22.0713 87.3171 23.1176C87.8661 24.164 88.6255 24.9808 89.5953 25.5682C90.5651 26.1556 91.663 26.4493 92.889 26.4493C93.804 26.4493 94.6457 26.2474 95.4143 25.8436C95.9356 25.5572 96.4022 25.199 96.8141 24.769C97.0094 24.5651 97.1924 24.3451 97.3631 24.1089V26.0088H99.2295V6.01877H97.3631V15.0501ZM94.8713 23.6175L94.8741 23.6157C95.4777 23.2333 95.9508 22.6986 96.2934 21.9949C96.6366 21.29 96.8141 20.484 96.8141 19.5657C96.8141 18.6474 96.6366 17.8414 96.2934 17.1365C95.9508 16.4328 95.4777 15.8981 94.8741 15.5157L94.8713 15.5139L94.8685 15.5121C94.2882 15.1345 93.6162 14.9399 92.8341 14.9399C92.0728 14.9399 91.4094 15.1333 90.8273 15.5121C90.2408 15.8936 89.7742 16.4291 89.4298 17.1365L89.4287 17.1388L89.4275 17.1411C89.0867 17.8249 88.9091 18.6196 88.9091 19.5382C88.9091 20.4765 89.0873 21.2913 89.4298 21.9949C89.7742 22.7023 90.2408 23.2378 90.8273 23.6193C91.4094 23.9982 92.0728 24.1915 92.8341 24.1915C93.6162 24.1915 94.2882 23.9969 94.8685 23.6193L94.8713 23.6175ZM109.565 12.572V15.3805H106.601V26.5594H103.636V15.3805H101.989V12.572H103.636V9.62578C103.636 8.30589 104.056 7.18652 104.922 6.31774C105.804 5.43325 106.928 5 108.247 5H109.565V7.80851H108.247C107.75 7.80851 107.367 7.97225 107.056 8.29522C106.764 8.61695 106.601 9.04418 106.601 9.62578V12.572H109.565ZM106.655 7.91865C107.076 7.4781 107.607 7.25782 108.247 7.25782H109.016V5.55069H108.247C107.058 5.55069 106.079 5.93617 105.311 6.70713C104.56 7.45974 104.185 8.43262 104.185 9.62578V13.1227H102.538V14.8298H104.185V26.0088H106.052V14.8298H109.016V13.1227H106.052V9.62578C106.052 8.92824 106.253 8.3592 106.655 7.91865ZM123.711 12.572V26.5594H120.747V25.5278C120.47 25.8032 120.164 26.0462 119.83 26.2555L119.829 26.2565L119.827 26.2575C119.016 26.7584 118.081 27 117.042 27C116.068 27 115.154 26.8 114.308 26.3958L114.305 26.3947L114.303 26.3936C113.461 25.9814 112.781 25.3708 112.27 24.5713L112.267 24.567L112.265 24.5627C111.764 23.7471 111.525 22.7994 111.525 21.7409V12.572H114.489V20.9149C114.489 22.1203 114.758 22.9215 115.2 23.4188C115.632 23.9041 116.311 24.1915 117.343 24.1915C118.514 24.1915 119.32 23.7863 119.859 23.0203C120.432 22.2063 120.747 21.0725 120.747 19.5657V12.572H123.711ZM120.747 24.7043C120.95 24.4485 121.133 24.1674 121.296 23.8611V26.0088H123.162V13.1227H121.296V19.5657C121.296 21.1443 120.967 22.4018 120.308 23.3379C119.649 24.2741 118.661 24.7422 117.343 24.7422C115.074 24.7422 113.94 23.4664 113.94 20.9149V13.1227H112.073V21.7409C112.073 22.7138 112.293 23.5582 112.732 24.2741C113.19 24.99 113.794 25.5315 114.544 25.8986C115.312 26.2657 116.145 26.4493 117.042 26.4493C117.993 26.4493 118.826 26.229 119.539 25.7885C120 25.4998 120.402 25.1384 120.747 24.7043ZM127.036 26.5594V5.46809H130V26.5594H127.036ZM64.5713 26.0088H66.4378V13.1227H64.5713V26.0088ZM95.1672 24.0814C94.4902 24.5219 93.7125 24.7422 92.8341 24.7422C91.9741 24.7422 91.2056 24.5219 90.5285 24.0814C89.8515 23.6408 89.3208 23.0259 88.9365 22.2365C88.5523 21.4472 88.3601 20.5478 88.3601 19.5382C88.3601 18.5469 88.5523 17.6658 88.9365 16.8949C89.3208 16.1055 89.8515 15.4906 90.5285 15.0501C91.2056 14.6095 91.9741 14.3892 92.8341 14.3892C93.7125 14.3892 94.4902 14.6095 95.1672 15.0501C95.8626 15.4906 96.4024 16.1055 96.7867 16.8949C97.1709 17.6842 97.3631 18.5745 97.3631 19.5657C97.3631 20.5569 97.1709 21.4472 96.7867 22.2365C96.4024 23.0259 95.8626 23.6408 95.1672 24.0814ZM127.585 26.0088H129.451V6.01877H127.585V26.0088Z" fill="#292929"/>
<path d="M50.5126 26.0088H48.5912L42.6076 11.0576V26.0088H40.549V7.23029H43.0742L49.6342 23.6959L56.4962 7.23029H58.8019V26.0088H56.7707V11.0025L50.5126 26.0088Z" fill="#292929"/>
<path d="M64.5713 26.0088V13.1227H66.4378V26.0088H64.5713Z" fill="#292929"/>
<path d="M65.5045 7.6433C65.9071 7.6433 66.2548 7.79015 66.5476 8.08385C66.8403 8.3592 66.9867 8.70797 66.9867 9.13016C66.9867 9.534 66.8403 9.88277 66.5476 10.1765C66.2548 10.4702 65.9071 10.617 65.5045 10.617C65.0837 10.617 64.7268 10.4702 64.4341 10.1765C64.1596 9.88277 64.0223 9.52482 64.0223 9.10263C64.0223 8.69879 64.1596 8.3592 64.4341 8.08385C64.7268 7.79015 65.0837 7.6433 65.5045 7.6433Z" fill="#292929"/>
<path d="M80.3149 13.2328C81.0834 13.5999 81.6873 14.1414 82.1264 14.8573C82.5839 15.5732 82.8126 16.4176 82.8126 17.3905V26.0088H80.9462V18.2165C80.9462 15.665 79.8116 14.3892 77.5426 14.3892C76.2251 14.3892 75.237 14.8573 74.5782 15.7935C73.9195 16.7297 73.5901 17.9871 73.5901 19.5657V26.0088H71.7236V13.1227H73.5901V15.2703C73.754 14.9621 73.937 14.6807 74.1391 14.4261C74.4786 13.9985 74.872 13.6466 75.3193 13.3705C76.0513 12.9116 76.893 12.6821 77.8445 12.6821C78.7412 12.6821 79.5646 12.8657 80.3149 13.2328Z" fill="#292929"/>
<path fill-rule="evenodd" clip-rule="evenodd" d="M96.8141 14.3809C97.0102 14.5861 97.1932 14.8092 97.3631 15.0501V6.01877H99.2295V26.0088H97.3631V24.1089C97.1924 24.3451 97.0094 24.5651 96.8141 24.769C96.4022 25.199 95.9356 25.5572 95.4143 25.8436C94.6457 26.2474 93.804 26.4493 92.889 26.4493C91.663 26.4493 90.5651 26.1556 89.5953 25.5682C88.6255 24.9808 87.8661 24.164 87.3171 23.1176C86.7681 22.0713 86.4937 20.8782 86.4937 19.5382C86.4937 18.2165 86.759 17.0417 87.2897 16.0138C87.8386 14.9675 88.5889 14.1506 89.5404 13.5632C90.5102 12.9758 91.6081 12.6821 92.8341 12.6821C93.7674 12.6821 94.6183 12.8932 95.3868 13.3154C95.9218 13.59 96.3975 13.9451 96.8141 14.3809ZM95.1672 24.0814C94.4902 24.5219 93.7125 24.7422 92.8341 24.7422C91.9741 24.7422 91.2056 24.5219 90.5285 24.0814C89.8515 23.6408 89.3208 23.0259 88.9365 22.2365C88.5523 21.4472 88.3601 20.5478 88.3601 19.5382C88.3601 18.5469 88.5523 17.6658 88.9365 16.8949C89.3208 16.1055 89.8515 15.4906 90.5285 15.0501C91.2056 14.6095 91.9741 14.3892 92.8341 14.3892C93.7125 14.3892 94.4902 14.6095 95.1672 15.0501C95.8626 15.4906 96.4024 16.1055 96.7867 16.8949C97.1709 17.6842 97.3631 18.5745 97.3631 19.5657C97.3631 20.5569 97.1709 21.4472 96.7867 22.2365C96.4024 23.0259 95.8626 23.6408 95.1672 24.0814Z" fill="#292929"/>
<path d="M108.247 7.25782C107.607 7.25782 107.076 7.4781 106.655 7.91865C106.253 8.3592 106.052 8.92824 106.052 9.62578V13.1227H109.016V14.8298H106.052V26.0088H104.185V14.8298H102.538V13.1227H104.185V9.62578C104.185 8.43262 104.56 7.45974 105.311 6.70713C106.079 5.93617 107.058 5.55069 108.247 5.55069H109.016V7.25782H108.247Z" fill="#292929"/>
<path d="M121.296 23.8611C121.133 24.1674 120.95 24.4485 120.747 24.7043C120.402 25.1384 120 25.4998 119.539 25.7885C118.826 26.229 117.993 26.4493 117.042 26.4493C116.145 26.4493 115.312 26.2657 114.544 25.8986C113.794 25.5315 113.19 24.99 112.732 24.2741C112.293 23.5582 112.073 22.7138 112.073 21.7409V13.1227H113.94V20.9149C113.94 23.4664 115.074 24.7422 117.343 24.7422C118.661 24.7422 119.649 24.2741 120.308 23.3379C120.967 22.4018 121.296 21.1443 121.296 19.5657V13.1227H123.162V26.0088H121.296V23.8611Z" fill="#292929"/>
<path d="M127.585 26.0088V6.01877H129.451V26.0088H127.585Z" fill="#292929"/>
<defs>
<linearGradient id="paint0_linear" x1="16" y1="32" x2="16" y2="0.874999" gradientUnits="userSpaceOnUse">
<stop stop-color="#AA55FF"/>
<stop offset="1" stop-color="#00E0FF"/>
</linearGradient>
</defs>
</svg>
