<svg width="311" height="319" viewBox="0 0 311 319" fill="none" xmlns="http://www.w3.org/2000/svg">
<g clip-path="url(#clip0)">
<path d="M178.041 14.8286C170.303 22.9781 163.959 29.6821 163.959 29.7568C163.959 29.8814 193.293 56.9217 193.541 56.9964C193.691 57.0712 221.979 28.2864 222.128 27.9126C222.178 27.8129 215.958 21.9563 208.32 14.9283C200.682 7.87542 193.915 1.64495 193.293 1.07174L192.148 0.000102997L178.041 14.8286Z" fill="url(#paint0_linear)"/>
<path d="M134.203 17.6952C134.278 18.3183 134.402 19.9382 134.477 21.3089C135.149 32.7979 137.836 45.3585 141.742 55.3272C143.334 59.3895 146.419 65.3957 148.733 68.9097C154.829 78.2554 163.213 85.8316 172.668 90.5917C182.57 95.5761 193.368 97.9686 206.007 97.9935C220.164 98.0433 233.748 95.2022 248.029 89.2958C260.345 84.1868 271.018 77.3333 279.378 69.134L282.737 65.8692L280.746 63.4019C278.283 60.3365 272.909 53.4332 264.724 42.7417C261.265 38.2059 258.155 34.2184 257.857 33.8446L257.284 33.1468L254.1 35.963C239.023 49.2214 224.269 58.3428 210.709 62.8038C203.743 65.0966 198.145 66.0437 191.502 66.0437C185.257 66.0437 180.828 65.3209 175.404 63.4269C164.781 59.7135 155.177 52.0625 146.991 40.8476C142.662 34.9162 138.209 26.8166 135.596 20.1625C134.875 18.3183 134.228 16.7731 134.178 16.6983C134.104 16.6236 134.128 17.0722 134.203 17.6952Z" fill="url(#paint1_linear)"/>
<path d="M93.6732 65.4448C86.6571 66.1426 82.328 66.8654 76.5558 68.3108C62.5484 71.8248 47.4711 78.6534 32.0953 88.3979C29.7565 89.8683 27.8657 91.1642 27.8657 91.2639C27.8657 91.3885 48.317 128.522 49.6854 130.89C49.8347 131.164 53.7906 129.12 56.9504 127.176C58.3934 126.279 62.2249 123.712 65.4593 121.469C72.774 116.385 75.8343 114.516 80.2381 112.373C84.2686 110.429 87.7518 109.208 91.8073 108.385C94.4196 107.837 95.2905 107.787 101.51 107.787C108.477 107.787 110.442 107.962 115.294 108.933C125.569 111.002 132.511 115.912 134.626 122.616C135.372 124.933 135.521 128.697 134.974 131.363C133.133 140.485 125.445 148.983 116.687 151.625C111.064 153.294 103.153 154.266 95.1909 154.266C89.17 154.241 84.3681 153.843 75.8094 152.622C72.0525 152.073 69.2908 151.799 69.1665 151.924C69.0421 152.048 72.2765 162.54 76.9539 177.195C81.3825 190.976 85.0648 202.44 85.1394 202.665C85.2887 203.038 85.7116 202.939 88.7968 201.867C92.8024 200.447 99.1966 198.827 103.003 198.253C107.158 197.606 113.279 197.506 116.762 197.979C127.261 199.475 134.974 204.658 139.229 213.157C141.493 217.643 142.538 221.904 142.737 227.537C143.359 244.484 133.456 261.231 118.553 268.409C113.179 271 105.69 272.845 95.788 274.041C90.8618 274.639 80.9596 274.639 76.6304 274.041C67.7732 272.845 61.0805 270.851 53.9897 267.312C42.097 261.381 32.2197 252.209 23.7853 239.325C12.9874 222.802 5.22486 199.799 1.51774 173.357C1.24406 171.462 0.970377 169.867 0.920617 169.818C0.870857 169.743 0.746457 170.69 0.671817 171.886C-0.621943 190.029 0.0746972 208.048 2.61246 222.951C9.47934 263.05 29.7068 292.408 61.3044 308.059C72.5501 313.642 83.8954 316.981 96.7832 318.551C100.316 318.975 110.442 318.975 113.403 318.551C118.056 317.878 126.44 315.087 132.312 312.271C154.38 301.629 168.089 283.785 171.174 261.555C172.294 253.505 171.821 242.889 169.93 233.493C168.015 223.998 164.208 212.608 159.456 202.266C158.511 200.222 157.789 198.503 157.814 198.453C157.864 198.428 159.356 198.602 161.123 198.852C171.349 200.372 182.395 200.098 190.033 198.154C203.419 194.715 212.55 187.313 218.994 174.702C219.865 172.983 220.959 170.515 221.407 169.22C224.542 160.297 226.159 156.709 228.821 152.646C231.956 147.861 235.887 143.774 241.087 139.837C252.507 131.189 262.608 128.796 270.918 132.734C280.622 137.295 287.687 150.453 290.325 168.846C291.469 176.721 291.618 187.238 290.723 194.74C288.359 214.702 277.312 229.555 257.533 239.449C247.332 244.558 238.4 246.727 229.02 246.403C219.093 246.054 211.157 242.565 204.688 235.786C199.488 230.303 195.607 222.602 193.193 212.982C192.571 210.44 192.074 208.945 191.999 209.244C191.75 210.066 190.855 215.35 190.481 218.316C187.247 242.839 192.994 264.072 206.504 277.63C222.751 293.904 247.979 297.094 269.849 285.63C290.375 274.838 304.506 253.057 309.258 224.795C311.224 213.007 311.373 203.711 309.856 188.534C307.567 165.556 301.645 146.491 292.564 132.834C289.354 128.049 287.389 125.606 283.632 121.868C275.347 113.569 265.171 108.111 253.677 105.793C249.298 104.921 245.989 104.622 241.087 104.622C231.11 104.647 221.855 106.691 214.167 110.553C211.082 112.099 209.838 113.046 206.056 116.609C199.886 122.441 195.432 127.75 190.456 135.201C186.948 140.51 184.635 144.547 179.435 154.64C174.732 163.787 172.692 167.45 170.652 170.515C165.203 178.615 159.307 182.877 151.594 184.272C146.693 185.17 148.434 185.618 133.68 179.687C126.44 176.771 120.519 174.378 120.469 174.328C120.419 174.304 121.713 173.406 123.305 172.335C131.118 167.201 138.333 160.771 143.433 154.466C149.38 147.089 153.908 138.092 155.973 129.569C157.192 124.485 157.366 122.94 157.341 116.759C157.341 110.653 157.117 108.784 155.848 103.924C151.494 87.2515 138.855 74.2921 121.414 68.5601C114.423 66.2672 109.596 65.5196 101.013 65.4199C97.5296 65.3701 94.2206 65.395 93.6732 65.4448Z" fill="url(#paint2_linear)"/>
</g>
<defs>
<linearGradient id="paint0_linear" x1="171.5" y1="-43.6378" x2="252.162" y2="-21.0682" gradientUnits="userSpaceOnUse">
<stop stop-color="#00E0FF"/>
<stop offset="1" stop-color="#AA55FF"/>
</linearGradient>
<linearGradient id="paint1_linear" x1="153.397" y1="-45.5581" x2="330.999" y2="43.4375" gradientUnits="userSpaceOnUse">
<stop stop-color="#00E0FF"/>
<stop offset="1" stop-color="#AA55FF"/>
</linearGradient>
<linearGradient id="paint2_linear" x1="40.3303" y1="-128.675" x2="457.912" y2="11.7184" gradientUnits="userSpaceOnUse">
<stop stop-color="#00E0FF"/>
<stop offset="1" stop-color="#AA55FF"/>
</linearGradient>
<clipPath id="clip0">
<rect width="311" height="319" fill="white"/>
</clipPath>
</defs>
</svg>
