<svg width="1440" height="577" viewBox="0 0 1440 577" fill="none" xmlns="http://www.w3.org/2000/svg">
<path d="M1440 1L1433.5 18.5L1429 37L1425 26.5L1421.5 37L1418.5 50.5L1415 56.2531L1409.5 72L1406 63.5L1402.5 52.5L1397 67.9064L1393 82.69L1390.49 99.1702L1386.48 96.023L1382.47 79.714L1377.52 102.864L1373.51 106.44L1369.5 101.232L1363.5 108L1360 89.623L1357.5 79.714L1353.5 93.2155L1349 106.44L1344.73 114.964L1340.72 89.623L1336.71 93.2143L1332.7 76.4971L1328.69 96.7466L1324.68 92.3081L1320.67 88.8893L1316.66 86.5588L1314 108L1309.5 124L1304.5 117.5L1301.5 130.933L1295 156.674L1292 151.5L1289.5 141.62L1284.57 153.709L1280.56 159.797L1276.54 149.589L1272.53 137.259L1268.52 120.844L1264.51 145.937L1260.5 136.656L1256.49 130.364L1252.48 121.434L1248.47 130.933L1244.45 147.227L1240.44 135.491L1236.43 141.62L1232.42 145.37L1228.41 140.41L1224.4 148.911L1220.39 148.893L1216.38 156.674L1212.37 137.26L1208.35 166.642L1202 161.5L1198 197L1195.5 192.5L1192 181.5L1188.5 204L1184 192.5L1180.5 211.919L1176.26 235.775L1172.25 220.558L1168.24 229.98L1164.23 224.975L1160.22 224.6L1156.21 219.722L1152.2 221.423L1148.19 228.034L1144.18 221.308L1140.16 215.493L1136.15 199.615L1132.14 218.504L1128.13 211.919L1124.12 234.895L1120.11 237.138L1115.5 231.838L1112.09 246.963L1108 240.5L1105 235.076L1102.5 229.98L1100.05 220.617L1096.04 219.096L1092.03 226.244L1088.02 237.652L1084.01 223.355L1080 221.996L1075.99 227.631L1071.98 221.215L1067.96 209.896L1063.95 225.356L1059.94 231.838L1055.93 251.034L1051.92 232.849L1047.91 235.573L1043.9 235.076L1039.89 238.962L1035.87 234.687L1031.86 239.328L1027.85 249.7L1023.84 248.246L1019.83 238.638L1015.82 230.669L1011.81 244.435L1007.8 245.216L1003.79 256.799L999.775 256.594L995.763 248.884L991.752 259.748L987.741 253.689L983.73 248.387L979.719 252.403L975.708 249.363L971.697 245.926L967.685 263.902L963.674 275.56L959.663 280.797L955.652 289.182L951.641 294.729L947.63 285.932L943.619 274.191L939.608 286.035L935.596 292.511L931.5 306.5L930 319.5L924 309.5L920.5 323.5L917.5 334.5L915 344.5L909.5 338L903.5 328.5L901.5 340.5L899.5 349.5L894.5 344.5L891 357L888 367L883 361L878 364L873 357L869 371.5L865.401 390.159L861.39 389.12L857.379 379.095L853.368 386.742L849.357 383.566L845.346 396.54L841.335 404.774L837.323 415.388L833.312 405.331L829.301 407.735L825.29 394.372L821.279 411.087L817.268 404.992L813.257 437.207L809.245 445.009L805.234 459.611L801.223 449.423L797.212 440.743L793.201 440.116L789.19 425.711L785.179 429.915L781.167 411.259L777.156 416.565L770.5 415.388L766.5 422L762.5 429.915L759.5 437.207L755.5 429.362L751 417.5L748 424.5L744.5 416.565L741.056 398.389L737.045 412.583L733.034 401.755L727 424.5L724.5 435L722.5 443L718.994 459.611L714.983 447.924L710.971 460.705L706.96 467.108L702.949 468.431L698.938 448.751L694.927 455.203L690.916 449.844L686.905 445.089L682.893 446.401L678.882 429.362L674.871 427.114L670.86 427.557L666.849 430.436L662 440.075L657 429L653.555 440.075L650 451.5L646.5 470.726L642.782 456.72L638.771 457.826L634.76 451.595L630.749 448.877L626.737 438.177L622.726 440.14L618.715 448.067L614.704 432.311L610.693 427.715L606.682 440.075L602.671 436.403L598.659 454.708L594.648 451.781L590.637 442.956L586.626 440.793L582.615 434.896L578.604 434.412L574.593 437.862L570.582 436.092L566.57 455.786L562.559 475.164L558.548 469.482L554.537 471.195L550.526 466.715L546.515 469.166L542.503 465.559L538.492 480.767L534.481 484.628L530.47 494.506L526.459 492.064L522.448 484.496L518.437 470.726L514.426 479.19L510.414 484.662L506.403 490.685L502.392 499.071L498.381 500.238L494.37 504.717L490.359 489.089L486.348 478.807L482.336 484.993L478.325 483.073L474.314 483.963L470.303 474.831L466.292 459.888L462.281 464.883L458.27 455.425L454.258 454.524L450.247 447.643L446.236 446.246L442.225 449.095L438.214 469.708L434 483.073L430.192 472.461L426.18 476.57L422.169 466.129L418.158 471.167L414.147 467.084L410.5 494.506L405 474.831L401.114 485.435L397.103 492.825L393.092 474.267L389.081 470.69L385.07 462.93L381.059 467.675L377.047 474.094L373.036 461.753L369.025 460.769L365.014 455L361.003 456.597L356.992 456.347L352.98 453.767L348.969 448.516L344.958 452.979L340.947 449.345L336.936 449.061L332.925 445.089L328.914 453.261L324.902 466.774L320.891 472.26L316.88 474.815L312.869 474.796L308.858 467.325L304.847 470.69L300.836 474.643L296.824 475.771L292.813 487.611L288.802 476.882L284.791 467.621L280.78 469.012L276.769 469.736L272.758 466.707L268.746 469.261L264.735 472.988L260.724 482.61L256.713 484.971L252.702 480.475L248.691 474.888L244.68 472.82L240.668 486.348L236.657 485.212L232.646 486.667L228.635 486.62L224.624 497.83L220.613 497.834L216.602 507.45L212.591 517.226L208.579 518.604L204.568 536.408L200.557 529.78L196.546 517.67L192.535 524.96L188.524 544.422L184.512 547.186L180.501 556.98L176.49 574.563L172.479 574.661L168.468 560.796L164.457 567.782L160.446 571.349L156.435 571.198L152.423 562.259L148.412 564.348L144.401 562.641L140.39 554.805L136.379 546.158L132.368 542.059L128.356 552.234L124.345 556.071L120.334 565.229L116.323 570.883L112.312 569.458L108.301 566.333L104.29 543.73L100.279 527.65L96.2673 531.12L92.2561 525.801L88.2451 520.534L84.2339 520.909L80.2229 523.961L76.2117 527.858L72.2007 533.81L68.1895 520.514L64.1782 517.604L60.1672 493.343L56.156 492.599L52.1448 485.677L48.1338 493.585L44.1226 501.871L40.1113 494.913L36.1003 491.557L32.0891 486.325L28.0779 471.526L24.0669 484.683L20.0557 476.059L16.0444 483.636L12.0334 489.617L8.02222 485.282L4.01099 484.24L0 480.955" stroke="url(#paint0_linear)" stroke-width="4"/>
<defs>
<linearGradient id="paint0_linear" x1="720" y1="574.661" x2="720" y2="16.686" gradientUnits="userSpaceOnUse">
<stop stop-color="#AA55FF"/>
<stop offset="1" stop-color="#00E0FF"/>
</linearGradient>
</defs>
</svg>
