<svg width="147" height="33" viewBox="0 0 147 33" fill="none" xmlns="http://www.w3.org/2000/svg">
<path d="M61.3864 7.18155C61.3864 3.45996 59.1591 1.20428 56.1477 1.20428C53.125 1.20428 50.9034 3.45996 50.9034 7.18155C50.9034 10.8975 53.125 13.1588 56.1477 13.1588C59.1591 13.1588 61.3864 10.9031 61.3864 7.18155ZM59.6477 7.18155C59.6477 10.0168 58.1477 11.5566 56.1477 11.5566C54.142 11.5566 52.6477 10.0168 52.6477 7.18155C52.6477 4.34632 54.142 2.80655 56.1477 2.80655C58.1477 2.80655 59.6477 4.34632 59.6477 7.18155Z" fill="url(#paint0_linear)"/>
<path d="M70.9048 4.27246H69.081L66.8764 10.9884H66.7855L64.5753 4.27246H62.7514L65.9219 12.9997H67.7401L70.9048 4.27246Z" fill="url(#paint1_linear)"/>
<path d="M75.9503 13.1759C77.8537 13.1759 79.2003 12.2384 79.5866 10.8179L77.9787 10.5281C77.6719 11.352 76.9332 11.7725 75.9673 11.7725C74.5128 11.7725 73.5355 10.8293 73.4901 9.14746H79.6946V8.54519C79.6946 5.39178 77.8082 4.15882 75.831 4.15882C73.3991 4.15882 71.7969 6.0111 71.7969 8.69292C71.7969 11.4031 73.3764 13.1759 75.9503 13.1759ZM73.4957 7.87473C73.5639 6.6361 74.4616 5.56223 75.8423 5.56223C77.1605 5.56223 78.0241 6.53951 78.0298 7.87473H73.4957Z" fill="url(#paint2_linear)"/>
<path d="M81.5795 12.9997H83.2784V7.67019C83.2784 6.52814 84.1591 5.70428 85.3636 5.70428C85.7159 5.70428 86.1136 5.76678 86.25 5.80655V4.18155C86.0795 4.15882 85.7443 4.14178 85.5284 4.14178C84.5057 4.14178 83.6307 4.72132 83.3125 5.65882H83.2216V4.27246H81.5795V12.9997Z" fill="url(#paint3_linear)"/>
<path d="M95.4517 4.27246H93.6278L91.4233 10.9884H91.3324L89.1222 4.27246H87.2983L90.4688 12.9997H92.2869L95.4517 4.27246Z" fill="url(#paint4_linear)"/>
<path d="M97.0483 12.9997H98.7472V4.27246H97.0483V12.9997ZM97.9062 2.92587C98.4915 2.92587 98.9801 2.47132 98.9801 1.91451C98.9801 1.35769 98.4915 0.897461 97.9062 0.897461C97.3153 0.897461 96.8324 1.35769 96.8324 1.91451C96.8324 2.47132 97.3153 2.92587 97.9062 2.92587Z" fill="url(#paint5_linear)"/>
<path d="M104.794 13.1759C106.697 13.1759 108.044 12.2384 108.43 10.8179L106.822 10.5281C106.516 11.352 105.777 11.7725 104.811 11.7725C103.357 11.7725 102.379 10.8293 102.334 9.14746H108.538V8.54519C108.538 5.39178 106.652 4.15882 104.675 4.15882C102.243 4.15882 100.641 6.0111 100.641 8.69292C100.641 11.4031 102.22 13.1759 104.794 13.1759ZM102.339 7.87473C102.408 6.6361 103.305 5.56223 104.686 5.56223C106.004 5.56223 106.868 6.53951 106.874 7.87473H102.339Z" fill="url(#paint6_linear)"/>
<path d="M112.3 12.9997H114.027L115.8 6.6986H115.93L117.703 12.9997H119.436L121.999 4.27246H120.243L118.544 10.6531H118.459L116.754 4.27246H114.999L113.283 10.6816H113.197L111.487 4.27246H109.732L112.3 12.9997Z" fill="url(#paint7_linear)"/>
<path d="M33.0002 0.999734C33.7251 1.49195 36.0113 3.29676 36.0113 6.46471C36.0113 9.60179 33.7571 11.6702 32.9987 12.2769C32.2403 11.6718 29.9894 9.61073 29.9894 6.46471C29.9892 3.30874 32.276 1.4948 33.0002 0.999734Z" fill="url(#paint8_linear)"/>
<path d="M25.9283 3.90005C27.6894 3.84847 28.918 4.27977 29.4341 4.50497C29.2628 5.09669 29.1544 5.74547 29.1544 6.46471C29.1544 9.2105 30.6603 11.1721 31.726 12.218C29.7431 11.8619 28.2324 11.0663 27.2387 9.83125C25.5173 7.69201 25.7872 4.81261 25.9283 3.90005Z" fill="url(#paint9_linear)"/>
<path d="M27.9363 13.625C25.7752 13.1194 24.4152 11.1976 24 10.5304C24.7707 9.81176 25.5719 9.52341 25.9805 9.41315C26.1493 9.71206 26.3384 10.0049 26.5649 10.289C27.7267 11.7349 29.4839 12.6485 31.7896 13.0183C30.4427 13.7008 29.1509 13.9122 27.9363 13.625Z" fill="url(#paint10_linear)"/>
<path d="M40.0722 3.90005C40.2123 4.81261 40.4821 7.69201 38.7604 9.83146C37.7665 11.0665 36.2558 11.8621 34.2738 12.2166C35.3393 11.1721 36.8462 9.2107 36.8462 6.46491C36.8462 5.74567 36.7379 5.09588 36.5666 4.50477C37.0804 4.27896 38.3053 3.84847 40.0722 3.90005Z" fill="url(#paint11_linear)"/>
<path d="M38.0689 13.625C36.855 13.9105 35.5592 13.7008 34.2091 13.0183C36.5148 12.6485 38.2718 11.7349 39.4337 10.289C39.661 10.0051 39.8493 9.71084 40.0189 9.41315C40.4257 9.51895 41.2238 9.80262 42 10.5304C41.5879 11.1976 40.2343 13.1152 38.0689 13.625Z" fill="url(#paint12_linear)"/>
<path d="M0 30.9997H147V32.9997H0V30.9997Z" fill="url(#paint13_linear)"/>
<defs>
<linearGradient id="paint0_linear" x1="19.0556" y1="57.578" x2="104.38" y2="-49.5389" gradientUnits="userSpaceOnUse">
<stop stop-color="#00E0FF"/>
<stop offset="1" stop-color="#AA55FF"/>
</linearGradient>
<linearGradient id="paint1_linear" x1="19.0556" y1="57.578" x2="104.38" y2="-49.5389" gradientUnits="userSpaceOnUse">
<stop stop-color="#00E0FF"/>
<stop offset="1" stop-color="#AA55FF"/>
</linearGradient>
<linearGradient id="paint2_linear" x1="19.0556" y1="57.578" x2="104.38" y2="-49.5389" gradientUnits="userSpaceOnUse">
<stop stop-color="#00E0FF"/>
<stop offset="1" stop-color="#AA55FF"/>
</linearGradient>
<linearGradient id="paint3_linear" x1="19.0556" y1="57.578" x2="104.38" y2="-49.5389" gradientUnits="userSpaceOnUse">
<stop stop-color="#00E0FF"/>
<stop offset="1" stop-color="#AA55FF"/>
</linearGradient>
<linearGradient id="paint4_linear" x1="19.0556" y1="57.578" x2="104.38" y2="-49.5389" gradientUnits="userSpaceOnUse">
<stop stop-color="#00E0FF"/>
<stop offset="1" stop-color="#AA55FF"/>
</linearGradient>
<linearGradient id="paint5_linear" x1="19.0556" y1="57.578" x2="104.38" y2="-49.5389" gradientUnits="userSpaceOnUse">
<stop stop-color="#00E0FF"/>
<stop offset="1" stop-color="#AA55FF"/>
</linearGradient>
<linearGradient id="paint6_linear" x1="19.0556" y1="57.578" x2="104.38" y2="-49.5389" gradientUnits="userSpaceOnUse">
<stop stop-color="#00E0FF"/>
<stop offset="1" stop-color="#AA55FF"/>
</linearGradient>
<linearGradient id="paint7_linear" x1="19.0556" y1="57.578" x2="104.38" y2="-49.5389" gradientUnits="userSpaceOnUse">
<stop stop-color="#00E0FF"/>
<stop offset="1" stop-color="#AA55FF"/>
</linearGradient>
<linearGradient id="paint8_linear" x1="19.0556" y1="57.578" x2="104.38" y2="-49.5389" gradientUnits="userSpaceOnUse">
<stop stop-color="#00E0FF"/>
<stop offset="1" stop-color="#AA55FF"/>
</linearGradient>
<linearGradient id="paint9_linear" x1="19.0556" y1="57.578" x2="104.38" y2="-49.5389" gradientUnits="userSpaceOnUse">
<stop stop-color="#00E0FF"/>
<stop offset="1" stop-color="#AA55FF"/>
</linearGradient>
<linearGradient id="paint10_linear" x1="19.0556" y1="57.578" x2="104.38" y2="-49.5389" gradientUnits="userSpaceOnUse">
<stop stop-color="#00E0FF"/>
<stop offset="1" stop-color="#AA55FF"/>
</linearGradient>
<linearGradient id="paint11_linear" x1="19.0556" y1="57.578" x2="104.38" y2="-49.5389" gradientUnits="userSpaceOnUse">
<stop stop-color="#00E0FF"/>
<stop offset="1" stop-color="#AA55FF"/>
</linearGradient>
<linearGradient id="paint12_linear" x1="19.0556" y1="57.578" x2="104.38" y2="-49.5389" gradientUnits="userSpaceOnUse">
<stop stop-color="#00E0FF"/>
<stop offset="1" stop-color="#AA55FF"/>
</linearGradient>
<linearGradient id="paint13_linear" x1="19.0556" y1="57.578" x2="104.38" y2="-49.5389" gradientUnits="userSpaceOnUse">
<stop stop-color="#00E0FF"/>
<stop offset="1" stop-color="#AA55FF"/>
</linearGradient>
</defs>
</svg>
