<svg width="1056" height="94" viewBox="0 0 1056 94" fill="none" xmlns="http://www.w3.org/2000/svg">
<line x1="344.5" y1="15" x2="344.5" y2="79" stroke="#292929" stroke-opacity="0.1"/>
<line x1="712.5" y1="15" x2="712.5" y2="79" stroke="#292929" stroke-opacity="0.1"/>
<path d="M368.557 49.3643H371.704V58H373.533V49.3643H376.68V47.8182H368.557V49.3643ZM380.39 58.1491C382.628 58.1491 384.05 56.5732 384.05 54.2116C384.05 51.8452 382.628 50.2642 380.39 50.2642C378.153 50.2642 376.731 51.8452 376.731 54.2116C376.731 56.5732 378.153 58.1491 380.39 58.1491ZM380.4 56.7074C379.162 56.7074 378.556 55.6037 378.556 54.2067C378.556 52.8097 379.162 51.6911 380.4 51.6911C381.618 51.6911 382.225 52.8097 382.225 54.2067C382.225 55.6037 381.618 56.7074 380.4 56.7074ZM389.39 50.3636H387.884V48.5341H386.084V50.3636H385V51.7557H386.084V56.0014C386.074 57.4382 387.118 58.1442 388.471 58.1044C388.983 58.0895 389.336 57.9901 389.529 57.9254L389.226 56.5185C389.127 56.5433 388.923 56.5881 388.699 56.5881C388.247 56.5881 387.884 56.429 387.884 55.7031V51.7557H389.39V50.3636ZM393.093 58.1541C394.291 58.1541 395.007 57.5923 395.335 56.951H395.395V58H397.125V52.8892C397.125 50.8707 395.479 50.2642 394.023 50.2642C392.417 50.2642 391.184 50.9801 390.786 52.3722L392.466 52.6108C392.645 52.0888 393.153 51.6413 394.032 51.6413C394.868 51.6413 395.325 52.0689 395.325 52.8196V52.8494C395.325 53.3665 394.783 53.3913 393.436 53.5355C391.954 53.6946 390.537 54.1371 390.537 55.8572C390.537 57.3587 391.636 58.1541 393.093 58.1541ZM393.56 56.8317C392.809 56.8317 392.273 56.4886 392.273 55.8274C392.273 55.1364 392.874 54.848 393.68 54.7337C394.152 54.669 395.096 54.5497 395.33 54.3608V55.2607C395.33 56.1108 394.644 56.8317 393.56 56.8317ZM400.734 47.8182H398.934V58H400.734V47.8182ZM406.137 58H407.982V54.5597H409.93C412.282 54.5597 413.545 53.1477 413.545 51.1889C413.545 49.245 412.297 47.8182 409.955 47.8182H406.137V58ZM407.982 53.0433V49.3594H409.672C411.054 49.3594 411.665 50.1051 411.665 51.1889C411.665 52.2727 411.054 53.0433 409.682 53.0433H407.982ZM415.067 58H416.867V53.5107C416.867 52.5412 417.598 51.8551 418.587 51.8551C418.89 51.8551 419.268 51.9098 419.422 51.9595V50.304C419.258 50.2741 418.975 50.2543 418.776 50.2543C417.901 50.2543 417.17 50.7514 416.892 51.6364H416.812V50.3636H415.067V58ZM423.635 58.1491C425.872 58.1491 427.294 56.5732 427.294 54.2116C427.294 51.8452 425.872 50.2642 423.635 50.2642C421.397 50.2642 419.975 51.8452 419.975 54.2116C419.975 56.5732 421.397 58.1491 423.635 58.1491ZM423.645 56.7074C422.407 56.7074 421.8 55.6037 421.8 54.2067C421.8 52.8097 422.407 51.6911 423.645 51.6911C424.863 51.6911 425.469 52.8097 425.469 54.2067C425.469 55.6037 424.863 56.7074 423.645 56.7074ZM432.689 50.3636H431.103V49.7621C431.103 49.1655 431.352 48.8324 432.023 48.8324C432.306 48.8324 432.545 48.897 432.694 48.9418L433.057 47.5497C432.823 47.4702 432.311 47.3409 431.69 47.3409C430.362 47.3409 429.303 48.1016 429.303 49.6428V50.3636H428.175V51.7557H429.303V58H431.103V51.7557H432.689V50.3636ZM434.099 58H435.898V50.3636H434.099V58ZM435.003 49.2798C435.575 49.2798 436.042 48.8423 436.042 48.3054C436.042 47.7635 435.575 47.326 435.003 47.326C434.427 47.326 433.959 47.7635 433.959 48.3054C433.959 48.8423 434.427 49.2798 435.003 49.2798ZM441.562 50.3636H440.056V48.5341H438.256V50.3636H437.172V51.7557H438.256V56.0014C438.246 57.4382 439.29 58.1442 440.642 58.1044C441.154 58.0895 441.507 57.9901 441.701 57.9254L441.398 56.5185C441.299 56.5433 441.095 56.5881 440.871 56.5881C440.419 56.5881 440.056 56.429 440.056 55.7031V51.7557H441.562V50.3636ZM446.172 49.3643H449.319V58H451.149V49.3643H454.296V47.8182H446.172V49.3643ZM456.941 58.1541C458.139 58.1541 458.855 57.5923 459.183 56.951H459.242V58H460.972V52.8892C460.972 50.8707 459.327 50.2642 457.87 50.2642C456.264 50.2642 455.031 50.9801 454.634 52.3722L456.314 52.6108C456.493 52.0888 457 51.6413 457.88 51.6413C458.715 51.6413 459.173 52.0689 459.173 52.8196V52.8494C459.173 53.3665 458.631 53.3913 457.284 53.5355C455.802 53.6946 454.385 54.1371 454.385 55.8572C454.385 57.3587 455.484 58.1541 456.941 58.1541ZM457.408 56.8317C456.657 56.8317 456.12 56.4886 456.12 55.8274C456.12 55.1364 456.722 54.848 457.527 54.7337C457.999 54.669 458.944 54.5497 459.178 54.3608V55.2607C459.178 56.1108 458.492 56.8317 457.408 56.8317ZM462.782 58H464.582V55.4347L465.238 54.7337L467.575 58H469.727L466.595 53.6598L469.553 50.3636H467.45L464.706 53.4311H464.582V47.8182H462.782V58ZM473.819 58.1491C475.599 58.1491 476.822 57.2791 477.14 55.9517L475.46 55.7628C475.216 56.4091 474.619 56.7472 473.844 56.7472C472.681 56.7472 471.91 55.9815 471.895 54.674H477.215V54.1222C477.215 51.4425 475.604 50.2642 473.725 50.2642C471.537 50.2642 470.11 51.87 470.11 54.2266C470.11 56.6229 471.517 58.1491 473.819 58.1491ZM471.9 53.4609C471.955 52.4865 472.676 51.6662 473.749 51.6662C474.784 51.6662 475.48 52.4219 475.49 53.4609H471.9ZM480.537 53.5256C480.537 52.4219 481.203 51.7855 482.153 51.7855C483.082 51.7855 483.639 52.397 483.639 53.4162V58H485.439V53.1378C485.444 51.3082 484.4 50.2642 482.824 50.2642C481.68 50.2642 480.895 50.8111 480.547 51.6612H480.457V50.3636H478.737V58H480.537V53.5256ZM488.377 58.1094C488.964 58.1094 489.466 57.6222 489.471 57.0156C489.466 56.419 488.964 55.9318 488.377 55.9318C487.771 55.9318 487.278 56.419 487.283 57.0156C487.278 57.6222 487.771 58.1094 488.377 58.1094ZM488.377 52.6555C488.964 52.6555 489.466 52.1683 489.471 51.5618C489.466 50.9652 488.964 50.478 488.377 50.478C487.771 50.478 487.278 50.9652 487.283 51.5618C487.278 52.1683 487.771 52.6555 488.377 52.6555Z" fill="#292929"/>
<path d="M543.552 57H550.253V55.6825H545.67V55.608L547.693 53.4901C549.557 51.6058 550.089 50.706 550.089 49.5675C550.089 47.9318 548.757 46.679 546.838 46.679C544.934 46.679 543.542 47.9119 543.542 49.7713H545.008C545.003 48.6776 545.709 47.9616 546.808 47.9616C547.842 47.9616 548.628 48.598 548.628 49.6122C548.628 50.5121 548.091 51.1584 546.997 52.3168L543.552 55.8864V57ZM554.091 55.608H552.66L552.61 56.1648C552.496 57.5121 552.177 58.8693 552.043 59.4858H553.097C553.336 58.8345 553.863 57.343 554.017 56.1499L554.091 55.608ZM559.333 57.169C561.684 57.169 563.061 55.25 563.061 51.9141C563.061 48.603 561.664 46.679 559.333 46.679C556.996 46.679 555.604 48.598 555.599 51.9141C555.599 55.245 556.976 57.1641 559.333 57.169ZM559.333 55.8416C557.956 55.8416 557.125 54.4595 557.125 51.9141C557.13 49.3786 557.961 47.9815 559.333 47.9815C560.7 47.9815 561.535 49.3786 561.535 51.9141C561.535 54.4595 560.705 55.8416 559.333 55.8416ZM568.37 57.169C570.721 57.169 572.099 55.25 572.099 51.9141C572.099 48.603 570.702 46.679 568.37 46.679C566.033 46.679 564.641 48.598 564.636 51.9141C564.636 55.245 566.013 57.1641 568.37 57.169ZM568.37 55.8416C566.993 55.8416 566.162 54.4595 566.162 51.9141C566.167 49.3786 566.998 47.9815 568.37 47.9815C569.737 47.9815 570.572 49.3786 570.572 51.9141C570.572 54.4595 569.742 55.8416 568.37 55.8416ZM577.407 57.169C579.759 57.169 581.136 55.25 581.136 51.9141C581.136 48.603 579.739 46.679 577.407 46.679C575.07 46.679 573.678 48.598 573.673 51.9141C573.673 55.245 575.05 57.1641 577.407 57.169ZM577.407 55.8416C576.03 55.8416 575.2 54.4595 575.2 51.9141C575.205 49.3786 576.035 47.9815 577.407 47.9815C578.774 47.9815 579.609 49.3786 579.609 51.9141C579.609 54.4595 578.779 55.8416 577.407 55.8416ZM593.291 46.8182V53.3906C593.291 54.7727 592.337 55.767 590.786 55.767C589.239 55.767 588.28 54.7727 588.28 53.3906V46.8182H586.744V53.5149C586.744 55.6527 588.344 57.169 590.786 57.169C593.227 57.169 594.832 55.6527 594.832 53.5149V46.8182H593.291ZM602.619 49.4929H604.101C604.056 47.8622 602.614 46.679 600.546 46.679C598.503 46.679 596.937 47.8473 596.937 49.6023C596.937 51.0192 597.951 51.8494 599.586 52.2919L600.79 52.62C601.878 52.9084 602.719 53.2663 602.719 54.1712C602.719 55.1655 601.769 55.8217 600.461 55.8217C599.278 55.8217 598.294 55.2947 598.204 54.1861H596.663C596.763 56.0305 598.189 57.169 600.471 57.169C602.863 57.169 604.24 55.9112 604.24 54.1861C604.24 52.3516 602.604 51.6406 601.312 51.3224L600.317 51.0639C599.522 50.8601 598.463 50.4872 598.468 49.5128C598.468 48.6477 599.258 48.0064 600.511 48.0064C601.68 48.0064 602.51 48.5533 602.619 49.4929ZM609.372 57C612.474 57 614.269 55.076 614.269 51.8942C614.269 48.7273 612.474 46.8182 609.476 46.8182H606.076V57H609.372ZM607.612 55.6577V48.1605H609.382C611.609 48.1605 612.757 49.4929 612.757 51.8942C612.757 54.3054 611.609 55.6577 609.287 55.6577H607.612ZM624.636 50.1293C624.288 47.9517 622.583 46.679 620.43 46.679C617.795 46.679 615.851 48.6527 615.851 51.9091C615.851 55.1655 617.785 57.1392 620.43 57.1392C622.667 57.1392 624.303 55.7372 624.636 53.7237L623.085 53.7188C622.821 55.0213 621.727 55.7372 620.44 55.7372C618.695 55.7372 617.377 54.3999 617.377 51.9091C617.377 49.4382 618.69 48.081 620.445 48.081C621.742 48.081 622.831 48.8118 623.085 50.1293H624.636Z" fill="#52BB2E"/>
<path d="M630.492 51.9091C630.492 54.4048 631.159 56.483 632.421 58.2528H633.784C632.804 56.9403 632.034 54.2756 632.034 51.9091C632.034 49.5476 632.804 46.8828 633.784 45.5703H632.421C631.159 47.3402 630.492 49.4183 630.492 51.9091ZM638.398 58.2727H639.333L639.338 57.1541C641.441 57 642.644 55.7969 642.644 54.1861C642.644 52.3516 641.009 51.6406 639.716 51.3224L639.353 51.228L639.363 48.0362C640.293 48.1605 640.929 48.6776 641.023 49.4929H642.505C642.465 47.9766 641.212 46.843 639.368 46.6939L639.373 45.5455H638.438L638.433 46.7038C636.648 46.8828 635.341 47.9964 635.341 49.6023C635.341 51.0192 636.355 51.8494 637.991 52.2919L638.418 52.4062L638.408 55.7919C637.439 55.6726 636.688 55.1456 636.609 54.1861H635.067C635.162 55.9013 636.4 57.005 638.403 57.1541L638.398 58.2727ZM639.343 55.7919L639.353 52.6648C640.362 52.9432 641.123 53.3111 641.123 54.1712C641.123 55.0412 640.397 55.6527 639.343 55.7919ZM638.423 50.9794C637.683 50.7607 636.867 50.3679 636.872 49.5128C636.872 48.767 637.464 48.1854 638.428 48.0412L638.423 50.9794ZM644.341 57H651.042V55.6825H646.459V55.608L648.482 53.4901C650.346 51.6058 650.878 50.706 650.878 49.5675C650.878 47.9318 649.546 46.679 647.627 46.679C645.723 46.679 644.331 47.9119 644.331 49.7713H645.797C645.792 48.6776 646.498 47.9616 647.597 47.9616C648.631 47.9616 649.417 48.598 649.417 49.6122C649.417 50.5121 648.88 51.1584 647.786 52.3168L644.341 55.8864V57ZM654.881 55.608H653.449L653.399 56.1648C653.285 57.5121 652.966 58.8693 652.832 59.4858H653.886C654.125 58.8345 654.652 57.343 654.806 56.1499L654.881 55.608ZM660.122 57.169C662.473 57.169 663.85 55.25 663.85 51.9141C663.85 48.603 662.453 46.679 660.122 46.679C657.785 46.679 656.393 48.598 656.388 51.9141C656.388 55.245 657.765 57.1641 660.122 57.169ZM660.122 55.8416C658.745 55.8416 657.914 54.4595 657.914 51.9141C657.919 49.3786 658.75 47.9815 660.122 47.9815C661.489 47.9815 662.324 49.3786 662.324 51.9141C662.324 54.4595 661.494 55.8416 660.122 55.8416ZM669.159 57.169C671.51 57.169 672.888 55.25 672.888 51.9141C672.888 48.603 671.491 46.679 669.159 46.679C666.822 46.679 665.43 48.598 665.425 51.9141C665.425 55.245 666.802 57.1641 669.159 57.169ZM669.159 55.8416C667.782 55.8416 666.952 54.4595 666.952 51.9141C666.956 49.3786 667.787 47.9815 669.159 47.9815C670.526 47.9815 671.361 49.3786 671.361 51.9141C671.361 54.4595 670.531 55.8416 669.159 55.8416ZM678.196 57.169C680.548 57.169 681.925 55.25 681.925 51.9141C681.925 48.603 680.528 46.679 678.196 46.679C675.859 46.679 674.467 48.598 674.462 51.9141C674.462 55.245 675.839 57.1641 678.196 57.169ZM678.196 55.8416C676.819 55.8416 675.989 54.4595 675.989 51.9141C675.994 49.3786 676.824 47.9815 678.196 47.9815C679.563 47.9815 680.398 49.3786 680.398 51.9141C680.398 54.4595 679.568 55.8416 678.196 55.8416ZM686.567 51.9141C686.567 49.4183 685.901 47.3402 684.638 45.5703H683.276C684.255 46.8828 685.026 49.5476 685.026 51.9141C685.026 54.2756 684.255 56.9403 683.276 58.2528H684.638C685.901 56.483 686.567 54.4048 686.567 51.9141Z" fill="#AAAAAA"/>
<path d="M543.639 88.0114H548.466V90H549.933V88.0114H551.28V86.7088H549.933V79.8182H548.039L543.639 86.7685V88.0114ZM548.476 86.7088H545.249V86.6293L548.396 81.6477H548.476V86.7088ZM554.584 88.608H553.152L553.102 89.1648C552.988 90.5121 552.67 91.8693 552.535 92.4858H553.589C553.828 91.8345 554.355 90.343 554.509 89.1499L554.584 88.608ZM556.663 90H563.365V88.6825H558.781V88.608L560.804 86.4901C562.669 84.6058 563.201 83.706 563.201 82.5675C563.201 80.9318 561.868 79.679 559.949 79.679C558.045 79.679 556.653 80.9119 556.653 82.7713H558.12C558.115 81.6776 558.821 80.9616 559.919 80.9616C560.953 80.9616 561.739 81.598 561.739 82.6122C561.739 83.5121 561.202 84.1584 560.108 85.3168L556.663 88.8864V90ZM568.804 90.1392C570.931 90.1591 572.343 88.6278 572.338 86.674C572.343 84.7251 570.926 83.3281 569.162 83.3281C568.088 83.3281 567.158 83.8452 566.636 84.7053H566.561C566.566 82.3686 567.441 81.0014 568.933 81.0014C569.912 81.0014 570.529 81.593 570.738 82.4631H572.254C572.02 80.8274 570.752 79.6541 568.933 79.6541C566.566 79.6541 565.09 81.6875 565.09 85.2521C565.09 89.0007 566.994 90.1243 568.804 90.1392ZM568.799 88.8466C567.615 88.8466 566.75 87.8523 566.75 86.7088C566.755 85.5703 567.66 84.576 568.833 84.576C569.997 84.576 570.852 85.5156 570.847 86.6939C570.852 87.897 569.962 88.8466 568.799 88.8466ZM577.535 79.6541C575.397 79.6392 574 81.1705 574 83.1193C574 85.0682 575.412 86.4702 577.177 86.4702C578.256 86.4702 579.181 85.9432 579.703 85.0881H579.782C579.777 87.4297 578.897 88.7969 577.406 88.7969C576.431 88.7969 575.805 88.2003 575.606 87.3303H574.09C574.313 88.9759 575.586 90.1392 577.406 90.1392C579.772 90.1392 581.249 88.1058 581.254 84.5412C581.249 80.7976 579.35 79.669 577.535 79.6541ZM577.54 80.9467C578.718 80.9467 579.588 81.946 579.588 83.0845C579.588 84.223 578.673 85.2173 577.51 85.2173C576.342 85.2173 575.492 84.2827 575.492 83.0994C575.492 81.8963 576.372 80.9467 577.54 80.9467ZM593.442 79.8182V86.3906C593.442 87.7727 592.487 88.767 590.936 88.767C589.39 88.767 588.43 87.7727 588.43 86.3906V79.8182H586.894V86.5149C586.894 88.6527 588.495 90.169 590.936 90.169C593.377 90.169 594.983 88.6527 594.983 86.5149V79.8182H593.442ZM602.77 82.4929H604.251C604.206 80.8622 602.765 79.679 600.696 79.679C598.653 79.679 597.087 80.8473 597.087 82.6023C597.087 84.0192 598.101 84.8494 599.737 85.2919L600.94 85.62C602.029 85.9084 602.869 86.2663 602.869 87.1712C602.869 88.1655 601.919 88.8217 600.612 88.8217C599.429 88.8217 598.444 88.2947 598.355 87.1861H596.814C596.913 89.0305 598.34 90.169 600.622 90.169C603.013 90.169 604.39 88.9112 604.39 87.1861C604.39 85.3516 602.755 84.6406 601.462 84.3224L600.468 84.0639C599.672 83.8601 598.613 83.4872 598.618 82.5128C598.618 81.6477 599.409 81.0064 600.662 81.0064C601.83 81.0064 602.66 81.5533 602.77 82.4929ZM609.522 90C612.624 90 614.419 88.076 614.419 84.8942C614.419 81.7273 612.624 79.8182 609.627 79.8182H606.226V90H609.522ZM607.762 88.6577V81.1605H609.532C611.759 81.1605 612.908 82.4929 612.908 84.8942C612.908 87.3054 611.759 88.6577 609.438 88.6577H607.762ZM624.786 83.1293C624.438 80.9517 622.733 79.679 620.58 79.679C617.945 79.679 616.001 81.6527 616.001 84.9091C616.001 88.1655 617.935 90.1392 620.58 90.1392C622.817 90.1392 624.453 88.7372 624.786 86.7237L623.235 86.7188C622.972 88.0213 621.878 88.7372 620.59 88.7372C618.845 88.7372 617.528 87.3999 617.528 84.9091C617.528 82.4382 618.84 81.081 620.595 81.081C621.893 81.081 622.982 81.8118 623.235 83.1293H624.786Z" fill="#52BB2E"/>
<path d="M630.643 84.9091C630.643 87.4048 631.309 89.483 632.572 91.2528H633.934C632.955 89.9403 632.184 87.2756 632.184 84.9091C632.184 82.5476 632.955 79.8828 633.934 78.5703H632.572C631.309 80.3402 630.643 82.4183 630.643 84.9091ZM638.549 91.2727H639.483L639.488 90.1541C641.591 90 642.795 88.7969 642.795 87.1861C642.795 85.3516 641.159 84.6406 639.866 84.3224L639.503 84.228L639.513 81.0362C640.443 81.1605 641.079 81.6776 641.174 82.4929H642.655C642.616 80.9766 641.363 79.843 639.518 79.6939L639.523 78.5455H638.589L638.584 79.7038C636.799 79.8828 635.491 80.9964 635.491 82.6023C635.491 84.0192 636.506 84.8494 638.141 85.2919L638.569 85.4062L638.559 88.7919C637.589 88.6726 636.839 88.1456 636.759 87.1861H635.218C635.312 88.9013 636.55 90.005 638.554 90.1541L638.549 91.2727ZM639.493 88.7919L639.503 85.6648C640.513 85.9432 641.273 86.3111 641.273 87.1712C641.273 88.0412 640.547 88.6527 639.493 88.7919ZM638.574 83.9794C637.833 83.7607 637.018 83.3679 637.023 82.5128C637.023 81.767 637.614 81.1854 638.579 81.0412L638.574 83.9794ZM644.277 88.0114H649.105V90H650.571V88.0114H651.919V86.7088H650.571V79.8182H648.677L644.277 86.7685V88.0114ZM649.115 86.7088H645.888V86.6293L649.035 81.6477H649.115V86.7088ZM655.222 88.608H653.79L653.741 89.1648C653.626 90.5121 653.308 91.8693 653.174 92.4858H654.228C654.467 91.8345 654.994 90.343 655.148 89.1499L655.222 88.608ZM657.302 90H664.003V88.6825H659.42V88.608L661.443 86.4901C663.307 84.6058 663.839 83.706 663.839 82.5675C663.839 80.9318 662.507 79.679 660.588 79.679C658.684 79.679 657.292 80.9119 657.292 82.7713H658.758C658.753 81.6776 659.459 80.9616 660.558 80.9616C661.592 80.9616 662.378 81.598 662.378 82.6122C662.378 83.5121 661.841 84.1584 660.747 85.3168L657.302 88.8864V90ZM669.442 90.1392C671.57 90.1591 672.982 88.6278 672.977 86.674C672.982 84.7251 671.565 83.3281 669.8 83.3281C668.726 83.3281 667.797 83.8452 667.275 84.7053H667.2C667.205 82.3686 668.08 81.0014 669.572 81.0014C670.551 81.0014 671.167 81.593 671.376 82.4631H672.893C672.659 80.8274 671.391 79.6541 669.572 79.6541C667.205 79.6541 665.729 81.6875 665.729 85.2521C665.729 89.0007 667.633 90.1243 669.442 90.1392ZM669.437 88.8466C668.254 88.8466 667.389 87.8523 667.389 86.7088C667.394 85.5703 668.299 84.576 669.472 84.576C670.635 84.576 671.491 85.5156 671.486 86.6939C671.491 87.897 670.601 88.8466 669.437 88.8466ZM678.174 79.6541C676.036 79.6392 674.639 81.1705 674.639 83.1193C674.639 85.0682 676.051 86.4702 677.816 86.4702C678.895 86.4702 679.819 85.9432 680.341 85.0881H680.421C680.416 87.4297 679.536 88.7969 678.044 88.7969C677.07 88.7969 676.444 88.2003 676.245 87.3303H674.728C674.952 88.9759 676.225 90.1392 678.044 90.1392C680.411 90.1392 681.887 88.1058 681.892 84.5412C681.887 80.7976 679.988 79.669 678.174 79.6541ZM678.179 80.9467C679.357 80.9467 680.227 81.946 680.227 83.0845C680.227 84.223 679.312 85.2173 678.149 85.2173C676.98 85.2173 676.13 84.2827 676.13 83.0994C676.13 81.8963 677.01 80.9467 678.179 80.9467ZM686.567 84.9141C686.567 82.4183 685.901 80.3402 684.638 78.5703H683.276C684.255 79.8828 685.026 82.5476 685.026 84.9141C685.026 87.2756 684.255 89.9403 683.276 91.2528H684.638C685.901 89.483 686.567 87.4048 686.567 84.9141Z" fill="#AAAAAA"/>
<path d="M375.423 80.8182V87.3161C375.423 88.5938 374.533 89.5085 373.136 89.5085C371.734 89.5085 370.849 88.5938 370.849 87.3161V80.8182H369.004V87.4702C369.004 89.6577 370.645 91.1541 373.136 91.1541C375.616 91.1541 377.267 89.6577 377.267 87.4702V80.8182H375.423ZM380.992 86.5256C380.992 85.4219 381.658 84.7855 382.608 84.7855C383.537 84.7855 384.094 85.397 384.094 86.4162V91H385.894V86.1378C385.899 84.3082 384.855 83.2642 383.279 83.2642C382.135 83.2642 381.35 83.8111 381.002 84.6612H380.912V83.3636H379.192V91H380.992V86.5256ZM387.724 91H389.523V86.5107C389.523 85.5412 390.254 84.8551 391.243 84.8551C391.547 84.8551 391.925 84.9098 392.079 84.9595V83.304C391.915 83.2741 391.631 83.2543 391.432 83.2543C390.557 83.2543 389.827 83.7514 389.548 84.6364H389.469V83.3636H387.724V91ZM396.341 91.1491C398.12 91.1491 399.343 90.2791 399.662 88.9517L397.981 88.7628C397.738 89.4091 397.141 89.7472 396.365 89.7472C395.202 89.7472 394.431 88.9815 394.417 87.674H399.736V87.1222C399.736 84.4425 398.125 83.2642 396.246 83.2642C394.059 83.2642 392.632 84.87 392.632 87.2266C392.632 89.6229 394.039 91.1491 396.341 91.1491ZM394.422 86.4609C394.476 85.4865 395.197 84.6662 396.271 84.6662C397.305 84.6662 398.001 85.4219 398.011 86.4609H394.422ZM403.456 91.1541C404.654 91.1541 405.37 90.5923 405.698 89.951H405.758V91H407.488V85.8892C407.488 83.8707 405.843 83.2642 404.386 83.2642C402.78 83.2642 401.547 83.9801 401.149 85.3722L402.83 85.6108C403.009 85.0888 403.516 84.6413 404.396 84.6413C405.231 84.6413 405.688 85.0689 405.688 85.8196V85.8494C405.688 86.3665 405.146 86.3913 403.799 86.5355C402.318 86.6946 400.901 87.1371 400.901 88.8572C400.901 90.3587 401.999 91.1541 403.456 91.1541ZM403.923 89.8317C403.173 89.8317 402.636 89.4886 402.636 88.8274C402.636 88.1364 403.237 87.848 404.043 87.7337C404.515 87.669 405.46 87.5497 405.693 87.3608V88.2607C405.693 89.1108 405.007 89.8317 403.923 89.8317ZM411.097 80.8182H409.298V91H411.097V80.8182ZM412.948 91H414.748V83.3636H412.948V91ZM413.853 82.2798C414.425 82.2798 414.892 81.8423 414.892 81.3054C414.892 80.7635 414.425 80.326 413.853 80.326C413.276 80.326 412.809 80.7635 412.809 81.3054C412.809 81.8423 413.276 82.2798 413.853 82.2798ZM416.499 91H422.768V89.5085H418.89V89.4439L422.639 84.5916V83.3636H416.628V84.8551H420.437V84.9197L416.499 89.8565V91ZM427.622 91.1491C429.402 91.1491 430.625 90.2791 430.943 88.9517L429.262 88.7628C429.019 89.4091 428.422 89.7472 427.647 89.7472C426.483 89.7472 425.713 88.9815 425.698 87.674H431.017V87.1222C431.017 84.4425 429.407 83.2642 427.527 83.2642C425.34 83.2642 423.913 84.87 423.913 87.2266C423.913 89.6229 425.32 91.1491 427.622 91.1491ZM425.703 86.4609C425.757 85.4865 426.478 84.6662 427.552 84.6662C428.586 84.6662 429.282 85.4219 429.292 86.4609H425.703ZM435.374 91.1342C436.686 91.1342 437.278 90.3537 437.561 89.7969H437.671V91H439.441V80.8182H437.636V84.6264H437.561C437.288 84.0746 436.726 83.2642 435.379 83.2642C433.614 83.2642 432.227 84.6463 432.227 87.1918C432.227 89.7074 433.574 91.1342 435.374 91.1342ZM435.876 89.6577C434.688 89.6577 434.061 88.6136 434.061 87.1818C434.061 85.7599 434.678 84.7408 435.876 84.7408C437.034 84.7408 437.671 85.7003 437.671 87.1818C437.671 88.6634 437.024 89.6577 435.876 89.6577ZM444.911 91H446.755V87.5597H448.704C451.055 87.5597 452.318 86.1477 452.318 84.1889C452.318 82.245 451.07 80.8182 448.729 80.8182H444.911V91ZM446.755 86.0433V82.3594H448.445C449.827 82.3594 450.439 83.1051 450.439 84.1889C450.439 85.2727 449.827 86.0433 448.455 86.0433H446.755ZM453.841 91H455.64V86.5107C455.64 85.5412 456.371 84.8551 457.361 84.8551C457.664 84.8551 458.042 84.9098 458.196 84.9595V83.304C458.032 83.2741 457.748 83.2543 457.55 83.2543C456.675 83.2543 455.944 83.7514 455.665 84.6364H455.586V83.3636H453.841V91ZM462.408 91.1491C464.645 91.1491 466.067 89.5732 466.067 87.2116C466.067 84.8452 464.645 83.2642 462.408 83.2642C460.171 83.2642 458.749 84.8452 458.749 87.2116C458.749 89.5732 460.171 91.1491 462.408 91.1491ZM462.418 89.7074C461.18 89.7074 460.574 88.6037 460.574 87.2067C460.574 85.8097 461.18 84.6911 462.418 84.6911C463.636 84.6911 464.243 85.8097 464.243 87.2067C464.243 88.6037 463.636 89.7074 462.418 89.7074ZM471.463 83.3636H469.877V82.7621C469.877 82.1655 470.125 81.8324 470.796 81.8324C471.08 81.8324 471.318 81.897 471.468 81.9418L471.83 80.5497C471.597 80.4702 471.085 80.3409 470.463 80.3409C469.136 80.3409 468.077 81.1016 468.077 82.6428V83.3636H466.948V84.7557H468.077V91H469.877V84.7557H471.463V83.3636ZM472.872 91H474.672V83.3636H472.872V91ZM473.777 82.2798C474.349 82.2798 474.816 81.8423 474.816 81.3054C474.816 80.7635 474.349 80.326 473.777 80.326C473.2 80.326 472.733 80.7635 472.733 81.3054C472.733 81.8423 473.2 82.2798 473.777 82.2798ZM480.336 83.3636H478.829V81.5341H477.029V83.3636H475.946V84.7557H477.029V89.0014C477.02 90.4382 478.064 91.1442 479.416 91.1044C479.928 91.0895 480.281 90.9901 480.475 90.9254L480.172 89.5185C480.072 89.5433 479.868 89.5881 479.645 89.5881C479.192 89.5881 478.829 89.429 478.829 88.7031V84.7557H480.336V83.3636ZM482.949 91.1094C483.536 91.1094 484.038 90.6222 484.043 90.0156C484.038 89.419 483.536 88.9318 482.949 88.9318C482.343 88.9318 481.851 89.419 481.856 90.0156C481.851 90.6222 482.343 91.1094 482.949 91.1094ZM482.949 85.6555C483.536 85.6555 484.038 85.1683 484.043 84.5618C484.038 83.9652 483.536 83.478 482.949 83.478C482.343 83.478 481.851 83.9652 481.856 84.5618C481.851 85.1683 482.343 85.6555 482.949 85.6555Z" fill="#292929"/>
<path d="M369.499 15H371.607V11.0682H373.835C376.522 11.0682 377.965 9.45455 377.965 7.21591C377.965 4.99432 376.539 3.36364 373.863 3.36364H369.499V15ZM371.607 9.33523V5.125H373.539C375.119 5.125 375.817 5.97727 375.817 7.21591C375.817 8.45455 375.119 9.33523 373.55 9.33523H371.607ZM379.705 15H381.762V9.86932C381.762 8.76136 382.597 7.97727 383.728 7.97727C384.075 7.97727 384.506 8.03977 384.683 8.09659V6.20455C384.495 6.17045 384.171 6.14773 383.944 6.14773C382.944 6.14773 382.109 6.71591 381.79 7.72727H381.7V6.27273H379.705V15ZM389.496 15.1705C392.053 15.1705 393.678 13.3693 393.678 10.6705C393.678 7.96591 392.053 6.15909 389.496 6.15909C386.94 6.15909 385.315 7.96591 385.315 10.6705C385.315 13.3693 386.94 15.1705 389.496 15.1705ZM389.508 13.5227C388.093 13.5227 387.4 12.2614 387.4 10.6648C387.4 9.06818 388.093 7.78977 389.508 7.78977C390.9 7.78977 391.593 9.06818 391.593 10.6648C391.593 12.2614 390.9 13.5227 389.508 13.5227ZM399.844 6.27273H398.032V5.58523C398.032 4.90341 398.316 4.52273 399.083 4.52273C399.407 4.52273 399.68 4.59659 399.85 4.64773L400.265 3.05682C399.998 2.96591 399.413 2.81818 398.702 2.81818C397.185 2.81818 395.975 3.6875 395.975 5.44886V6.27273H394.685V7.86364H395.975V15H398.032V7.86364H399.844V6.27273ZM401.455 15H403.512V6.27273H401.455V15ZM402.489 5.03409C403.143 5.03409 403.677 4.53409 403.677 3.92045C403.677 3.30114 403.143 2.80114 402.489 2.80114C401.83 2.80114 401.296 3.30114 401.296 3.92045C401.296 4.53409 401.83 5.03409 402.489 5.03409ZM409.985 6.27273H408.263V4.18182H406.207V6.27273H404.968V7.86364H406.207V12.7159C406.195 14.358 407.388 15.1648 408.934 15.1193C409.519 15.1023 409.923 14.9886 410.144 14.9148L409.798 13.3068C409.684 13.3352 409.451 13.3864 409.195 13.3864C408.678 13.3864 408.263 13.2045 408.263 12.375V7.86364H409.985V6.27273Z" fill="#292929"/>
<path d="M0.556818 48.3643H3.70384V57H5.53338V48.3643H8.6804V46.8182H0.556818V48.3643ZM12.3904 57.1491C14.6277 57.1491 16.0495 55.5732 16.0495 53.2116C16.0495 50.8452 14.6277 49.2642 12.3904 49.2642C10.1532 49.2642 8.73136 50.8452 8.73136 53.2116C8.73136 55.5732 10.1532 57.1491 12.3904 57.1491ZM12.4004 55.7074C11.1625 55.7074 10.5559 54.6037 10.5559 53.2067C10.5559 51.8097 11.1625 50.6911 12.4004 50.6911C13.6184 50.6911 14.225 51.8097 14.225 53.2067C14.225 54.6037 13.6184 55.7074 12.4004 55.7074ZM23.8835 57.1342C25.196 57.1342 25.7876 56.3537 26.071 55.7969H26.1804V57H27.9503V46.8182H26.1456V50.6264H26.071C25.7976 50.0746 25.2358 49.2642 23.8885 49.2642C22.1236 49.2642 20.7365 50.6463 20.7365 53.1918C20.7365 55.7074 22.0838 57.1342 23.8835 57.1342ZM24.3857 55.6577C23.1974 55.6577 22.571 54.6136 22.571 53.1818C22.571 51.7599 23.1875 50.7408 24.3857 50.7408C25.544 50.7408 26.1804 51.7003 26.1804 53.1818C26.1804 54.6634 25.5341 55.6577 24.3857 55.6577ZM32.0655 57.1541C33.2637 57.1541 33.9796 56.5923 34.3077 55.951H34.3674V57H36.0975V51.8892C36.0975 49.8707 34.4519 49.2642 32.9952 49.2642C31.3894 49.2642 30.1564 49.9801 29.7587 51.3722L31.4391 51.6108C31.6181 51.0888 32.1252 50.6413 33.0051 50.6413C33.8404 50.6413 34.2978 51.0689 34.2978 51.8196V51.8494C34.2978 52.3665 33.7559 52.3913 32.4086 52.5355C30.927 52.6946 29.5101 53.1371 29.5101 54.8572C29.5101 56.3587 30.6088 57.1541 32.0655 57.1541ZM32.5328 55.8317C31.7821 55.8317 31.2452 55.4886 31.2452 54.8274C31.2452 54.1364 31.8468 53.848 32.6522 53.7337C33.1245 53.669 34.0691 53.5497 34.3027 53.3608V54.2607C34.3027 55.1108 33.6167 55.8317 32.5328 55.8317ZM41.7203 49.3636H40.214V47.5341H38.4142V49.3636H37.3304V50.7557H38.4142V55.0014C38.4043 56.4382 39.4483 57.1442 40.8006 57.1044C41.3127 57.0895 41.6657 56.9901 41.8596 56.9254L41.5563 55.5185C41.4569 55.5433 41.253 55.5881 41.0293 55.5881C40.5769 55.5881 40.214 55.429 40.214 54.7031V50.7557H41.7203V49.3636ZM46.5241 57.1491C48.304 57.1491 49.527 56.2791 49.8452 54.9517L48.1648 54.7628C47.9212 55.4091 47.3246 55.7472 46.549 55.7472C45.3857 55.7472 44.6151 54.9815 44.6001 53.674H49.9197V53.1222C49.9197 50.4425 48.3089 49.2642 46.4297 49.2642C44.2422 49.2642 42.8153 50.87 42.8153 53.2266C42.8153 55.6229 44.2223 57.1491 46.5241 57.1491ZM44.6051 52.4609C44.6598 51.4865 45.3807 50.6662 46.4545 50.6662C47.4886 50.6662 48.1847 51.4219 48.1946 52.4609H44.6051ZM52.551 57.1094C53.1376 57.1094 53.6397 56.6222 53.6447 56.0156C53.6397 55.419 53.1376 54.9318 52.551 54.9318C51.9444 54.9318 51.4522 55.419 51.4572 56.0156C51.4522 56.6222 51.9444 57.1094 52.551 57.1094ZM52.551 51.6555C53.1376 51.6555 53.6397 51.1683 53.6447 50.5618C53.6397 49.9652 53.1376 49.478 52.551 49.478C51.9444 49.478 51.4522 49.9652 51.4572 50.5618C51.4522 51.1683 51.9444 51.6555 52.551 51.6555Z" fill="#292929"/>
<path d="M261.928 55.3693V52.7095H259.268V51.1484H261.928V48.4886H263.489V51.1484H266.148V52.7095H263.489V55.3693H261.928ZM268.141 55.1108V53.6442L272.461 46.8182H274.758V53.5945H276.061V55.1108H274.758V57H272.998V55.1108H268.141ZM273.018 53.5945V48.9062H272.938L270.03 53.5149V53.5945H273.018ZM277.649 57V55.6676L281.184 52.2024C281.688 51.692 282.067 51.2578 282.322 50.8999C282.577 50.5419 282.705 50.1508 282.705 49.7266C282.705 49.246 282.544 48.8681 282.223 48.593C281.901 48.3146 281.499 48.1754 281.015 48.1754C280.508 48.1754 280.102 48.3279 279.797 48.6328C279.495 48.9344 279.344 49.3454 279.344 49.8658H277.589C277.589 49.2195 277.737 48.6577 278.032 48.1804C278.327 47.7031 278.733 47.3336 279.25 47.0717C279.77 46.8099 280.367 46.679 281.04 46.679C281.722 46.679 282.321 46.8066 282.834 47.0618C283.351 47.317 283.754 47.6667 284.042 48.1108C284.331 48.5549 284.475 49.062 284.475 49.6321C284.475 50.0133 284.402 50.3878 284.256 50.7557C284.11 51.1236 283.854 51.5329 283.486 51.9837C283.121 52.4311 282.609 52.9714 281.949 53.6044L280.194 55.3892V55.4588H284.629V57H277.649ZM287.473 57.1094C287.171 57.1094 286.913 57.0033 286.697 56.7912C286.482 56.5758 286.376 56.3172 286.379 56.0156C286.376 55.7173 286.482 55.4621 286.697 55.25C286.913 55.0379 287.171 54.9318 287.473 54.9318C287.768 54.9318 288.023 55.0379 288.238 55.25C288.454 55.4621 288.563 55.7173 288.567 56.0156C288.563 56.3172 288.454 56.5758 288.238 56.7912C288.023 57.0033 287.768 57.1094 287.473 57.1094ZM293.737 57.1392C293.25 57.1359 292.774 57.0514 292.31 56.8857C291.846 56.7166 291.429 56.4432 291.057 56.0653C290.689 55.6875 290.396 55.1821 290.177 54.549C289.959 53.916 289.849 53.1321 289.849 52.1974C289.849 51.0275 290.012 50.0298 290.336 49.2045C290.665 48.3759 291.127 47.7429 291.724 47.3054C292.32 46.8679 293.026 46.6491 293.841 46.6491C294.484 46.6491 295.053 46.7768 295.547 47.032C296.041 47.2839 296.44 47.6302 296.745 48.071C297.05 48.5085 297.239 49.0057 297.312 49.5625H295.497C295.404 49.1581 295.214 48.8383 294.925 48.603C294.64 48.3643 294.279 48.245 293.841 48.245C293.135 48.245 292.592 48.5533 292.211 49.1697C291.833 49.7829 291.642 50.633 291.639 51.7202H291.709C291.954 51.2827 292.302 50.9396 292.753 50.6911C293.207 50.4392 293.707 50.3132 294.254 50.3132C294.851 50.3132 295.386 50.4557 295.86 50.7408C296.337 51.0258 296.715 51.4186 296.993 51.919C297.272 52.4162 297.409 52.9863 297.406 53.6293C297.409 54.2988 297.257 54.9003 296.949 55.4339C296.644 55.9643 296.215 56.3819 295.661 56.6868C295.111 56.9917 294.47 57.1425 293.737 57.1392ZM293.727 55.6477C294.088 55.6477 294.412 55.5599 294.697 55.3842C294.982 55.2086 295.207 54.9716 295.373 54.6733C295.538 54.375 295.62 54.0402 295.616 53.669C295.62 53.3045 295.54 52.9747 295.378 52.6797C295.215 52.3847 294.993 52.151 294.711 51.9787C294.433 51.8063 294.113 51.7202 293.752 51.7202C293.394 51.7202 293.071 51.8097 292.782 51.9886C292.494 52.1676 292.265 52.4062 292.096 52.7045C291.927 52.9995 291.841 53.326 291.838 53.6839C291.841 54.0386 291.924 54.3651 292.086 54.6634C292.249 54.9616 292.473 55.2003 292.758 55.3793C293.043 55.5582 293.366 55.6477 293.727 55.6477ZM302.621 46.6491C303.108 46.6525 303.582 46.7386 304.043 46.9077C304.507 47.0767 304.925 47.3501 305.296 47.728C305.667 48.1058 305.962 48.6113 306.181 49.2443C306.4 49.8774 306.509 50.6612 306.509 51.5959C306.509 52.7625 306.345 53.7602 306.017 54.5888C305.692 55.4141 305.231 56.0455 304.635 56.483C304.038 56.9205 303.332 57.1392 302.517 57.1392C301.874 57.1392 301.304 57.0133 300.807 56.7614C300.313 56.5095 299.913 56.1648 299.608 55.7273C299.304 55.2865 299.116 54.786 299.047 54.2259H300.861C300.954 54.6302 301.143 54.9517 301.428 55.1903C301.713 55.4257 302.076 55.5433 302.517 55.5433C303.22 55.5433 303.761 55.2367 304.143 54.6236C304.524 54.0071 304.716 53.1553 304.719 52.0682H304.65C304.404 52.5057 304.056 52.8504 303.606 53.1023C303.155 53.3509 302.654 53.4751 302.104 53.4751C301.511 53.4751 300.976 53.3326 300.498 53.0476C300.021 52.7625 299.643 52.3714 299.365 51.8743C299.086 51.3738 298.947 50.8021 298.947 50.1591C298.947 49.4896 299.1 48.8897 299.405 48.3594C299.713 47.8291 300.142 47.4115 300.692 47.1065C301.242 46.7983 301.885 46.6458 302.621 46.6491ZM302.626 48.1406C302.268 48.1406 301.947 48.2285 301.662 48.4041C301.377 48.5798 301.151 48.8168 300.986 49.1151C300.82 49.4134 300.737 49.7481 300.737 50.1193C300.737 50.4839 300.817 50.8153 300.976 51.1136C301.138 51.4086 301.36 51.6423 301.642 51.8146C301.924 51.987 302.245 52.0732 302.606 52.0732C302.964 52.0732 303.287 51.9837 303.576 51.8047C303.864 51.6224 304.093 51.3821 304.262 51.0838C304.431 50.7855 304.515 50.4607 304.515 50.1094C304.515 49.7547 304.433 49.4283 304.267 49.13C304.104 48.8317 303.881 48.593 303.596 48.4141C303.314 48.2318 302.991 48.1406 302.626 48.1406ZM313.608 55.0909V54.554C313.612 54.1596 313.696 53.7966 313.862 53.4652C314.031 53.1304 314.275 52.8636 314.593 52.6648C314.914 52.4626 315.304 52.3615 315.761 52.3615C316.232 52.3615 316.626 52.4609 316.944 52.6598C317.266 52.8587 317.508 53.1255 317.67 53.4602C317.836 53.7917 317.917 54.1562 317.914 54.554V55.0909C317.917 55.4853 317.836 55.8499 317.67 56.1847C317.505 56.5161 317.261 56.7829 316.939 56.9851C316.618 57.1839 316.225 57.2834 315.761 57.2834C315.297 57.2834 314.904 57.1839 314.583 56.9851C314.265 56.7829 314.023 56.5161 313.857 56.1847C313.695 55.8499 313.612 55.4853 313.608 55.0909ZM308.433 49.2642V48.7273C308.436 48.3295 308.521 47.965 308.687 47.6335C308.856 47.2988 309.101 47.032 309.422 46.8331C309.744 46.6342 310.133 46.5348 310.591 46.5348C311.061 46.5348 311.456 46.6342 311.774 46.8331C312.092 47.032 312.332 47.2988 312.495 47.6335C312.661 47.965 312.742 48.3295 312.738 48.7273V49.2642C312.742 49.6619 312.661 50.0265 312.495 50.358C312.329 50.6861 312.086 50.9496 311.764 51.1484C311.446 51.3473 311.055 51.4467 310.591 51.4467C310.123 51.4467 309.729 51.3473 309.407 51.1484C309.089 50.9496 308.847 50.6844 308.682 50.353C308.519 50.0215 308.436 49.6586 308.433 49.2642ZM308.881 57L315.881 46.8182H317.128L310.128 57H308.881ZM314.906 54.554V55.0909C314.909 55.3527 314.972 55.593 315.095 55.8118C315.221 56.0305 315.443 56.1399 315.761 56.1399C316.079 56.1399 316.3 56.0305 316.422 55.8118C316.548 55.593 316.61 55.3527 316.606 55.0909V54.554C316.61 54.2888 316.552 54.0469 316.432 53.8281C316.313 53.6061 316.089 53.495 315.761 53.495C315.45 53.495 315.229 53.6061 315.1 53.8281C314.974 54.0469 314.909 54.2888 314.906 54.554ZM309.741 48.7273V49.2642C309.744 49.526 309.807 49.7663 309.93 49.9851C310.052 50.2038 310.273 50.3132 310.591 50.3132C310.909 50.3132 311.129 50.2038 311.252 49.9851C311.375 49.7663 311.434 49.526 311.431 49.2642V48.7273C311.434 48.4621 311.376 48.2202 311.257 48.0014C311.141 47.7794 310.919 47.6683 310.591 47.6683C310.276 47.6683 310.055 47.7794 309.93 48.0014C309.807 48.2235 309.744 48.4654 309.741 48.7273Z" fill="#52BB2E"/>
<path d="M1.2777 90H3.19176L7.51705 81.3942V79.8182H0.581676V81.3594H5.60795V81.429L1.2777 90ZM15.448 90.1342C16.7605 90.1342 17.3521 89.3537 17.6355 88.7969H17.7449V90H19.5147V79.8182H17.71V83.6264H17.6355C17.362 83.0746 16.8002 82.2642 15.4529 82.2642C13.688 82.2642 12.301 83.6463 12.301 86.1918C12.301 88.7074 13.6483 90.1342 15.448 90.1342ZM15.9501 88.6577C14.7619 88.6577 14.1355 87.6136 14.1355 86.1818C14.1355 84.7599 14.752 83.7408 15.9501 83.7408C17.1085 83.7408 17.7449 84.7003 17.7449 86.1818C17.7449 87.6634 17.0985 88.6577 15.9501 88.6577ZM23.63 90.1541C24.8281 90.1541 25.544 89.5923 25.8722 88.951H25.9318V90H27.6619V84.8892C27.6619 82.8707 26.0163 82.2642 24.5597 82.2642C22.9538 82.2642 21.7209 82.9801 21.3232 84.3722L23.0036 84.6108C23.1825 84.0888 23.6896 83.6413 24.5696 83.6413C25.4048 83.6413 25.8622 84.0689 25.8622 84.8196V84.8494C25.8622 85.3665 25.3203 85.3913 23.973 85.5355C22.4915 85.6946 21.0746 86.1371 21.0746 87.8572C21.0746 89.3587 22.1733 90.1541 23.63 90.1541ZM24.0973 88.8317C23.3466 88.8317 22.8097 88.4886 22.8097 87.8274C22.8097 87.1364 23.4112 86.848 24.2166 86.7337C24.6889 86.669 25.6335 86.5497 25.8672 86.3608V87.2607C25.8672 88.1108 25.1811 88.8317 24.0973 88.8317ZM30.3168 92.8487C31.7188 92.8487 32.5291 92.1229 32.9616 90.9247L36.0291 82.3736L34.1051 82.3636L32.3402 88.1307H32.2607L30.5007 82.3636H28.5916L31.3608 90.1591L31.2067 90.5717C30.8636 91.4169 30.3466 91.4815 29.5611 91.2578L29.1435 92.6548C29.3871 92.7592 29.8246 92.8487 30.3168 92.8487ZM43.3137 84.3821C43.0652 83.0895 42.0311 82.2642 40.2413 82.2642C38.4018 82.2642 37.149 83.169 37.1539 84.581C37.149 85.6946 37.835 86.4304 39.3017 86.7337L40.6042 87.0071C41.3052 87.1612 41.6333 87.4446 41.6333 87.8771C41.6333 88.3991 41.0666 88.7919 40.2115 88.7919C39.3862 88.7919 38.8493 88.4339 38.6951 87.7479L36.9402 87.9169C37.1639 89.3189 38.3422 90.1491 40.2164 90.1491C42.1255 90.1491 43.4728 89.1598 43.4778 87.7131C43.4728 86.6243 42.7718 85.9581 41.3301 85.6449L40.0275 85.3665C39.252 85.1925 38.9437 84.924 38.9487 84.4815C38.9437 83.9645 39.5154 83.6065 40.2662 83.6065C41.0964 83.6065 41.5339 84.0589 41.6731 84.5611L43.3137 84.3821ZM46.0705 90.1094C46.6571 90.1094 47.1593 89.6222 47.1642 89.0156C47.1593 88.419 46.6571 87.9318 46.0705 87.9318C45.464 87.9318 44.9718 88.419 44.9767 89.0156C44.9718 89.6222 45.464 90.1094 46.0705 90.1094ZM46.0705 84.6555C46.6571 84.6555 47.1593 84.1683 47.1642 83.5618C47.1593 82.9652 46.6571 82.478 46.0705 82.478C45.464 82.478 44.9718 82.9652 44.9767 83.5618C44.9718 84.1683 45.464 84.6555 46.0705 84.6555Z" fill="#292929"/>
<path d="M270.928 88.3693V85.7095H268.268V84.1484H270.928V81.4886H272.489V84.1484H275.148V85.7095H272.489V88.3693H270.928ZM280.865 90.1392C280.202 90.1392 279.608 90.0149 279.085 89.7663C278.561 89.5144 278.145 89.1697 277.837 88.7322C277.529 88.2947 277.366 87.7943 277.35 87.2308H279.139C279.173 87.6484 279.353 87.9898 279.681 88.255C280.009 88.5168 280.404 88.6477 280.865 88.6477C281.408 88.6477 281.856 88.4654 282.207 88.1009C282.561 87.7363 282.737 87.2689 282.734 86.6989C282.737 86.1222 282.558 85.6482 282.197 85.277C281.836 84.9058 281.375 84.7185 280.815 84.7152C280.51 84.7119 280.21 84.7682 279.915 84.8842C279.62 85.0002 279.386 85.1527 279.214 85.3416L277.548 85.0682L278.08 79.8182H283.987V81.3594H279.607L279.313 84.0589H279.373C279.562 83.8336 279.829 83.648 280.173 83.5021C280.518 83.3563 280.896 83.2834 281.307 83.2834C281.923 83.2834 282.474 83.4292 282.958 83.7209C283.441 84.0092 283.823 84.407 284.101 84.9141C284.379 85.4212 284.519 86.0012 284.519 86.6541C284.519 87.3269 284.363 87.9268 284.051 88.4538C283.743 88.9775 283.314 89.3902 282.764 89.6918C282.217 89.9901 281.584 90.1392 280.865 90.1392ZM286.971 90.1094C286.669 90.1094 286.411 90.0033 286.195 89.7912C285.98 89.5758 285.874 89.3172 285.877 89.0156C285.874 88.7173 285.98 88.4621 286.195 88.25C286.411 88.0379 286.669 87.9318 286.971 87.9318C287.266 87.9318 287.521 88.0379 287.737 88.25C287.952 88.4621 288.061 88.7173 288.065 89.0156C288.061 89.3172 287.952 89.5758 287.737 89.7912C287.521 90.0033 287.266 90.1094 286.971 90.1094ZM293.235 90.1392C292.748 90.1359 292.272 90.0514 291.808 89.8857C291.344 89.7166 290.927 89.4432 290.555 89.0653C290.188 88.6875 289.894 88.1821 289.675 87.549C289.457 86.916 289.347 86.1321 289.347 85.1974C289.347 84.0275 289.51 83.0298 289.835 82.2045C290.163 81.3759 290.625 80.7429 291.222 80.3054C291.818 79.8679 292.524 79.6491 293.339 79.6491C293.982 79.6491 294.551 79.7768 295.045 80.032C295.539 80.2839 295.938 80.6302 296.243 81.071C296.548 81.5085 296.737 82.0057 296.81 82.5625H294.995C294.902 82.1581 294.712 81.8383 294.423 81.603C294.138 81.3643 293.777 81.245 293.339 81.245C292.634 81.245 292.09 81.5533 291.709 82.1697C291.331 82.7829 291.14 83.633 291.137 84.7202H291.207C291.452 84.2827 291.8 83.9396 292.251 83.6911C292.705 83.4392 293.205 83.3132 293.752 83.3132C294.349 83.3132 294.884 83.4557 295.358 83.7408C295.835 84.0258 296.213 84.4186 296.491 84.919C296.77 85.4162 296.907 85.9863 296.904 86.6293C296.907 87.2988 296.755 87.9003 296.447 88.4339C296.142 88.9643 295.713 89.3819 295.159 89.6868C294.609 89.9917 293.968 90.1425 293.235 90.1392ZM293.225 88.6477C293.586 88.6477 293.91 88.5599 294.195 88.3842C294.48 88.2086 294.705 87.9716 294.871 87.6733C295.036 87.375 295.118 87.0402 295.114 86.669C295.118 86.3045 295.038 85.9747 294.876 85.6797C294.713 85.3847 294.491 85.151 294.21 84.9787C293.931 84.8063 293.611 84.7202 293.25 84.7202C292.892 84.7202 292.569 84.8097 292.281 84.9886C291.992 85.1676 291.763 85.4062 291.594 85.7045C291.425 85.9995 291.339 86.326 291.336 86.6839C291.339 87.0386 291.422 87.3651 291.585 87.6634C291.747 87.9616 291.971 88.2003 292.256 88.3793C292.541 88.5582 292.864 88.6477 293.225 88.6477ZM302.119 79.6491C302.607 79.6525 303.08 79.7386 303.541 79.9077C304.005 80.0767 304.423 80.3501 304.794 80.728C305.165 81.1058 305.46 81.6113 305.679 82.2443C305.898 82.8774 306.007 83.6612 306.007 84.5959C306.007 85.7625 305.843 86.7602 305.515 87.5888C305.19 88.4141 304.729 89.0455 304.133 89.483C303.536 89.9205 302.83 90.1392 302.015 90.1392C301.372 90.1392 300.802 90.0133 300.305 89.7614C299.811 89.5095 299.411 89.1648 299.107 88.7273C298.802 88.2865 298.614 87.786 298.545 87.2259H300.359C300.452 87.6302 300.641 87.9517 300.926 88.1903C301.211 88.4257 301.574 88.5433 302.015 88.5433C302.718 88.5433 303.259 88.2367 303.641 87.6236C304.022 87.0071 304.214 86.1553 304.217 85.0682H304.148C303.902 85.5057 303.554 85.8504 303.104 86.1023C302.653 86.3509 302.152 86.4751 301.602 86.4751C301.009 86.4751 300.474 86.3326 299.996 86.0476C299.519 85.7625 299.141 85.3714 298.863 84.8743C298.585 84.3738 298.445 83.8021 298.445 83.1591C298.445 82.4896 298.598 81.8897 298.903 81.3594C299.211 80.8291 299.64 80.4115 300.19 80.1065C300.741 79.7983 301.384 79.6458 302.119 79.6491ZM302.124 81.1406C301.766 81.1406 301.445 81.2285 301.16 81.4041C300.875 81.5798 300.649 81.8168 300.484 82.1151C300.318 82.4134 300.235 82.7481 300.235 83.1193C300.235 83.4839 300.315 83.8153 300.474 84.1136C300.636 84.4086 300.858 84.6423 301.14 84.8146C301.422 84.987 301.743 85.0732 302.104 85.0732C302.462 85.0732 302.786 84.9837 303.074 84.8047C303.362 84.6224 303.591 84.3821 303.76 84.0838C303.929 83.7855 304.013 83.4607 304.013 83.1094C304.013 82.7547 303.931 82.4283 303.765 82.13C303.603 81.8317 303.379 81.593 303.094 81.4141C302.812 81.2318 302.489 81.1406 302.124 81.1406ZM313.107 88.0909V87.554C313.11 87.1596 313.194 86.7966 313.36 86.4652C313.529 86.1304 313.773 85.8636 314.091 85.6648C314.412 85.4626 314.802 85.3615 315.259 85.3615C315.73 85.3615 316.124 85.4609 316.442 85.6598C316.764 85.8587 317.006 86.1255 317.168 86.4602C317.334 86.7917 317.415 87.1562 317.412 87.554V88.0909C317.415 88.4853 317.334 88.8499 317.168 89.1847C317.003 89.5161 316.759 89.7829 316.438 89.9851C316.116 90.1839 315.723 90.2834 315.259 90.2834C314.795 90.2834 314.402 90.1839 314.081 89.9851C313.763 89.7829 313.521 89.5161 313.355 89.1847C313.193 88.8499 313.11 88.4853 313.107 88.0909ZM307.931 82.2642V81.7273C307.934 81.3295 308.019 80.965 308.185 80.6335C308.354 80.2988 308.599 80.032 308.92 79.8331C309.242 79.6342 309.631 79.5348 310.089 79.5348C310.559 79.5348 310.954 79.6342 311.272 79.8331C311.59 80.032 311.83 80.2988 311.993 80.6335C312.159 80.965 312.24 81.3295 312.237 81.7273V82.2642C312.24 82.6619 312.159 83.0265 311.993 83.358C311.827 83.6861 311.584 83.9496 311.262 84.1484C310.944 84.3473 310.553 84.4467 310.089 84.4467C309.621 84.4467 309.227 84.3473 308.906 84.1484C308.587 83.9496 308.345 83.6844 308.18 83.353C308.017 83.0215 307.934 82.6586 307.931 82.2642ZM308.379 90L315.379 79.8182H316.626L309.626 90H308.379ZM314.404 87.554V88.0909C314.407 88.3527 314.47 88.593 314.593 88.8118C314.719 89.0305 314.941 89.1399 315.259 89.1399C315.577 89.1399 315.798 89.0305 315.92 88.8118C316.046 88.593 316.108 88.3527 316.104 88.0909V87.554C316.108 87.2888 316.05 87.0469 315.93 86.8281C315.811 86.6061 315.587 86.495 315.259 86.495C314.948 86.495 314.727 86.6061 314.598 86.8281C314.472 87.0469 314.407 87.2888 314.404 87.554ZM309.239 81.7273V82.2642C309.242 82.526 309.305 82.7663 309.428 82.9851C309.55 83.2038 309.771 83.3132 310.089 83.3132C310.407 83.3132 310.627 83.2038 310.75 82.9851C310.873 82.7663 310.932 82.526 310.929 82.2642V81.7273C310.932 81.4621 310.874 81.2202 310.755 81.0014C310.639 80.7794 310.417 80.6683 310.089 80.6683C309.774 80.6683 309.554 80.7794 309.428 81.0014C309.305 81.2235 309.242 81.4654 309.239 81.7273Z" fill="#52BB2E"/>
<path d="M11.108 7.28977C10.75 4.70455 8.76136 3.20455 6.18182 3.20455C3.14205 3.20455 0.852273 5.42045 0.852273 9.18182C0.852273 12.9375 3.11364 15.1591 6.18182 15.1591C8.94886 15.1591 10.7841 13.3693 11.108 11.1477L8.98295 11.1364C8.71591 12.5 7.60227 13.267 6.21023 13.267C4.32386 13.267 2.97159 11.8523 2.97159 9.18182C2.97159 6.55682 4.3125 5.09659 6.21591 5.09659C7.63068 5.09659 8.73864 5.89773 8.98295 7.28977H11.108ZM15.0043 9.88636C15.0043 8.625 15.7884 7.89773 16.8906 7.89773C17.9702 7.89773 18.6065 8.58523 18.6065 9.76136V15H20.6634V9.44318C20.6634 7.33523 19.4702 6.15909 17.6577 6.15909C16.3168 6.15909 15.4645 6.76705 15.0611 7.75568H14.9588V3.36364H12.9474V15H15.0043V9.88636ZM25.2713 15.1761C26.6406 15.1761 27.4588 14.5341 27.8338 13.8011H27.902V15H29.8793V9.15909C29.8793 6.85227 27.9986 6.15909 26.3338 6.15909C24.4986 6.15909 23.0895 6.97727 22.6349 8.56818L24.5554 8.84091C24.7599 8.24432 25.3395 7.73295 26.3452 7.73295C27.2997 7.73295 27.8224 8.22159 27.8224 9.07955V9.11364C27.8224 9.70455 27.2031 9.73295 25.6634 9.89773C23.9702 10.0795 22.3509 10.5852 22.3509 12.5511C22.3509 14.267 23.6065 15.1761 25.2713 15.1761ZM25.8054 13.6648C24.9474 13.6648 24.3338 13.2727 24.3338 12.517C24.3338 11.7273 25.0213 11.3977 25.9418 11.267C26.4815 11.1932 27.5611 11.0568 27.8281 10.8409V11.8693C27.8281 12.8409 27.044 13.6648 25.8054 13.6648ZM31.9474 15H34.0043V12.0682L34.7543 11.267L37.4247 15H39.8849L36.3054 10.0398L39.6861 6.27273H37.2827L34.1463 9.77841H34.0043V3.36364H31.9474V15ZM41.0568 15H43.1136V9.86932C43.1136 8.76136 43.9489 7.97727 45.0795 7.97727C45.4261 7.97727 45.858 8.03977 46.0341 8.09659V6.20455C45.8466 6.17045 45.5227 6.14773 45.2955 6.14773C44.2955 6.14773 43.4602 6.71591 43.142 7.72727H43.0511V6.27273H41.0568V15ZM49.7401 15.1761C51.1094 15.1761 51.9276 14.5341 52.3026 13.8011H52.3707V15H54.348V9.15909C54.348 6.85227 52.4673 6.15909 50.8026 6.15909C48.9673 6.15909 47.5582 6.97727 47.1037 8.56818L49.0241 8.84091C49.2287 8.24432 49.8082 7.73295 50.8139 7.73295C51.7685 7.73295 52.2912 8.22159 52.2912 9.07955V9.11364C52.2912 9.70455 51.6719 9.73295 50.1321 9.89773C48.4389 10.0795 46.8196 10.5852 46.8196 12.5511C46.8196 14.267 48.0753 15.1761 49.7401 15.1761ZM50.2741 13.6648C49.4162 13.6648 48.8026 13.2727 48.8026 12.517C48.8026 11.7273 49.4901 11.3977 50.4105 11.267C50.9503 11.1932 52.0298 11.0568 52.2969 10.8409V11.8693C52.2969 12.8409 51.5128 13.6648 50.2741 13.6648ZM60.4759 15H62.5838V11.0682H64.8111C67.4986 11.0682 68.9418 9.45455 68.9418 7.21591C68.9418 4.99432 67.5156 3.36364 64.8395 3.36364H60.4759V15ZM62.5838 9.33523V5.125H64.5156C66.0952 5.125 66.794 5.97727 66.794 7.21591C66.794 8.45455 66.0952 9.33523 64.527 9.33523H62.5838ZM74.4205 15.1705C76.4545 15.1705 77.8523 14.1761 78.2159 12.6591L76.2955 12.4432C76.017 13.1818 75.3352 13.5682 74.4489 13.5682C73.1193 13.5682 72.2386 12.6932 72.2216 11.1989H78.3011V10.5682C78.3011 7.50568 76.4602 6.15909 74.3125 6.15909C71.8125 6.15909 70.1818 7.99432 70.1818 10.6875C70.1818 13.4261 71.7898 15.1705 74.4205 15.1705ZM72.2273 9.8125C72.2898 8.69886 73.1136 7.76136 74.3409 7.76136C75.5227 7.76136 76.3182 8.625 76.3295 9.8125H72.2273ZM80.0412 15H82.098V9.86932C82.098 8.76136 82.9332 7.97727 84.0639 7.97727C84.4105 7.97727 84.8423 8.03977 85.0185 8.09659V6.20455C84.831 6.17045 84.5071 6.14773 84.2798 6.14773C83.2798 6.14773 82.4446 6.71591 82.1264 7.72727H82.0355V6.27273H80.0412V15ZM91.2741 6.27273H89.4616V5.58523C89.4616 4.90341 89.7457 4.52273 90.5128 4.52273C90.8366 4.52273 91.1094 4.59659 91.2798 4.64773L91.6946 3.05682C91.4276 2.96591 90.8423 2.81818 90.1321 2.81818C88.6151 2.81818 87.4048 3.6875 87.4048 5.44886V6.27273H86.1151V7.86364H87.4048V15H89.4616V7.86364H91.2741V6.27273ZM96.3636 15.1705C98.9205 15.1705 100.545 13.3693 100.545 10.6705C100.545 7.96591 98.9205 6.15909 96.3636 6.15909C93.8068 6.15909 92.1818 7.96591 92.1818 10.6705C92.1818 13.3693 93.8068 15.1705 96.3636 15.1705ZM96.375 13.5227C94.9602 13.5227 94.267 12.2614 94.267 10.6648C94.267 9.06818 94.9602 7.78977 96.375 7.78977C97.767 7.78977 98.4602 9.06818 98.4602 10.6648C98.4602 12.2614 97.767 13.5227 96.375 13.5227ZM102.291 15H104.348V9.86932C104.348 8.76136 105.183 7.97727 106.314 7.97727C106.661 7.97727 107.092 8.03977 107.268 8.09659V6.20455C107.081 6.17045 106.757 6.14773 106.53 6.14773C105.53 6.14773 104.695 6.71591 104.376 7.72727H104.286V6.27273H102.291V15ZM108.635 15H110.692V9.69318C110.692 8.61932 111.408 7.89205 112.294 7.89205C113.163 7.89205 113.76 8.47727 113.76 9.375V15H115.777V9.55682C115.777 8.57386 116.362 7.89205 117.357 7.89205C118.186 7.89205 118.845 8.38068 118.845 9.46023V15H120.908V9.14205C120.908 7.19318 119.783 6.15909 118.18 6.15909C116.913 6.15909 115.947 6.78409 115.561 7.75568H115.47C115.135 6.76705 114.288 6.15909 113.112 6.15909C111.942 6.15909 111.067 6.76136 110.703 7.75568H110.601V6.27273H108.635V15ZM125.506 15.1761C126.875 15.1761 127.693 14.5341 128.068 13.8011H128.136V15H130.114V9.15909C130.114 6.85227 128.233 6.15909 126.568 6.15909C124.733 6.15909 123.324 6.97727 122.869 8.56818L124.79 8.84091C124.994 8.24432 125.574 7.73295 126.58 7.73295C127.534 7.73295 128.057 8.22159 128.057 9.07955V9.11364C128.057 9.70455 127.438 9.73295 125.898 9.89773C124.205 10.0795 122.585 10.5852 122.585 12.5511C122.585 14.267 123.841 15.1761 125.506 15.1761ZM126.04 13.6648C125.182 13.6648 124.568 13.2727 124.568 12.517C124.568 11.7273 125.256 11.3977 126.176 11.267C126.716 11.1932 127.795 11.0568 128.062 10.8409V11.8693C128.062 12.8409 127.278 13.6648 126.04 13.6648ZM134.239 9.88636C134.239 8.625 135 7.89773 136.085 7.89773C137.148 7.89773 137.784 8.59659 137.784 9.76136V15H139.841V9.44318C139.847 7.35227 138.653 6.15909 136.852 6.15909C135.545 6.15909 134.648 6.78409 134.25 7.75568H134.148V6.27273H132.182V15H134.239V9.88636ZM145.739 15.1705C147.932 15.1705 149.33 13.8693 149.477 12.017H147.511C147.335 12.9545 146.659 13.4943 145.756 13.4943C144.472 13.4943 143.642 12.4205 143.642 10.6364C143.642 8.875 144.489 7.81818 145.756 7.81818C146.744 7.81818 147.352 8.45455 147.511 9.29545H149.477C149.335 7.40341 147.858 6.15909 145.727 6.15909C143.17 6.15909 141.557 8.00568 141.557 10.6705C141.557 13.3125 143.131 15.1705 145.739 15.1705ZM155.03 15.1705C157.064 15.1705 158.462 14.1761 158.825 12.6591L156.905 12.4432C156.626 13.1818 155.945 13.5682 155.058 13.5682C153.729 13.5682 152.848 12.6932 152.831 11.1989H158.911V10.5682C158.911 7.50568 157.07 6.15909 154.922 6.15909C152.422 6.15909 150.791 7.99432 150.791 10.6875C150.791 13.4261 152.399 15.1705 155.03 15.1705ZM152.837 9.8125C152.899 8.69886 153.723 7.76136 154.95 7.76136C156.132 7.76136 156.928 8.625 156.939 9.8125H152.837Z" fill="#292929"/>
<path d="M741.357 15C744.902 15 747.004 12.8068 747.004 9.17045C747.004 5.54545 744.902 3.36364 741.436 3.36364H737.413V15H741.357ZM739.521 13.1761V5.1875H741.317C743.68 5.1875 744.913 6.50568 744.913 9.17045C744.913 11.8466 743.68 13.1761 741.254 13.1761H739.521ZM758.967 7.28977C758.609 4.70455 756.621 3.20455 754.041 3.20455C751.001 3.20455 748.712 5.42045 748.712 9.18182C748.712 12.9375 750.973 15.1591 754.041 15.1591C756.808 15.1591 758.643 13.3693 758.967 11.1477L756.842 11.1364C756.575 12.5 755.462 13.267 754.07 13.267C752.183 13.267 750.831 11.8523 750.831 9.18182C750.831 6.55682 752.172 5.09659 754.075 5.09659C755.49 5.09659 756.598 5.89773 756.842 7.28977H758.967ZM762.251 15L763.212 12.1307H767.587L768.553 15H770.803L766.7 3.36364H764.098L760.001 15H762.251ZM763.78 10.4375L765.354 5.75H765.445L767.018 10.4375H763.78ZM778.412 3.36364H776.304V15H778.412V3.36364ZM782.661 9.88636C782.661 8.625 783.422 7.89773 784.507 7.89773C785.57 7.89773 786.206 8.59659 786.206 9.76136V15H788.263V9.44318C788.268 7.35227 787.075 6.15909 785.274 6.15909C783.967 6.15909 783.07 6.78409 782.672 7.75568H782.57V6.27273H780.604V15H782.661V9.88636ZM794.774 6.27273H792.962V5.58523C792.962 4.90341 793.246 4.52273 794.013 4.52273C794.337 4.52273 794.609 4.59659 794.78 4.64773L795.195 3.05682C794.928 2.96591 794.342 2.81818 793.632 2.81818C792.115 2.81818 790.905 3.6875 790.905 5.44886V6.27273H789.615V7.86364H790.905V15H792.962V7.86364H794.774V6.27273ZM799.864 15.1705C802.42 15.1705 804.045 13.3693 804.045 10.6705C804.045 7.96591 802.42 6.15909 799.864 6.15909C797.307 6.15909 795.682 7.96591 795.682 10.6705C795.682 13.3693 797.307 15.1705 799.864 15.1705ZM799.875 13.5227C798.46 13.5227 797.767 12.2614 797.767 10.6648C797.767 9.06818 798.46 7.78977 799.875 7.78977C801.267 7.78977 801.96 9.06818 801.96 10.6648C801.96 12.2614 801.267 13.5227 799.875 13.5227Z" fill="#292929"/>
<path d="M740.455 57C743.557 57 745.396 55.081 745.396 51.8991C745.396 48.7273 743.557 46.8182 740.524 46.8182H737.004V57H740.455ZM738.849 55.4041V48.4141H740.42C742.488 48.4141 743.567 49.5675 743.567 51.8991C743.567 54.2408 742.488 55.4041 740.365 55.4041H738.849ZM755.864 50.2536C755.551 47.9915 753.811 46.679 751.554 46.679C748.894 46.679 746.89 48.6179 746.89 51.9091C746.89 55.1953 748.869 57.1392 751.554 57.1392C753.975 57.1392 755.581 55.5732 755.864 53.6293L754.005 53.6193C753.771 54.8125 752.797 55.4837 751.578 55.4837C749.928 55.4837 748.745 54.2457 748.745 51.9091C748.745 49.6122 749.918 48.3345 751.583 48.3345C752.821 48.3345 753.791 49.0355 754.005 50.2536H755.864ZM758.738 57L759.578 54.4893H763.406L764.251 57H766.22L762.63 46.8182H760.353L756.769 57H758.738ZM760.075 53.0078L761.452 48.9062H761.532L762.909 53.0078H760.075ZM779.749 50.2536C779.436 47.9915 777.695 46.679 775.438 46.679C772.779 46.679 770.775 48.6179 770.775 51.9091C770.775 55.1953 772.754 57.1392 775.438 57.1392C777.86 57.1392 779.465 55.5732 779.749 53.6293L777.889 53.6193C777.656 54.8125 776.681 55.4837 775.463 55.4837C773.813 55.4837 772.629 54.2457 772.629 51.9091C772.629 49.6122 773.803 48.3345 775.468 48.3345C776.706 48.3345 777.676 49.0355 777.889 50.2536H779.749ZM784.689 57.1491C786.926 57.1491 788.348 55.5732 788.348 53.2116C788.348 50.8452 786.926 49.2642 784.689 49.2642C782.452 49.2642 781.03 50.8452 781.03 53.2116C781.03 55.5732 782.452 57.1491 784.689 57.1491ZM784.699 55.7074C783.461 55.7074 782.855 54.6037 782.855 53.2067C782.855 51.8097 783.461 50.6911 784.699 50.6911C785.917 50.6911 786.524 51.8097 786.524 53.2067C786.524 54.6037 785.917 55.7074 784.699 55.7074ZM789.876 57H791.676V52.3565C791.676 51.4169 792.302 50.7805 793.078 50.7805C793.838 50.7805 794.36 51.2926 794.36 52.0781V57H796.125V52.2372C796.125 51.3771 796.637 50.7805 797.507 50.7805C798.233 50.7805 798.81 51.2081 798.81 52.1527V57H800.615V51.8743C800.615 50.169 799.63 49.2642 798.228 49.2642C797.119 49.2642 796.274 49.8111 795.936 50.6612H795.857C795.563 49.7962 794.823 49.2642 793.794 49.2642C792.769 49.2642 792.004 49.7912 791.686 50.6612H791.596V49.3636H789.876V57ZM802.44 57H804.24V52.3565C804.24 51.4169 804.866 50.7805 805.642 50.7805C806.403 50.7805 806.925 51.2926 806.925 52.0781V57H808.69V52.2372C808.69 51.3771 809.202 50.7805 810.072 50.7805C810.798 50.7805 811.374 51.2081 811.374 52.1527V57H813.179V51.8743C813.179 50.169 812.195 49.2642 810.793 49.2642C809.684 49.2642 808.839 49.8111 808.501 50.6612H808.421C808.128 49.7962 807.387 49.2642 806.358 49.2642C805.334 49.2642 804.568 49.7912 804.25 50.6612H804.161V49.3636H802.44V57ZM815.005 57H816.805V49.3636H815.005V57ZM815.91 48.2798C816.481 48.2798 816.949 47.8423 816.949 47.3054C816.949 46.7635 816.481 46.326 815.91 46.326C815.333 46.326 814.866 46.7635 814.866 47.3054C814.866 47.8423 815.333 48.2798 815.91 48.2798ZM822.468 49.3636H820.962V47.5341H819.162V49.3636H818.078V50.7557H819.162V55.0014C819.152 56.4382 820.196 57.1442 821.549 57.1044C822.061 57.0895 822.414 56.9901 822.608 56.9254L822.304 55.5185C822.205 55.5433 822.001 55.5881 821.777 55.5881C821.325 55.5881 820.962 55.429 820.962 54.7031V50.7557H822.468V49.3636ZM823.974 57H825.773V52.3565C825.773 51.4169 826.4 50.7805 827.175 50.7805C827.936 50.7805 828.458 51.2926 828.458 52.0781V57H830.223V52.2372C830.223 51.3771 830.735 50.7805 831.605 50.7805C832.331 50.7805 832.907 51.2081 832.907 52.1527V57H834.712V51.8743C834.712 50.169 833.728 49.2642 832.326 49.2642C831.217 49.2642 830.372 49.8111 830.034 50.6612H829.954C829.661 49.7962 828.92 49.2642 827.891 49.2642C826.867 49.2642 826.101 49.7912 825.783 50.6612H825.694V49.3636H823.974V57ZM839.919 57.1491C841.699 57.1491 842.922 56.2791 843.24 54.9517L841.559 54.7628C841.316 55.4091 840.719 55.7472 839.944 55.7472C838.78 55.7472 838.01 54.9815 837.995 53.674H843.314V53.1222C843.314 50.4425 841.703 49.2642 839.824 49.2642C837.637 49.2642 836.21 50.87 836.21 53.2266C836.21 55.6229 837.617 57.1491 839.919 57.1491ZM838 52.4609C838.054 51.4865 838.775 50.6662 839.849 50.6662C840.883 50.6662 841.579 51.4219 841.589 52.4609H838ZM846.637 52.5256C846.637 51.4219 847.303 50.7855 848.252 50.7855C849.182 50.7855 849.739 51.397 849.739 52.4162V57H851.539V52.1378C851.544 50.3082 850.499 49.2642 848.923 49.2642C847.78 49.2642 846.994 49.8111 846.646 50.6612H846.557V49.3636H844.837V57H846.637V52.5256ZM857.181 49.3636H855.675V47.5341H853.875V49.3636H852.791V50.7557H853.875V55.0014C853.865 56.4382 854.909 57.1442 856.262 57.1044C856.774 57.0895 857.127 56.9901 857.32 56.9254L857.017 55.5185C856.918 55.5433 856.714 55.5881 856.49 55.5881C856.038 55.5881 855.675 55.429 855.675 54.7031V50.7557H857.181V49.3636ZM859.795 57.1094C860.382 57.1094 860.884 56.6222 860.889 56.0156C860.884 55.419 860.382 54.9318 859.795 54.9318C859.189 54.9318 858.696 55.419 858.701 56.0156C858.696 56.6222 859.189 57.1094 859.795 57.1094ZM859.795 51.6555C860.382 51.6555 860.884 51.1683 860.889 50.5618C860.884 49.9652 860.382 49.478 859.795 49.478C859.189 49.478 858.696 49.9652 858.701 50.5618C858.696 51.1683 859.189 51.6555 859.795 51.6555Z" fill="#292929"/>
<path d="M900.335 46.8182H898.838L896.298 48.4787V49.9503L898.734 48.3594H898.793V57H900.335V46.8182ZM906.634 57.169C908.985 57.169 910.362 55.25 910.362 51.9141C910.362 48.603 908.965 46.679 906.634 46.679C904.297 46.679 902.905 48.598 902.9 51.9141C902.9 55.245 904.277 57.1641 906.634 57.169ZM906.634 55.8416C905.256 55.8416 904.426 54.4595 904.426 51.9141C904.431 49.3786 905.261 47.9815 906.634 47.9815C908.001 47.9815 908.836 49.3786 908.836 51.9141C908.836 54.4595 908.006 55.8416 906.634 55.8416ZM915.671 57.169C918.022 57.169 919.399 55.25 919.399 51.9141C919.399 48.603 918.002 46.679 915.671 46.679C913.334 46.679 911.942 48.598 911.937 51.9141C911.937 55.245 913.314 57.1641 915.671 57.169ZM915.671 55.8416C914.294 55.8416 913.463 54.4595 913.463 51.9141C913.468 49.3786 914.298 47.9815 915.671 47.9815C917.038 47.9815 917.873 49.3786 917.873 51.9141C917.873 54.4595 917.043 55.8416 915.671 55.8416ZM931.555 46.8182V53.3906C931.555 54.7727 930.6 55.767 929.049 55.767C927.503 55.767 926.544 54.7727 926.544 53.3906V46.8182H925.007V53.5149C925.007 55.6527 926.608 57.169 929.049 57.169C931.49 57.169 933.096 55.6527 933.096 53.5149V46.8182H931.555ZM940.883 49.4929H942.364C942.32 47.8622 940.878 46.679 938.81 46.679C936.766 46.679 935.2 47.8473 935.2 49.6023C935.2 51.0192 936.214 51.8494 937.85 52.2919L939.053 52.62C940.142 52.9084 940.982 53.2663 940.982 54.1712C940.982 55.1655 940.033 55.8217 938.725 55.8217C937.542 55.8217 936.558 55.2947 936.468 54.1861H934.927C935.026 56.0305 936.453 57.169 938.735 57.169C941.126 57.169 942.504 55.9112 942.504 54.1861C942.504 52.3516 940.868 51.6406 939.575 51.3224L938.581 51.0639C937.786 50.8601 936.727 50.4872 936.732 49.5128C936.732 48.6477 937.522 48.0064 938.775 48.0064C939.943 48.0064 940.773 48.5533 940.883 49.4929ZM947.635 57C950.738 57 952.532 55.076 952.532 51.8942C952.532 48.7273 950.738 46.8182 947.74 46.8182H944.339V57H947.635ZM945.876 55.6577V48.1605H947.645C949.873 48.1605 951.021 49.4929 951.021 51.8942C951.021 54.3054 949.873 55.6577 947.551 55.6577H945.876ZM962.9 50.1293C962.551 47.9517 960.846 46.679 958.694 46.679C956.059 46.679 954.115 48.6527 954.115 51.9091C954.115 55.1655 956.049 57.1392 958.694 57.1392C960.931 57.1392 962.566 55.7372 962.9 53.7237L961.348 53.7188C961.085 55.0213 959.991 55.7372 958.703 55.7372C956.958 55.7372 955.641 54.3999 955.641 51.9091C955.641 49.4382 956.953 48.081 958.708 48.081C960.006 48.081 961.095 48.8118 961.348 50.1293H962.9ZM1020.19 46.3409H1018.86L1015.58 58.5312H1016.91L1020.19 46.3409ZM1023.11 57H1024.62L1026.17 51.4865H1026.28L1027.84 57H1029.35L1031.59 49.3636H1030.06L1028.57 54.9467H1028.5L1027.01 49.3636H1025.47L1023.97 54.9716H1023.89L1022.4 49.3636H1020.86L1023.11 57ZM1036.06 57.1541C1037.73 57.1541 1038.91 56.3338 1039.25 55.0909L1037.84 54.8374C1037.57 55.5582 1036.92 55.9261 1036.08 55.9261C1034.81 55.9261 1033.95 55.1009 1033.91 53.6293H1039.34V53.1023C1039.34 50.343 1037.69 49.2642 1035.96 49.2642C1033.83 49.2642 1032.43 50.8849 1032.43 53.2315C1032.43 55.603 1033.81 57.1541 1036.06 57.1541ZM1033.92 52.5156C1033.98 51.4318 1034.76 50.4922 1035.97 50.4922C1037.12 50.4922 1037.88 51.3473 1037.88 52.5156H1033.92ZM1044.28 57.1541C1045.95 57.1541 1047.12 56.3338 1047.46 55.0909L1046.06 54.8374C1045.79 55.5582 1045.14 55.9261 1044.3 55.9261C1043.02 55.9261 1042.17 55.1009 1042.13 53.6293H1047.56V53.1023C1047.56 50.343 1045.91 49.2642 1044.18 49.2642C1042.05 49.2642 1040.65 50.8849 1040.65 53.2315C1040.65 55.603 1042.03 57.1541 1044.28 57.1541ZM1042.13 52.5156C1042.19 51.4318 1042.98 50.4922 1044.19 50.4922C1045.34 50.4922 1046.1 51.3473 1046.1 52.5156H1042.13ZM1049.21 57H1050.69V54.2905L1051.43 53.5497L1054.03 57H1055.85L1052.55 52.6399L1055.64 49.3636H1053.86L1050.82 52.5952H1050.69V46.8182H1049.21V57Z" fill="#292929"/>
<path d="M968.756 51.9091C968.756 54.4048 969.422 56.483 970.685 58.2528H972.047C971.068 56.9403 970.297 54.2756 970.297 51.9091C970.297 49.5476 971.068 46.8828 972.047 45.5703H970.685C969.422 47.3402 968.756 49.4183 968.756 51.9091ZM976.662 58.2727H977.597L977.602 57.1541C979.705 57 980.908 55.7969 980.908 54.1861C980.908 52.3516 979.272 51.6406 977.98 51.3224L977.617 51.228L977.627 48.0362C978.556 48.1605 979.193 48.6776 979.287 49.4929H980.769C980.729 47.9766 979.476 46.843 977.632 46.6939L977.637 45.5455H976.702L976.697 46.7038C974.912 46.8828 973.605 47.9964 973.605 49.6023C973.605 51.0192 974.619 51.8494 976.254 52.2919L976.682 52.4062L976.672 55.7919C975.703 55.6726 974.952 55.1456 974.872 54.1861H973.331C973.426 55.9013 974.664 57.005 976.667 57.1541L976.662 58.2727ZM977.607 55.7919L977.617 52.6648C978.626 52.9432 979.387 53.3111 979.387 54.1712C979.387 55.0412 978.661 55.6527 977.607 55.7919ZM976.687 50.9794C975.946 50.7607 975.131 50.3679 975.136 49.5128C975.136 48.767 975.727 48.1854 976.692 48.0412L976.687 50.9794ZM986.467 46.8182H984.971L982.43 48.4787V49.9503L984.866 48.3594H984.926V57H986.467V46.8182ZM992.766 57.169C995.118 57.169 996.495 55.25 996.495 51.9141C996.495 48.603 995.098 46.679 992.766 46.679C990.43 46.679 989.038 48.598 989.033 51.9141C989.033 55.245 990.41 57.1641 992.766 57.169ZM992.766 55.8416C991.389 55.8416 990.559 54.4595 990.559 51.9141C990.564 49.3786 991.394 47.9815 992.766 47.9815C994.134 47.9815 994.969 49.3786 994.969 51.9141C994.969 54.4595 994.138 55.8416 992.766 55.8416ZM1001.8 57.169C1004.16 57.169 1005.53 55.25 1005.53 51.9141C1005.53 48.603 1004.14 46.679 1001.8 46.679C999.467 46.679 998.075 48.598 998.07 51.9141C998.07 55.245 999.447 57.1641 1001.8 57.169ZM1001.8 55.8416C1000.43 55.8416 999.596 54.4595 999.596 51.9141C999.601 49.3786 1000.43 47.9815 1001.8 47.9815C1003.17 47.9815 1004.01 49.3786 1004.01 51.9141C1004.01 54.4595 1003.18 55.8416 1001.8 55.8416ZM1010.17 51.9141C1010.17 49.4183 1009.51 47.3402 1008.25 45.5703H1006.88C1007.86 46.8828 1008.63 49.5476 1008.63 51.9141C1008.63 54.2756 1007.86 56.9403 1006.88 58.2528H1008.25C1009.51 56.483 1010.17 54.4048 1010.17 51.9141Z" fill="#AAAAAA"/>
<path d="M948.104 79.8182H946.608L944.067 81.4787V82.9503L946.503 81.3594H946.563V90H948.104V79.8182ZM954.299 90.1392C956.417 90.1392 957.913 88.9361 957.923 87.2855C957.913 86.0028 957.013 84.924 955.875 84.7202V84.6605C956.864 84.4219 957.535 83.4922 957.545 82.3935C957.535 80.8374 956.163 79.679 954.299 79.679C952.414 79.679 951.042 80.8374 951.052 82.3935C951.042 83.4872 951.713 84.4219 952.723 84.6605V84.7202C951.564 84.924 950.664 86.0028 950.674 87.2855C950.664 88.9361 952.161 90.1392 954.299 90.1392ZM954.299 88.8814C953.026 88.8814 952.221 88.2053 952.23 87.1861C952.221 86.1271 953.096 85.3714 954.299 85.3714C955.482 85.3714 956.357 86.1271 956.367 87.1861C956.357 88.2053 955.556 88.8814 954.299 88.8814ZM954.299 84.1435C953.27 84.1435 952.539 83.4922 952.549 82.5227C952.539 81.5682 953.245 80.9368 954.299 80.9368C955.333 80.9368 956.039 81.5682 956.049 82.5227C956.039 83.4922 955.313 84.1435 954.299 84.1435ZM972.393 84.9091C972.393 81.6527 970.444 79.679 967.809 79.679C965.164 79.679 963.22 81.6527 963.22 84.9091C963.22 88.1605 965.164 90.1392 967.809 90.1392C970.444 90.1392 972.393 88.1655 972.393 84.9091ZM970.871 84.9091C970.871 87.3899 969.559 88.7372 967.809 88.7372C966.054 88.7372 964.746 87.3899 964.746 84.9091C964.746 82.4283 966.054 81.081 967.809 81.081C969.559 81.081 970.871 82.4283 970.871 84.9091ZM977.405 90.1541C979.21 90.1541 980.378 89.0703 980.542 87.5838H979.096C978.907 88.4091 978.265 88.8963 977.415 88.8963C976.157 88.8963 975.347 87.8473 975.347 86.1818C975.347 84.5462 976.172 83.517 977.415 83.517C978.36 83.517 978.937 84.1136 979.096 84.8295H980.542C980.383 83.2884 979.126 82.2642 977.39 82.2642C975.238 82.2642 973.846 83.8849 973.846 86.2166C973.846 88.5185 975.188 90.1541 977.405 90.1541ZM985.697 82.3636H984.131V80.5341H982.644V82.3636H981.526V83.5568H982.644V88.0661C982.639 89.4531 983.698 90.1243 984.871 90.0994C985.344 90.0945 985.662 90.005 985.836 89.9403L985.567 88.7124C985.468 88.7322 985.284 88.777 985.045 88.777C984.563 88.777 984.131 88.6179 984.131 87.7578V83.5568H985.697V82.3636ZM990.476 90.1541C992.628 90.1541 994.035 88.5781 994.035 86.2166C994.035 83.8402 992.628 82.2642 990.476 82.2642C988.323 82.2642 986.916 83.8402 986.916 86.2166C986.916 88.5781 988.323 90.1541 990.476 90.1541ZM990.481 88.9062C989.074 88.9062 988.417 87.6783 988.417 86.2116C988.417 84.75 989.074 83.5071 990.481 83.5071C991.878 83.5071 992.534 84.75 992.534 86.2116C992.534 87.6783 991.878 88.9062 990.481 88.9062ZM995.814 90H997.266V88.8118H997.39C997.658 89.299 998.205 90.1491 999.597 90.1491C1001.45 90.1491 1002.79 88.6676 1002.79 86.1967C1002.79 83.7209 1001.43 82.2642 999.582 82.2642C998.165 82.2642 997.653 83.1293 997.39 83.6016H997.3V79.8182H995.814V90ZM997.271 86.1818C997.271 84.5859 997.967 83.527 999.264 83.527C1000.61 83.527 1001.29 84.6655 1001.29 86.1818C1001.29 87.7131 1000.59 88.8814 999.264 88.8814C997.987 88.8814 997.271 87.7876 997.271 86.1818ZM1007.75 90.1541C1009.41 90.1541 1010.59 89.3338 1010.93 88.0909L1009.52 87.8374C1009.26 88.5582 1008.61 88.9261 1007.76 88.9261C1006.49 88.9261 1005.64 88.1009 1005.6 86.6293H1011.03V86.1023C1011.03 83.343 1009.38 82.2642 1007.65 82.2642C1005.52 82.2642 1004.12 83.8849 1004.12 86.2315C1004.12 88.603 1005.5 90.1541 1007.75 90.1541ZM1005.6 85.5156C1005.66 84.4318 1006.45 83.4922 1007.66 83.4922C1008.81 83.4922 1009.56 84.3473 1009.57 85.5156H1005.6ZM1012.68 90H1014.16V85.3366C1014.16 84.3374 1014.93 83.6165 1015.99 83.6165C1016.29 83.6165 1016.64 83.6712 1016.76 83.706V82.2841C1016.61 82.2642 1016.32 82.2493 1016.13 82.2493C1015.24 82.2493 1014.47 82.7564 1014.19 83.5767H1014.11V82.3636H1012.68V90ZM1021.73 90H1028.44V88.6825H1023.85V88.608L1025.87 86.4901C1027.74 84.6058 1028.27 83.706 1028.27 82.5675C1028.27 80.9318 1026.94 79.679 1025.02 79.679C1023.12 79.679 1021.72 80.9119 1021.72 82.7713H1023.19C1023.19 81.6776 1023.89 80.9616 1024.99 80.9616C1026.02 80.9616 1026.81 81.598 1026.81 82.6122C1026.81 83.5121 1026.27 84.1584 1025.18 85.3168L1021.73 88.8864V90ZM1033.86 90.169C1036.22 90.169 1037.59 88.25 1037.59 84.9141C1037.59 81.603 1036.2 79.679 1033.86 79.679C1031.53 79.679 1030.14 81.598 1030.13 84.9141C1030.13 88.245 1031.51 90.1641 1033.86 90.169ZM1033.86 88.8416C1032.49 88.8416 1031.66 87.4595 1031.66 84.9141C1031.66 82.3786 1032.49 80.9815 1033.86 80.9815C1035.23 80.9815 1036.07 82.3786 1036.07 84.9141C1036.07 87.4595 1035.24 88.8416 1033.86 88.8416ZM1039.36 90H1046.06V88.6825H1041.47V88.608L1043.5 86.4901C1045.36 84.6058 1045.89 83.706 1045.89 82.5675C1045.89 80.9318 1044.56 79.679 1042.64 79.679C1040.74 79.679 1039.35 80.9119 1039.35 82.7713H1040.81C1040.81 81.6776 1041.51 80.9616 1042.61 80.9616C1043.65 80.9616 1044.43 81.598 1044.43 82.6122C1044.43 83.5121 1043.9 84.1584 1042.8 85.3168L1039.36 88.8864V90ZM1051.49 90.169C1053.84 90.169 1055.22 88.25 1055.22 84.9141C1055.22 81.603 1053.82 79.679 1051.49 79.679C1049.15 79.679 1047.76 81.598 1047.75 84.9141C1047.75 88.245 1049.13 90.1641 1051.49 90.169ZM1051.49 88.8416C1050.11 88.8416 1049.28 87.4595 1049.28 84.9141C1049.28 82.3786 1050.11 80.9815 1051.49 80.9815C1052.85 80.9815 1053.69 82.3786 1053.69 84.9141C1053.69 87.4595 1052.86 88.8416 1051.49 88.8416Z" fill="#292929"/>
<path d="M745.371 79.8182H743.537V86.7585H743.447L738.655 79.8182H737.004V90H738.849V83.0646H738.933L743.731 90H745.371V79.8182ZM750.682 90.1491C752.462 90.1491 753.685 89.2791 754.003 87.9517L752.323 87.7628C752.079 88.4091 751.483 88.7472 750.707 88.7472C749.544 88.7472 748.773 87.9815 748.758 86.674H754.078V86.1222C754.078 83.4425 752.467 82.2642 750.588 82.2642C748.4 82.2642 746.974 83.87 746.974 86.2266C746.974 88.6229 748.381 90.1491 750.682 90.1491ZM748.763 85.4609C748.818 84.4865 749.539 83.6662 750.613 83.6662C751.647 83.6662 752.343 84.4219 752.353 85.4609H748.763ZM756.922 82.3636H755.013L757.28 86.1818L754.953 90H756.862L758.463 87.2507L760.079 90H761.973L759.631 86.1818L761.933 82.3636H760.029L758.463 85.1825L756.922 82.3636ZM767.138 82.3636H765.632V80.5341H763.832V82.3636H762.748V83.7557H763.832V88.0014C763.822 89.4382 764.866 90.1442 766.219 90.1044C766.731 90.0895 767.084 89.9901 767.278 89.9254L766.974 88.5185C766.875 88.5433 766.671 88.5881 766.447 88.5881C765.995 88.5881 765.632 88.429 765.632 87.7031V83.7557H767.138V82.3636ZM775.646 90C778.748 90 780.588 88.081 780.588 84.8991C780.588 81.7273 778.748 79.8182 775.716 79.8182H772.196V90H775.646ZM774.04 88.4041V81.4141H775.611C777.679 81.4141 778.758 82.5675 778.758 84.8991C778.758 87.2408 777.679 88.4041 775.556 88.4041H774.04ZM791.055 83.2536C790.742 80.9915 789.002 79.679 786.745 79.679C784.085 79.679 782.082 81.6179 782.082 84.9091C782.082 88.1953 784.06 90.1392 786.745 90.1392C789.166 90.1392 790.772 88.5732 791.055 86.6293L789.196 86.6193C788.962 87.8125 787.988 88.4837 786.77 88.4837C785.119 88.4837 783.936 87.2457 783.936 84.9091C783.936 82.6122 785.109 81.3345 786.775 81.3345C788.013 81.3345 788.982 82.0355 789.196 83.2536H791.055ZM793.929 90L794.769 87.4893H798.597L799.442 90H801.411L797.822 79.8182H795.545L791.96 90H793.929ZM795.266 86.0078L796.643 81.9062H796.723L798.1 86.0078H795.266ZM803.781 88.777C804.368 88.777 804.87 88.2898 804.875 87.6832C804.87 87.0866 804.368 86.5994 803.781 86.5994C803.175 86.5994 802.683 87.0866 802.688 87.6832C802.683 88.2898 803.175 88.777 803.781 88.777ZM803.781 83.7259C804.368 83.7259 804.87 83.2386 804.875 82.6321C804.87 82.0355 804.368 81.5483 803.781 81.5483C803.175 81.5483 802.683 82.0355 802.688 82.6321C802.683 83.2386 803.175 83.7259 803.781 83.7259Z" fill="#292929"/>
</svg>
