<svg width="646" height="723" viewBox="0 0 646 723" fill="none" xmlns="http://www.w3.org/2000/svg">
<circle cx="361.5" cy="361.5" r="361.5" fill="url(#paint0_linear)"/>
<path d="M440.884 164.682C440.884 207.283 406.353 241.814 363.752 241.814C321.151 241.814 286.62 207.283 286.62 164.682C286.62 122.082 321.151 87.5508 363.752 87.5508C406.353 87.5508 440.884 122.082 440.884 164.682Z" fill="white"/>
<path d="M515.063 496.986H501.722C413.975 496.986 312.878 598.735 312.878 598.735H515.063C542.977 598.735 565.607 575.957 565.607 547.86C565.607 519.76 542.977 496.986 515.063 496.986Z" fill="white"/>
<path d="M229.966 336.193L217.694 469.427H222C234.109 469.417 246.147 471.094 257.777 474.4C294.885 483.366 331.07 503.238 360.513 523.244C400.24 496.249 452.272 469.427 502.221 469.427H506.527L494.259 336.188C490.825 297.056 457.559 267.061 417.766 267.233H306.459C266.667 267.057 233.396 297.056 229.966 336.193Z" fill="white"/>
<path d="M219.834 496.986H206.364C178.181 496.986 155.332 519.76 155.332 547.86C155.332 575.957 178.181 598.735 206.364 598.735H275.536L293.574 580.748C307.964 566.807 323.183 553.743 339.135 541.619C303.967 518.422 260.5 496.986 219.834 496.986Z" fill="white"/>
<defs>
<linearGradient id="paint0_linear" x1="361.5" y1="723" x2="361.5" y2="19.7695" gradientUnits="userSpaceOnUse">
<stop stop-color="#AA55FF"/>
<stop offset="1" stop-color="#00F0FF"/>
</linearGradient>
</defs>
</svg>
