<svg width="672" height="784" viewBox="0 0 672 784" fill="none" xmlns="http://www.w3.org/2000/svg">
<circle cx="392" cy="392" r="392" fill="url(#paint0_linear)"/>
<path d="M393.539 128.625C418.574 147.187 497.535 215.248 497.535 334.713C497.535 453.015 419.68 531.016 393.486 553.896C367.292 531.077 289.551 453.352 289.551 334.713C289.543 215.699 368.526 147.294 393.539 128.625Z" fill="white"/>
<path d="M149.286 237.998C210.113 236.053 252.547 252.318 270.371 260.81C264.455 283.124 260.713 307.59 260.713 334.713C260.713 438.259 312.722 512.232 349.529 551.676C281.044 538.244 228.868 508.242 194.546 461.669C135.091 380.996 144.415 272.411 149.286 237.998Z" fill="white"/>
<path d="M218.642 604.735C143.999 585.668 97.0268 513.196 82.6875 488.034C109.306 460.933 136.977 450.06 151.089 445.902C156.922 457.174 163.451 468.216 171.276 478.929C211.4 533.458 272.09 567.91 351.725 581.854C305.208 607.591 260.592 615.563 218.642 604.735Z" fill="white"/>
<path d="M637.792 237.998C642.632 272.411 651.949 380.996 592.486 461.676C558.157 508.25 505.981 538.252 437.526 551.622C474.325 512.232 526.372 438.267 526.372 334.721C526.372 307.598 522.63 283.094 516.714 260.803C534.462 252.287 576.768 236.053 637.792 237.998Z" fill="white"/>
<path d="M568.602 604.735C526.675 615.502 481.923 607.591 435.292 581.854C514.927 567.91 575.609 533.458 615.741 478.929C623.589 468.223 630.095 457.128 635.951 445.902C650.002 449.891 677.567 460.589 704.375 488.034C690.142 513.196 643.389 585.507 568.602 604.735Z" fill="white"/>
<defs>
<linearGradient id="paint0_linear" x1="392" y1="784" x2="392" y2="21.4375" gradientUnits="userSpaceOnUse">
<stop stop-color="#AA55FF"/>
<stop offset="1" stop-color="#00F0FF"/>
</linearGradient>
</defs>
</svg>
