<svg width="165" height="29" viewBox="0 0 165 29" fill="none" xmlns="http://www.w3.org/2000/svg">
<path d="M51.2784 0.363636V12H52.9489V3.57386H53.0568L56.4886 11.983H57.875L61.3068 3.57955H61.4148V12H63.0852V0.363636H60.9545L57.25 9.40909H57.1136L53.4091 0.363636H51.2784Z" fill="url(#paint0_linear)"/>
<path d="M66.5753 15.25C67.9787 15.25 68.8707 14.517 69.3707 13.1648L72.9787 3.28977L71.1435 3.27273L68.9332 10.0455H68.8423L66.6321 3.27273H64.8139L68.0071 12.1136L67.7969 12.6932C67.3651 13.8239 66.7571 13.9261 65.8253 13.6705L65.4162 15.0625C65.6207 15.1591 66.0639 15.25 66.5753 15.25Z" fill="url(#paint1_linear)"/>
<path d="M88.6151 4.14773C88.2173 1.65909 86.2685 0.204545 83.8082 0.204545C80.7969 0.204545 78.5753 2.46023 78.5753 6.18182C78.5753 9.90341 80.7855 12.1591 83.8082 12.1591C86.3651 12.1591 88.2344 10.5568 88.6151 8.25568L86.8423 8.25C86.5412 9.73864 85.2912 10.5568 83.8196 10.5568C81.8253 10.5568 80.3196 9.02841 80.3196 6.18182C80.3196 3.35795 81.8196 1.80682 83.8253 1.80682C85.3082 1.80682 86.5526 2.64205 86.8423 4.14773H88.6151Z" fill="url(#paint2_linear)"/>
<path d="M92.2784 6.81818C92.2784 5.42614 93.1591 4.63068 94.3693 4.63068C95.5398 4.63068 96.2386 5.375 96.2386 6.65341V12H97.9375V6.44886C97.9375 4.27273 96.7443 3.15909 94.9489 3.15909C93.5909 3.15909 92.7727 3.75 92.3636 4.69318H92.2557V0.363636H90.5795V12H92.2784V6.81818Z" fill="url(#paint3_linear)"/>
<path d="M102.744 12.1932C104.188 12.1932 105 11.4602 105.324 10.8068H105.392V12H107.051V6.20455C107.051 3.66477 105.051 3.15909 103.665 3.15909C102.085 3.15909 100.631 3.79545 100.062 5.38636L101.659 5.75C101.909 5.13068 102.545 4.53409 103.688 4.53409C104.784 4.53409 105.347 5.10795 105.347 6.09659V6.13636C105.347 6.75568 104.71 6.74432 103.142 6.92614C101.489 7.11932 99.7955 7.55114 99.7955 9.53409C99.7955 11.25 101.085 12.1932 102.744 12.1932ZM103.114 10.8295C102.153 10.8295 101.46 10.3977 101.46 9.55682C101.46 8.64773 102.267 8.32386 103.25 8.19318C103.801 8.11932 105.108 7.97159 105.352 7.72727V8.85227C105.352 9.88636 104.528 10.8295 103.114 10.8295Z" fill="url(#paint4_linear)"/>
<path d="M109.314 12H111.013V8.90341L111.859 8.05682L114.825 12H116.911L113.138 7.01705L116.672 3.27273H114.638L111.161 6.96591H111.013V0.363636H109.314V12Z" fill="url(#paint5_linear)"/>
<path d="M118.22 12H119.919V6.67045C119.919 5.52841 120.8 4.70455 122.004 4.70455C122.357 4.70455 122.754 4.76705 122.891 4.80682V3.18182C122.72 3.15909 122.385 3.14205 122.169 3.14205C121.146 3.14205 120.271 3.72159 119.953 4.65909H119.862V3.27273H118.22V12Z" fill="url(#paint6_linear)"/>
<path d="M126.822 12.1932C128.266 12.1932 129.078 11.4602 129.402 10.8068H129.47V12H131.129V6.20455C131.129 3.66477 129.129 3.15909 127.743 3.15909C126.163 3.15909 124.709 3.79545 124.141 5.38636L125.737 5.75C125.987 5.13068 126.624 4.53409 127.766 4.53409C128.862 4.53409 129.425 5.10795 129.425 6.09659V6.13636C129.425 6.75568 128.788 6.74432 127.22 6.92614C125.567 7.11932 123.874 7.55114 123.874 9.53409C123.874 11.25 125.163 12.1932 126.822 12.1932ZM127.192 10.8295C126.232 10.8295 125.538 10.3977 125.538 9.55682C125.538 8.64773 126.345 8.32386 127.328 8.19318C127.879 8.11932 129.186 7.97159 129.43 7.72727V8.85227C129.43 9.88636 128.607 10.8295 127.192 10.8295Z" fill="url(#paint7_linear)"/>
<path d="M139.932 5.40341C139.58 4.04545 138.517 3.15909 136.631 3.15909C134.659 3.15909 133.261 4.19886 133.261 5.74432C133.261 6.98295 134.011 7.80682 135.648 8.17045L137.125 8.49432C137.966 8.68182 138.358 9.05682 138.358 9.60227C138.358 10.2784 137.636 10.8068 136.523 10.8068C135.506 10.8068 134.852 10.3693 134.648 9.51136L133.006 9.76136C133.29 11.3068 134.574 12.1761 136.534 12.1761C138.642 12.1761 140.102 11.0568 140.102 9.47727C140.102 8.24432 139.318 7.48295 137.716 7.11364L136.33 6.79545C135.369 6.56818 134.955 6.24432 134.96 5.65341C134.955 4.98295 135.682 4.50568 136.648 4.50568C137.705 4.50568 138.193 5.09091 138.392 5.67614L139.932 5.40341Z" fill="url(#paint8_linear)"/>
<path d="M33.0002 0C33.7251 0.492219 36.0113 2.29702 36.0113 5.46497C36.0113 8.60206 33.7571 10.6704 32.9987 11.2772C32.2403 10.6721 29.9894 8.611 29.9894 5.46497C29.9892 2.309 32.276 0.495062 33.0002 0Z" fill="url(#paint9_linear)"/>
<path d="M25.9283 2.90032C27.6894 2.84874 28.918 3.28004 29.4341 3.50524C29.2628 4.09695 29.1544 4.74573 29.1544 5.46497C29.1544 8.21076 30.6603 10.1723 31.726 11.2183C29.7431 10.8621 28.2324 10.0665 27.2387 8.83152C25.5173 6.69227 25.7872 3.81287 25.9283 2.90032Z" fill="url(#paint10_linear)"/>
<path d="M27.9363 12.6253C25.7752 12.1197 24.4152 10.1979 24 9.53066C24.7707 8.81203 25.5719 8.52368 25.9805 8.41342C26.1493 8.71232 26.3384 9.00514 26.5649 9.28922C27.7267 10.7352 29.4839 11.6488 31.7896 12.0186C30.4427 12.701 29.1509 12.9124 27.9363 12.6253Z" fill="url(#paint11_linear)"/>
<path d="M40.0722 2.90032C40.2123 3.81287 40.4821 6.69228 38.7604 8.83172C37.7665 10.0667 36.2558 10.8623 34.2738 11.2169C35.3393 10.1723 36.8462 8.21097 36.8462 5.46518C36.8462 4.74594 36.7379 4.09614 36.5666 3.50503C37.0804 3.27923 38.3053 2.84874 40.0722 2.90032Z" fill="url(#paint12_linear)"/>
<path d="M38.0689 12.6253C36.855 12.9108 35.5592 12.701 34.2091 12.0186C36.5148 11.6488 38.2718 10.7352 39.4337 9.28922C39.661 9.00534 39.8494 8.71111 40.0189 8.41342C40.4257 8.51921 41.2238 8.80289 42 9.53066C41.5879 10.1979 40.2343 12.1154 38.0689 12.6253Z" fill="url(#paint13_linear)"/>
<path d="M0 27H165V29H0V27Z" fill="url(#paint14_linear)"/>
<defs>
<linearGradient id="paint0_linear" x1="21.3889" y1="51.2031" x2="93.2502" y2="-60.8913" gradientUnits="userSpaceOnUse">
<stop stop-color="#00E0FF"/>
<stop offset="1" stop-color="#AA55FF"/>
</linearGradient>
<linearGradient id="paint1_linear" x1="21.3889" y1="51.2031" x2="93.2502" y2="-60.8913" gradientUnits="userSpaceOnUse">
<stop stop-color="#00E0FF"/>
<stop offset="1" stop-color="#AA55FF"/>
</linearGradient>
<linearGradient id="paint2_linear" x1="21.3889" y1="51.2031" x2="93.2502" y2="-60.8913" gradientUnits="userSpaceOnUse">
<stop stop-color="#00E0FF"/>
<stop offset="1" stop-color="#AA55FF"/>
</linearGradient>
<linearGradient id="paint3_linear" x1="21.3889" y1="51.2031" x2="93.2502" y2="-60.8913" gradientUnits="userSpaceOnUse">
<stop stop-color="#00E0FF"/>
<stop offset="1" stop-color="#AA55FF"/>
</linearGradient>
<linearGradient id="paint4_linear" x1="21.3889" y1="51.2031" x2="93.2502" y2="-60.8913" gradientUnits="userSpaceOnUse">
<stop stop-color="#00E0FF"/>
<stop offset="1" stop-color="#AA55FF"/>
</linearGradient>
<linearGradient id="paint5_linear" x1="21.3889" y1="51.2031" x2="93.2502" y2="-60.8913" gradientUnits="userSpaceOnUse">
<stop stop-color="#00E0FF"/>
<stop offset="1" stop-color="#AA55FF"/>
</linearGradient>
<linearGradient id="paint6_linear" x1="21.3889" y1="51.2031" x2="93.2502" y2="-60.8913" gradientUnits="userSpaceOnUse">
<stop stop-color="#00E0FF"/>
<stop offset="1" stop-color="#AA55FF"/>
</linearGradient>
<linearGradient id="paint7_linear" x1="21.3889" y1="51.2031" x2="93.2502" y2="-60.8913" gradientUnits="userSpaceOnUse">
<stop stop-color="#00E0FF"/>
<stop offset="1" stop-color="#AA55FF"/>
</linearGradient>
<linearGradient id="paint8_linear" x1="21.3889" y1="51.2031" x2="93.2502" y2="-60.8913" gradientUnits="userSpaceOnUse">
<stop stop-color="#00E0FF"/>
<stop offset="1" stop-color="#AA55FF"/>
</linearGradient>
<linearGradient id="paint9_linear" x1="21.3889" y1="51.2031" x2="93.2502" y2="-60.8913" gradientUnits="userSpaceOnUse">
<stop stop-color="#00E0FF"/>
<stop offset="1" stop-color="#AA55FF"/>
</linearGradient>
<linearGradient id="paint10_linear" x1="21.3889" y1="51.2031" x2="93.2502" y2="-60.8913" gradientUnits="userSpaceOnUse">
<stop stop-color="#00E0FF"/>
<stop offset="1" stop-color="#AA55FF"/>
</linearGradient>
<linearGradient id="paint11_linear" x1="21.3889" y1="51.2031" x2="93.2502" y2="-60.8913" gradientUnits="userSpaceOnUse">
<stop stop-color="#00E0FF"/>
<stop offset="1" stop-color="#AA55FF"/>
</linearGradient>
<linearGradient id="paint12_linear" x1="21.3889" y1="51.2031" x2="93.2502" y2="-60.8913" gradientUnits="userSpaceOnUse">
<stop stop-color="#00E0FF"/>
<stop offset="1" stop-color="#AA55FF"/>
</linearGradient>
<linearGradient id="paint13_linear" x1="21.3889" y1="51.2031" x2="93.2502" y2="-60.8913" gradientUnits="userSpaceOnUse">
<stop stop-color="#00E0FF"/>
<stop offset="1" stop-color="#AA55FF"/>
</linearGradient>
<linearGradient id="paint14_linear" x1="21.3889" y1="51.2031" x2="93.2502" y2="-60.8913" gradientUnits="userSpaceOnUse">
<stop stop-color="#00E0FF"/>
<stop offset="1" stop-color="#AA55FF"/>
</linearGradient>
</defs>
</svg>
