<svg width="158" height="16" viewBox="0 0 158 16" fill="none" xmlns="http://www.w3.org/2000/svg">
<path d="M27.2614 14L28.3295 10.9205H32.875L33.9375 14H35.8011L31.6136 2.36364H29.5852L25.3977 14H27.2614ZM28.8409 9.44318L30.5568 4.47727H30.6477L32.3636 9.44318H28.8409Z" fill="black"/>
<path d="M43.8224 7.40341C43.4702 6.04545 42.4077 5.15909 40.5213 5.15909C38.5497 5.15909 37.152 6.19886 37.152 7.74432C37.152 8.98295 37.902 9.80682 39.5384 10.1705L41.0156 10.4943C41.8565 10.6818 42.2486 11.0568 42.2486 11.6023C42.2486 12.2784 41.527 12.8068 40.4134 12.8068C39.3963 12.8068 38.7429 12.3693 38.5384 11.5114L36.8963 11.7614C37.1804 13.3068 38.4645 14.1761 40.4247 14.1761C42.5327 14.1761 43.9929 13.0568 43.9929 11.4773C43.9929 10.2443 43.2088 9.48295 41.6065 9.11364L40.2202 8.79545C39.2599 8.56818 38.8452 8.24432 38.8509 7.65341C38.8452 6.98295 39.5724 6.50568 40.5384 6.50568C41.5952 6.50568 42.0838 7.09091 42.2827 7.67614L43.8224 7.40341Z" fill="black"/>
<path d="M52.4006 7.40341C52.0483 6.04545 50.9858 5.15909 49.0994 5.15909C47.1278 5.15909 45.7301 6.19886 45.7301 7.74432C45.7301 8.98295 46.4801 9.80682 48.1165 10.1705L49.5938 10.4943C50.4347 10.6818 50.8267 11.0568 50.8267 11.6023C50.8267 12.2784 50.1051 12.8068 48.9915 12.8068C47.9744 12.8068 47.321 12.3693 47.1165 11.5114L45.4744 11.7614C45.7585 13.3068 47.0426 14.1761 49.0028 14.1761C51.1108 14.1761 52.571 13.0568 52.571 11.4773C52.571 10.2443 51.7869 9.48295 50.1847 9.11364L48.7983 8.79545C47.8381 8.56818 47.4233 8.24432 47.429 7.65341C47.4233 6.98295 48.1506 6.50568 49.1165 6.50568C50.1733 6.50568 50.6619 7.09091 50.8608 7.67614L52.4006 7.40341Z" fill="black"/>
<path d="M58.2003 14.1761C60.1037 14.1761 61.4503 13.2386 61.8366 11.8182L60.2287 11.5284C59.9219 12.3523 59.1832 12.7727 58.2173 12.7727C56.7628 12.7727 55.7855 11.8295 55.7401 10.1477H61.9446V9.54545C61.9446 6.39204 60.0582 5.15909 58.081 5.15909C55.6491 5.15909 54.0469 7.01136 54.0469 9.69318C54.0469 12.4034 55.6264 14.1761 58.2003 14.1761ZM55.7457 8.875C55.8139 7.63636 56.7116 6.5625 58.0923 6.5625C59.4105 6.5625 60.2741 7.53977 60.2798 8.875H55.7457Z" fill="black"/>
<path d="M67.9034 5.27273H66.1136V3.18182H64.4148V5.27273H63.1364V6.63636H64.4148V11.7898C64.4091 13.375 65.6193 14.142 66.9602 14.1136C67.5 14.108 67.8636 14.0057 68.0625 13.9318L67.7557 12.5284C67.642 12.5511 67.4318 12.6023 67.1591 12.6023C66.608 12.6023 66.1136 12.4205 66.1136 11.4375V6.63636H67.9034V5.27273Z" fill="black"/>
<path d="M74.1534 14H78.6136C81.3182 14 82.5398 12.6534 82.5398 10.8693C82.5398 9.06818 81.2784 8.05114 80.125 7.98864V7.875C81.1932 7.60227 82.0852 6.875 82.0852 5.42045C82.0852 3.69886 80.892 2.36364 78.4148 2.36364H74.1534V14ZM75.9091 12.4943V8.76705H78.5057C79.9148 8.76705 80.7955 9.67614 80.7955 10.7841C80.7955 11.7614 80.1307 12.4943 78.4432 12.4943H75.9091ZM75.9091 7.39773V3.85795H78.3068C79.6989 3.85795 80.3636 4.59091 80.3636 5.55682C80.3636 6.68182 79.4432 7.39773 78.2614 7.39773H75.9091Z" fill="black"/>
<path d="M84.4858 14H86.1847V8.67045C86.1847 7.52841 87.0653 6.70455 88.2699 6.70455C88.6222 6.70455 89.0199 6.76705 89.1562 6.80682V5.18182C88.9858 5.15909 88.6506 5.14205 88.4347 5.14205C87.4119 5.14205 86.5369 5.72159 86.2188 6.65909H86.1278V5.27273H84.4858V14Z" fill="black"/>
<path d="M94.0753 14.1761C95.9787 14.1761 97.3253 13.2386 97.7116 11.8182L96.1037 11.5284C95.7969 12.3523 95.0582 12.7727 94.0923 12.7727C92.6378 12.7727 91.6605 11.8295 91.6151 10.1477H97.8196V9.54545C97.8196 6.39204 95.9332 5.15909 93.956 5.15909C91.5241 5.15909 89.9219 7.01136 89.9219 9.69318C89.9219 12.4034 91.5014 14.1761 94.0753 14.1761ZM91.6207 8.875C91.6889 7.63636 92.5866 6.5625 93.9673 6.5625C95.2855 6.5625 96.1491 7.53977 96.1548 8.875H91.6207Z" fill="black"/>
<path d="M102.244 14.1932C103.687 14.1932 104.5 13.4602 104.824 12.8068H104.892V14H106.551V8.20455C106.551 5.66477 104.551 5.15909 103.165 5.15909C101.585 5.15909 100.131 5.79545 99.5625 7.38636L101.159 7.75C101.409 7.13068 102.045 6.53409 103.188 6.53409C104.284 6.53409 104.847 7.10795 104.847 8.09659V8.13636C104.847 8.75568 104.21 8.74432 102.642 8.92614C100.989 9.11932 99.2955 9.55114 99.2955 11.5341C99.2955 13.25 100.585 14.1932 102.244 14.1932ZM102.614 12.8295C101.653 12.8295 100.96 12.3977 100.96 11.5568C100.96 10.6477 101.767 10.3239 102.75 10.1932C103.301 10.1193 104.608 9.97159 104.852 9.72727V10.8523C104.852 11.8864 104.028 12.8295 102.614 12.8295Z" fill="black"/>
<path d="M108.814 14H110.513V10.9034L111.359 10.0568L114.325 14H116.411L112.638 9.01705L116.172 5.27273H114.138L110.661 8.96591H110.513V2.36364H108.814V14Z" fill="black"/>
<path d="M120.628 14.1705C122.219 14.1705 122.844 13.1989 123.151 12.642H123.293V14H124.952V2.36364H123.253V6.6875H123.151C122.844 6.14773 122.264 5.15909 120.639 5.15909C118.531 5.15909 116.98 6.82386 116.98 9.65341C116.98 12.4773 118.509 14.1705 120.628 14.1705ZM121.003 12.7216C119.486 12.7216 118.696 11.3864 118.696 9.63636C118.696 7.90341 119.469 6.60227 121.003 6.60227C122.486 6.60227 123.281 7.8125 123.281 9.63636C123.281 11.4716 122.469 12.7216 121.003 12.7216Z" fill="black"/>
<path d="M131.053 14.1761C133.513 14.1761 135.121 12.375 135.121 9.67614C135.121 6.96023 133.513 5.15909 131.053 5.15909C128.592 5.15909 126.984 6.96023 126.984 9.67614C126.984 12.375 128.592 14.1761 131.053 14.1761ZM131.058 12.75C129.45 12.75 128.7 11.3466 128.7 9.67045C128.7 8 129.45 6.57955 131.058 6.57955C132.655 6.57955 133.405 8 133.405 9.67045C133.405 11.3466 132.655 12.75 131.058 12.75Z" fill="black"/>
<path d="M138.643 14H140.371L142.143 7.69886H142.274L144.047 14H145.78L148.342 5.27273H146.587L144.888 11.6534H144.803L143.098 5.27273H141.342L139.626 11.6818H139.541L137.831 5.27273H136.075L138.643 14Z" fill="black"/>
<path d="M151.653 8.81818C151.653 7.42614 152.506 6.63068 153.688 6.63068C154.841 6.63068 155.54 7.38636 155.54 8.65341V14H157.239V8.44886C157.239 6.28977 156.051 5.15909 154.267 5.15909C152.955 5.15909 152.097 5.76705 151.693 6.69318H151.585V5.27273H149.955V14H151.653V8.81818Z" fill="black"/>
<path d="M8 15.5C3.85775 15.5 0.5 12.1423 0.5 8C0.5 4.6415 2.70725 1.799 5.75 0.8435V2.4365C4.46069 2.96003 3.39335 3.91528 2.73054 5.13884C2.06774 6.36239 1.85066 7.77823 2.11644 9.14416C2.38222 10.5101 3.11434 11.7412 4.18757 12.627C5.2608 13.5128 6.60846 13.9981 8 14C9.19534 14 10.3634 13.643 11.3546 12.9749C12.3458 12.3068 13.115 11.358 13.5635 10.25H15.1565C14.201 13.2928 11.3585 15.5 8 15.5ZM15.4625 8.75H7.25V0.5375C7.49675 0.51275 7.74725 0.5 8 0.5C12.1423 0.5 15.5 3.85775 15.5 8C15.5 8.25275 15.4873 8.50325 15.4625 8.75ZM8.75 2.0465V7.25H13.9535C13.7866 5.9282 13.1846 4.6995 12.2426 3.75743C11.3005 2.81535 10.0718 2.21344 8.75 2.0465Z" fill="black"/>
</svg>
