<svg width="106" height="17" viewBox="0 0 106 17" fill="none" xmlns="http://www.w3.org/2000/svg">
<path d="M24.2784 14H26.0341V8.92614H30.9773V7.42045H26.0341V3.875H31.4943V2.36364H24.2784V14Z" fill="#292929"/>
<path d="M33.517 14H35.2159V5.27273H33.517V14ZM34.375 3.92614C34.9602 3.92614 35.4489 3.47159 35.4489 2.91477C35.4489 2.35795 34.9602 1.89773 34.375 1.89773C33.7841 1.89773 33.3011 2.35795 33.3011 2.91477C33.3011 3.47159 33.7841 3.92614 34.375 3.92614Z" fill="#292929"/>
<path d="M39.2003 8.81818C39.2003 7.42614 40.0526 6.63068 41.2344 6.63068C42.3878 6.63068 43.0866 7.38636 43.0866 8.65341V14H44.7855V8.44886C44.7855 6.28977 43.598 5.15909 41.8139 5.15909C40.5014 5.15909 39.6435 5.76705 39.2401 6.69318H39.1321V5.27273H37.5014V14H39.2003V8.81818Z" fill="#292929"/>
<path d="M50.331 14.1705C51.9219 14.1705 52.5469 13.1989 52.8537 12.642H52.9957V14H54.6548V2.36364H52.956V6.6875H52.8537C52.5469 6.14773 51.9673 5.15909 50.3423 5.15909C48.2344 5.15909 46.6832 6.82386 46.6832 9.65341C46.6832 12.4773 48.2116 14.1705 50.331 14.1705ZM50.706 12.7216C49.1889 12.7216 48.3991 11.3864 48.3991 9.63636C48.3991 7.90341 49.1719 6.60227 50.706 6.60227C52.1889 6.60227 52.9844 7.8125 52.9844 9.63636C52.9844 11.4716 52.1719 12.7216 50.706 12.7216Z" fill="#292929"/>
<path d="M69.3253 6.03977H71.1264C70.7344 3.77273 68.7969 2.20455 66.2855 2.20455C63.2742 2.20455 61.0753 4.47159 61.0753 8.1875C61.0753 11.8693 63.2116 14.1591 66.3651 14.1591C69.1889 14.1591 71.206 12.3068 71.206 9.36932V8.04545H66.6321V9.49432H69.5071C69.4673 11.3693 68.2287 12.5568 66.3651 12.5568C64.3139 12.5568 62.8196 11.0057 62.8196 8.17614C62.8196 5.35795 64.3253 3.80682 66.2969 3.80682C67.8423 3.80682 68.8878 4.65909 69.3253 6.03977Z" fill="#292929"/>
<path d="M78.8267 10.3807C78.8324 11.8636 77.7301 12.5682 76.7756 12.5682C75.7244 12.5682 74.9972 11.8068 74.9972 10.6193V5.27273H73.2983V10.8239C73.2983 12.9886 74.4858 14.1136 76.1619 14.1136C77.4744 14.1136 78.3665 13.4205 78.7699 12.4886H78.8608V14H80.5312V5.27273H78.8267V10.3807Z" fill="#292929"/>
<path d="M82.8139 14H84.5128V8.67045C84.5128 7.52841 85.3935 6.70455 86.598 6.70455C86.9503 6.70455 87.348 6.76705 87.4844 6.80682V5.18182C87.3139 5.15909 86.9787 5.14205 86.7628 5.14205C85.7401 5.14205 84.8651 5.72159 84.5469 6.65909H84.456V5.27273H82.8139V14Z" fill="#292929"/>
<path d="M94.483 10.3807C94.4886 11.8636 93.3864 12.5682 92.4318 12.5682C91.3807 12.5682 90.6534 11.8068 90.6534 10.6193V5.27273H88.9545V10.8239C88.9545 12.9886 90.142 14.1136 91.8182 14.1136C93.1307 14.1136 94.0227 13.4205 94.4261 12.4886H94.517V14H96.1875V5.27273H94.483V10.3807Z" fill="#292929"/>
<path d="M105.01 7.40341C104.658 6.04545 103.595 5.15909 101.709 5.15909C99.7372 5.15909 98.3395 6.19886 98.3395 7.74432C98.3395 8.98295 99.0895 9.80682 100.726 10.1705L102.203 10.4943C103.044 10.6818 103.436 11.0568 103.436 11.6023C103.436 12.2784 102.714 12.8068 101.601 12.8068C100.584 12.8068 99.9304 12.3693 99.7259 11.5114L98.0838 11.7614C98.3679 13.3068 99.652 14.1761 101.612 14.1761C103.72 14.1761 105.18 13.0568 105.18 11.4773C105.18 10.2443 104.396 9.48295 102.794 9.11364L101.408 8.79545C100.447 8.56818 100.033 8.24432 100.038 7.65341C100.033 6.98295 100.76 6.50568 101.726 6.50568C102.783 6.50568 103.271 7.09091 103.47 7.67614L105.01 7.40341Z" fill="#292929"/>
<path d="M9.048 2.44397C9.048 3.7938 7.95387 4.88793 6.60404 4.88793C5.25421 4.88793 4.16007 3.7938 4.16007 2.44397C4.16007 1.09413 5.25421 0 6.60404 0C7.95387 0 9.048 1.09413 9.048 2.44397Z" fill="#292929"/>
<path d="M11.3985 12.974H10.9758C8.19547 12.974 4.99214 16.198 4.99214 16.198H11.3985C12.283 16.198 13 15.4762 13 14.586C13 13.6956 12.283 12.974 11.3985 12.974Z" fill="#292929"/>
<path d="M2.36509 7.87836L1.97623 12.1H2.11269C2.49635 12.0997 2.87778 12.1528 3.24628 12.2576C4.4221 12.5416 5.56863 13.1713 6.50155 13.8052C7.76031 12.9499 9.40898 12.1 10.9916 12.1H11.1281L10.7394 7.87821C10.6306 6.63829 9.5765 5.68788 8.31566 5.69331H4.78881C3.52797 5.68774 2.47376 6.63829 2.36509 7.87836Z" fill="#292929"/>
<path d="M2.04377 12.974H1.61697C0.723972 12.974 0 13.6956 0 14.586C0 15.4762 0.723972 16.198 1.61697 16.198H3.80874L4.38027 15.6281C4.83625 15.1863 5.31846 14.7724 5.82392 14.3882C4.70959 13.6532 3.33231 12.974 2.04377 12.974Z" fill="#292929"/>
</svg>
