<svg width="157" height="31" viewBox="0 0 157 31" fill="none" xmlns="http://www.w3.org/2000/svg">
<path d="M51.2784 14H53.0341V8.92614H57.9773V7.42045H53.0341V3.875H58.4943V2.36364H51.2784V14Z" fill="#292929"/>
<path d="M60.517 14H62.2159V5.27273H60.517V14ZM61.375 3.92614C61.9602 3.92614 62.4489 3.47159 62.4489 2.91477C62.4489 2.35795 61.9602 1.89773 61.375 1.89773C60.7841 1.89773 60.3011 2.35795 60.3011 2.91477C60.3011 3.47159 60.7841 3.92614 61.375 3.92614Z" fill="#292929"/>
<path d="M66.2003 8.81818C66.2003 7.42614 67.0526 6.63068 68.2344 6.63068C69.3878 6.63068 70.0866 7.38636 70.0866 8.65341V14H71.7855V8.44886C71.7855 6.28977 70.598 5.15909 68.8139 5.15909C67.5014 5.15909 66.6435 5.76705 66.2401 6.69318H66.1321V5.27273H64.5014V14H66.2003V8.81818Z" fill="#292929"/>
<path d="M77.331 14.1705C78.9219 14.1705 79.5469 13.1989 79.8537 12.642H79.9957V14H81.6548V2.36364H79.956V6.6875H79.8537C79.5469 6.14773 78.9673 5.15909 77.3423 5.15909C75.2344 5.15909 73.6832 6.82386 73.6832 9.65341C73.6832 12.4773 75.2116 14.1705 77.331 14.1705ZM77.706 12.7216C76.1889 12.7216 75.3991 11.3864 75.3991 9.63636C75.3991 7.90341 76.1719 6.60227 77.706 6.60227C79.1889 6.60227 79.9844 7.8125 79.9844 9.63636C79.9844 11.4716 79.1719 12.7216 77.706 12.7216Z" fill="#292929"/>
<path d="M96.3253 6.03977H98.1264C97.7344 3.77273 95.7969 2.20455 93.2855 2.20455C90.2742 2.20455 88.0753 4.47159 88.0753 8.1875C88.0753 11.8693 90.2116 14.1591 93.3651 14.1591C96.1889 14.1591 98.206 12.3068 98.206 9.36932V8.04545H93.6321V9.49432H96.5071C96.4673 11.3693 95.2287 12.5568 93.3651 12.5568C91.3139 12.5568 89.8196 11.0057 89.8196 8.17614C89.8196 5.35795 91.3253 3.80682 93.2969 3.80682C94.8423 3.80682 95.8878 4.65909 96.3253 6.03977Z" fill="#292929"/>
<path d="M105.827 10.3807C105.832 11.8636 104.73 12.5682 103.776 12.5682C102.724 12.5682 101.997 11.8068 101.997 10.6193V5.27273H100.298V10.8239C100.298 12.9886 101.486 14.1136 103.162 14.1136C104.474 14.1136 105.366 13.4205 105.77 12.4886H105.861V14H107.531V5.27273H105.827V10.3807Z" fill="#292929"/>
<path d="M109.814 14H111.513V8.67045C111.513 7.52841 112.393 6.70455 113.598 6.70455C113.95 6.70455 114.348 6.76705 114.484 6.80682V5.18182C114.314 5.15909 113.979 5.14205 113.763 5.14205C112.74 5.14205 111.865 5.72159 111.547 6.65909H111.456V5.27273H109.814V14Z" fill="#292929"/>
<path d="M121.483 10.3807C121.489 11.8636 120.386 12.5682 119.432 12.5682C118.381 12.5682 117.653 11.8068 117.653 10.6193V5.27273H115.955V10.8239C115.955 12.9886 117.142 14.1136 118.818 14.1136C120.131 14.1136 121.023 13.4205 121.426 12.4886H121.517V14H123.188V5.27273H121.483V10.3807Z" fill="#292929"/>
<path d="M132.01 7.40341C131.658 6.04545 130.595 5.15909 128.709 5.15909C126.737 5.15909 125.339 6.19886 125.339 7.74432C125.339 8.98295 126.089 9.80682 127.726 10.1705L129.203 10.4943C130.044 10.6818 130.436 11.0568 130.436 11.6023C130.436 12.2784 129.714 12.8068 128.601 12.8068C127.584 12.8068 126.93 12.3693 126.726 11.5114L125.084 11.7614C125.368 13.3068 126.652 14.1761 128.612 14.1761C130.72 14.1761 132.18 13.0568 132.18 11.4773C132.18 10.2443 131.396 9.48295 129.794 9.11364L128.408 8.79545C127.447 8.56818 127.033 8.24432 127.038 7.65341C127.033 6.98295 127.76 6.50568 128.726 6.50568C129.783 6.50568 130.271 7.09091 130.47 7.67614L132.01 7.40341Z" fill="#292929"/>
<path d="M36.048 2.44397C36.048 3.7938 34.9539 4.88793 33.604 4.88793C32.2542 4.88793 31.1601 3.7938 31.1601 2.44397C31.1601 1.09413 32.2542 0 33.604 0C34.9539 0 36.048 1.09413 36.048 2.44397Z" fill="#292929"/>
<path d="M38.3985 12.974H37.9758C35.1955 12.974 31.9921 16.198 31.9921 16.198H38.3985C39.283 16.198 40 15.4762 40 14.586C40 13.6956 39.283 12.974 38.3985 12.974Z" fill="#292929"/>
<path d="M29.3651 7.87836L28.9762 12.1H29.1127C29.4963 12.0997 29.8778 12.1528 30.2463 12.2576C31.4221 12.5416 32.5686 13.1713 33.5015 13.8052C34.7603 12.9499 36.409 12.1 37.9916 12.1H38.1281L37.7394 7.87821C37.6306 6.63829 36.5765 5.68788 35.3157 5.69331H31.7888C30.528 5.68774 29.4738 6.63829 29.3651 7.87836Z" fill="#292929"/>
<path d="M29.0438 12.974H28.617C27.724 12.974 27 13.6956 27 14.586C27 15.4762 27.724 16.198 28.617 16.198H30.8087L31.3803 15.6281C31.8363 15.1863 32.3185 14.7724 32.8239 14.3882C31.7096 13.6532 30.3323 12.974 29.0438 12.974Z" fill="#292929"/>
<path d="M0 29H157V31H0V29Z" fill="#292929"/>
</svg>
