<svg width="117" height="16" viewBox="0 0 117 16" fill="none" xmlns="http://www.w3.org/2000/svg">
<path d="M27.2784 0.363636V12H28.9489V3.57386H29.0568L32.4886 11.983H33.875L37.3068 3.57955H37.4148V12H39.0852V0.363636H36.9545L33.25 9.40909H33.1136L29.4091 0.363636H27.2784Z" fill="#292929"/>
<path d="M42.5753 15.25C43.9787 15.25 44.8707 14.517 45.3707 13.1648L48.9787 3.28977L47.1435 3.27273L44.9332 10.0455H44.8423L42.6321 3.27273H40.8139L44.0071 12.1136L43.7969 12.6932C43.3651 13.8239 42.7571 13.9261 41.8253 13.6705L41.4162 15.0625C41.6207 15.1591 42.0639 15.25 42.5753 15.25Z" fill="#292929"/>
<path d="M64.6151 4.14773C64.2173 1.65909 62.2685 0.204545 59.8082 0.204545C56.7969 0.204545 54.5753 2.46023 54.5753 6.18182C54.5753 9.90341 56.7855 12.1591 59.8082 12.1591C62.3651 12.1591 64.2344 10.5568 64.6151 8.25568L62.8423 8.25C62.5412 9.73864 61.2912 10.5568 59.8196 10.5568C57.8253 10.5568 56.3196 9.02841 56.3196 6.18182C56.3196 3.35795 57.8196 1.80682 59.8253 1.80682C61.3082 1.80682 62.5526 2.64205 62.8423 4.14773H64.6151Z" fill="#292929"/>
<path d="M68.2784 6.81818C68.2784 5.42614 69.1591 4.63068 70.3693 4.63068C71.5398 4.63068 72.2386 5.375 72.2386 6.65341V12H73.9375V6.44886C73.9375 4.27273 72.7443 3.15909 70.9489 3.15909C69.5909 3.15909 68.7727 3.75 68.3636 4.69318H68.2557V0.363636H66.5795V12H68.2784V6.81818Z" fill="#292929"/>
<path d="M78.7443 12.1932C80.1875 12.1932 81 11.4602 81.3239 10.8068H81.392V12H83.0511V6.20455C83.0511 3.66477 81.0511 3.15909 79.6648 3.15909C78.0852 3.15909 76.6307 3.79545 76.0625 5.38636L77.6591 5.75C77.9091 5.13068 78.5455 4.53409 79.6875 4.53409C80.7841 4.53409 81.3466 5.10795 81.3466 6.09659V6.13636C81.3466 6.75568 80.7102 6.74432 79.142 6.92614C77.4886 7.11932 75.7955 7.55114 75.7955 9.53409C75.7955 11.25 77.0852 12.1932 78.7443 12.1932ZM79.1136 10.8295C78.1534 10.8295 77.4602 10.3977 77.4602 9.55682C77.4602 8.64773 78.267 8.32386 79.25 8.19318C79.8011 8.11932 81.108 7.97159 81.3523 7.72727V8.85227C81.3523 9.88636 80.5284 10.8295 79.1136 10.8295Z" fill="#292929"/>
<path d="M85.3139 12H87.0128V8.90341L87.8594 8.05682L90.8253 12H92.9105L89.1378 7.01705L92.6719 3.27273H90.6378L87.1605 6.96591H87.0128V0.363636H85.3139V12Z" fill="#292929"/>
<path d="M94.2202 12H95.919V6.67045C95.919 5.52841 96.7997 4.70455 98.0043 4.70455C98.3565 4.70455 98.7543 4.76705 98.8906 4.80682V3.18182C98.7202 3.15909 98.3849 3.14205 98.169 3.14205C97.1463 3.14205 96.2713 3.72159 95.9531 4.65909H95.8622V3.27273H94.2202V12Z" fill="#292929"/>
<path d="M102.822 12.1932C104.266 12.1932 105.078 11.4602 105.402 10.8068H105.47V12H107.129V6.20455C107.129 3.66477 105.129 3.15909 103.743 3.15909C102.163 3.15909 100.709 3.79545 100.141 5.38636L101.737 5.75C101.987 5.13068 102.624 4.53409 103.766 4.53409C104.862 4.53409 105.425 5.10795 105.425 6.09659V6.13636C105.425 6.75568 104.788 6.74432 103.22 6.92614C101.567 7.11932 99.8736 7.55114 99.8736 9.53409C99.8736 11.25 101.163 12.1932 102.822 12.1932ZM103.192 10.8295C102.232 10.8295 101.538 10.3977 101.538 9.55682C101.538 8.64773 102.345 8.32386 103.328 8.19318C103.879 8.11932 105.186 7.97159 105.43 7.72727V8.85227C105.43 9.88636 104.607 10.8295 103.192 10.8295Z" fill="#292929"/>
<path d="M115.932 5.40341C115.58 4.04545 114.517 3.15909 112.631 3.15909C110.659 3.15909 109.261 4.19886 109.261 5.74432C109.261 6.98295 110.011 7.80682 111.648 8.17045L113.125 8.49432C113.966 8.68182 114.358 9.05682 114.358 9.60227C114.358 10.2784 113.636 10.8068 112.523 10.8068C111.506 10.8068 110.852 10.3693 110.648 9.51136L109.006 9.76136C109.29 11.3068 110.574 12.1761 112.534 12.1761C114.642 12.1761 116.102 11.0568 116.102 9.47727C116.102 8.24432 115.318 7.48295 113.716 7.11364L112.33 6.79545C111.369 6.56818 110.955 6.24432 110.96 5.65341C110.955 4.98295 111.682 4.50568 112.648 4.50568C113.705 4.50568 114.193 5.09091 114.392 5.67614L115.932 5.40341Z" fill="#292929"/>
<path d="M9.00022 0C9.72507 0.492219 12.0113 2.29702 12.0113 5.46497C12.0113 8.60206 9.75709 10.6704 8.99868 11.2772C8.24028 10.6721 5.9894 8.611 5.9894 5.46497C5.98918 2.309 8.27603 0.495062 9.00022 0Z" fill="#292929"/>
<path d="M1.92826 2.90032C3.6894 2.84874 4.91802 3.28004 5.43408 3.50524C5.26279 4.09695 5.15445 4.74573 5.15445 5.46497C5.15445 8.21076 6.6603 10.1723 7.72597 11.2183C5.7431 10.8621 4.23243 10.0665 3.23869 8.83152C1.51725 6.69227 1.78724 3.81287 1.92826 2.90032Z" fill="#292929"/>
<path d="M3.93635 12.6253C1.77517 12.1197 0.415172 10.1979 0 9.53066C0.770689 8.81203 1.57186 8.52368 1.98046 8.41342C2.14933 8.71232 2.33839 9.00514 2.56494 9.28922C3.72668 10.7352 5.48387 11.6488 7.78957 12.0186C6.44273 12.701 5.15094 12.9124 3.93635 12.6253Z" fill="#292929"/>
<path d="M16.0722 2.90032C16.2123 3.81287 16.4821 6.69227 14.7604 8.83172C13.7665 10.0667 12.2558 10.8623 10.2738 11.2169C11.3393 10.1723 12.8462 8.21097 12.8462 5.46518C12.8462 4.74594 12.7379 4.09614 12.5666 3.50503C13.0804 3.27923 14.3053 2.84874 16.0722 2.90032Z" fill="#292929"/>
<path d="M14.0689 12.6253C12.855 12.9108 11.5592 12.701 10.2091 12.0186C12.5148 11.6488 14.2718 10.7352 15.4337 9.28922C15.661 9.00534 15.8494 8.7111 16.0189 8.41342C16.4257 8.51921 17.2238 8.80289 18 9.53066C17.5879 10.1979 16.2343 12.1154 14.0689 12.6253Z" fill="#292929"/>
</svg>
