<svg width="114" height="30" viewBox="0 0 114 30" fill="none" xmlns="http://www.w3.org/2000/svg">
<path d="M57.625 4.42045H59.3182C59.267 2.55682 57.6193 1.20455 55.2557 1.20455C52.9205 1.20455 51.1307 2.53977 51.1307 4.54545C51.1307 6.16477 52.2898 7.11364 54.1591 7.61932L55.5341 7.99432C56.7784 8.32386 57.7386 8.73295 57.7386 9.76705C57.7386 10.9034 56.6534 11.6534 55.1591 11.6534C53.8068 11.6534 52.6818 11.0511 52.5795 9.78409H50.8182C50.9318 11.892 52.5625 13.1932 55.1705 13.1932C57.9034 13.1932 59.4773 11.7557 59.4773 9.78409C59.4773 7.6875 57.608 6.875 56.1307 6.51136L54.9943 6.21591C54.0852 5.98295 52.875 5.55682 52.8807 4.44318C52.8807 3.45455 53.7841 2.72159 55.2159 2.72159C56.5511 2.72159 57.5 3.34659 57.625 4.42045Z" fill="url(#paint0_linear)"/>
<path d="M65.5128 4.27273H63.723V2.18182H62.0241V4.27273H60.7457V5.63636H62.0241V10.7898C62.0185 12.375 63.2287 13.142 64.5696 13.1136C65.1094 13.108 65.473 13.0057 65.6719 12.9318L65.3651 11.5284C65.2514 11.5511 65.0412 11.6023 64.7685 11.6023C64.2173 11.6023 63.723 11.4205 63.723 10.4375V5.63636H65.5128V4.27273Z" fill="url(#paint1_linear)"/>
<path d="M69.9318 13.1932C71.375 13.1932 72.1875 12.4602 72.5114 11.8068H72.5795V13H74.2386V7.20455C74.2386 4.66477 72.2386 4.15909 70.8523 4.15909C69.2727 4.15909 67.8182 4.79545 67.25 6.38636L68.8466 6.75C69.0966 6.13068 69.733 5.53409 70.875 5.53409C71.9716 5.53409 72.5341 6.10795 72.5341 7.09659V7.13636C72.5341 7.75568 71.8977 7.74432 70.3295 7.92614C68.6761 8.11932 66.983 8.55114 66.983 10.5341C66.983 12.25 68.2727 13.1932 69.9318 13.1932ZM70.3011 11.8295C69.3409 11.8295 68.6477 11.3977 68.6477 10.5568C68.6477 9.64773 69.4545 9.32386 70.4375 9.19318C70.9886 9.11932 72.2955 8.97159 72.5398 8.72727V9.85227C72.5398 10.8864 71.7159 11.8295 70.3011 11.8295Z" fill="url(#paint2_linear)"/>
<path d="M80.5753 4.27273H78.7855V2.18182H77.0866V4.27273H75.8082V5.63636H77.0866V10.7898C77.081 12.375 78.2912 13.142 79.6321 13.1136C80.1719 13.108 80.5355 13.0057 80.7344 12.9318L80.4276 11.5284C80.3139 11.5511 80.1037 11.6023 79.831 11.6023C79.2798 11.6023 78.7855 11.4205 78.7855 10.4375V5.63636H80.5753V4.27273Z" fill="url(#paint3_linear)"/>
<path d="M88.8537 6.40341C88.5014 5.04545 87.4389 4.15909 85.5526 4.15909C83.581 4.15909 82.1832 5.19886 82.1832 6.74432C82.1832 7.98295 82.9332 8.80682 84.5696 9.17045L86.0469 9.49432C86.8878 9.68182 87.2798 10.0568 87.2798 10.6023C87.2798 11.2784 86.5582 11.8068 85.4446 11.8068C84.4276 11.8068 83.7741 11.3693 83.5696 10.5114L81.9276 10.7614C82.2116 12.3068 83.4957 13.1761 85.456 13.1761C87.5639 13.1761 89.0241 12.0568 89.0241 10.4773C89.0241 9.24432 88.2401 8.48295 86.6378 8.11364L85.2514 7.79545C84.2912 7.56818 83.8764 7.24432 83.8821 6.65341C83.8764 5.98295 84.6037 5.50568 85.5696 5.50568C86.6264 5.50568 87.1151 6.09091 87.3139 6.67614L88.8537 6.40341Z" fill="url(#paint4_linear)"/>
<path d="M26 7.36842H27.5556V14H26V7.36842ZM38.4444 4.42105H40V14H38.4444V4.42105ZM32.2222 0H33.7778V14H32.2222V0Z" fill="url(#paint5_linear)"/>
<path d="M0 28H114V30H0V28Z" fill="url(#paint6_linear)"/>
<defs>
<linearGradient id="paint0_linear" x1="14.7778" y1="52.9687" x2="96.5177" y2="-32.1884" gradientUnits="userSpaceOnUse">
<stop stop-color="#00E0FF"/>
<stop offset="1" stop-color="#AA55FF"/>
</linearGradient>
<linearGradient id="paint1_linear" x1="14.7778" y1="52.9687" x2="96.5177" y2="-32.1884" gradientUnits="userSpaceOnUse">
<stop stop-color="#00E0FF"/>
<stop offset="1" stop-color="#AA55FF"/>
</linearGradient>
<linearGradient id="paint2_linear" x1="14.7778" y1="52.9687" x2="96.5177" y2="-32.1884" gradientUnits="userSpaceOnUse">
<stop stop-color="#00E0FF"/>
<stop offset="1" stop-color="#AA55FF"/>
</linearGradient>
<linearGradient id="paint3_linear" x1="14.7778" y1="52.9687" x2="96.5177" y2="-32.1884" gradientUnits="userSpaceOnUse">
<stop stop-color="#00E0FF"/>
<stop offset="1" stop-color="#AA55FF"/>
</linearGradient>
<linearGradient id="paint4_linear" x1="14.7778" y1="52.9687" x2="96.5177" y2="-32.1884" gradientUnits="userSpaceOnUse">
<stop stop-color="#00E0FF"/>
<stop offset="1" stop-color="#AA55FF"/>
</linearGradient>
<linearGradient id="paint5_linear" x1="14.7778" y1="52.9687" x2="96.5177" y2="-32.1884" gradientUnits="userSpaceOnUse">
<stop stop-color="#00E0FF"/>
<stop offset="1" stop-color="#AA55FF"/>
</linearGradient>
<linearGradient id="paint6_linear" x1="14.7778" y1="52.9687" x2="96.5177" y2="-32.1884" gradientUnits="userSpaceOnUse">
<stop stop-color="#00E0FF"/>
<stop offset="1" stop-color="#AA55FF"/>
</linearGradient>
</defs>
</svg>
