<svg width="64" height="14" viewBox="0 0 64 14" fill="none" xmlns="http://www.w3.org/2000/svg">
<path d="M31.625 4.42045H33.3182C33.267 2.55682 31.6193 1.20455 29.2557 1.20455C26.9205 1.20455 25.1307 2.53977 25.1307 4.54545C25.1307 6.16477 26.2898 7.11364 28.1591 7.61932L29.5341 7.99432C30.7784 8.32386 31.7386 8.73295 31.7386 9.76705C31.7386 10.9034 30.6534 11.6534 29.1591 11.6534C27.8068 11.6534 26.6818 11.0511 26.5795 9.78409H24.8182C24.9318 11.892 26.5625 13.1932 29.1705 13.1932C31.9034 13.1932 33.4773 11.7557 33.4773 9.78409C33.4773 7.6875 31.608 6.875 30.1307 6.51136L28.9943 6.21591C28.0852 5.98295 26.875 5.55682 26.8807 4.44318C26.8807 3.45455 27.7841 2.72159 29.2159 2.72159C30.5511 2.72159 31.5 3.34659 31.625 4.42045Z" fill="#292929"/>
<path d="M39.5128 4.27273H37.723V2.18182H36.0241V4.27273H34.7457V5.63636H36.0241V10.7898C36.0185 12.375 37.2287 13.142 38.5696 13.1136C39.1094 13.108 39.473 13.0057 39.6719 12.9318L39.3651 11.5284C39.2514 11.5511 39.0412 11.6023 38.7685 11.6023C38.2173 11.6023 37.723 11.4205 37.723 10.4375V5.63636H39.5128V4.27273Z" fill="#292929"/>
<path d="M43.9318 13.1932C45.375 13.1932 46.1875 12.4602 46.5114 11.8068H46.5795V13H48.2386V7.20455C48.2386 4.66477 46.2386 4.15909 44.8523 4.15909C43.2727 4.15909 41.8182 4.79545 41.25 6.38636L42.8466 6.75C43.0966 6.13068 43.733 5.53409 44.875 5.53409C45.9716 5.53409 46.5341 6.10795 46.5341 7.09659V7.13636C46.5341 7.75568 45.8977 7.74432 44.3295 7.92614C42.6761 8.11932 40.983 8.55114 40.983 10.5341C40.983 12.25 42.2727 13.1932 43.9318 13.1932ZM44.3011 11.8295C43.3409 11.8295 42.6477 11.3977 42.6477 10.5568C42.6477 9.64773 43.4545 9.32386 44.4375 9.19318C44.9886 9.11932 46.2955 8.97159 46.5398 8.72727V9.85227C46.5398 10.8864 45.7159 11.8295 44.3011 11.8295Z" fill="#292929"/>
<path d="M54.5753 4.27273H52.7855V2.18182H51.0866V4.27273H49.8082V5.63636H51.0866V10.7898C51.081 12.375 52.2912 13.142 53.6321 13.1136C54.1719 13.108 54.5355 13.0057 54.7344 12.9318L54.4276 11.5284C54.3139 11.5511 54.1037 11.6023 53.831 11.6023C53.2798 11.6023 52.7855 11.4205 52.7855 10.4375V5.63636H54.5753V4.27273Z" fill="#292929"/>
<path d="M62.8537 6.40341C62.5014 5.04545 61.4389 4.15909 59.5526 4.15909C57.581 4.15909 56.1832 5.19886 56.1832 6.74432C56.1832 7.98295 56.9332 8.80682 58.5696 9.17045L60.0469 9.49432C60.8878 9.68182 61.2798 10.0568 61.2798 10.6023C61.2798 11.2784 60.5582 11.8068 59.4446 11.8068C58.4276 11.8068 57.7741 11.3693 57.5696 10.5114L55.9276 10.7614C56.2116 12.3068 57.4957 13.1761 59.456 13.1761C61.5639 13.1761 63.0241 12.0568 63.0241 10.4773C63.0241 9.24432 62.2401 8.48295 60.6378 8.11364L59.2514 7.79545C58.2912 7.56818 57.8764 7.24432 57.8821 6.65341C57.8764 5.98295 58.6037 5.50568 59.5696 5.50568C60.6264 5.50568 61.1151 6.09091 61.3139 6.67614L62.8537 6.40341Z" fill="#292929"/>
<path d="M0 7.36842H1.55556V14H0V7.36842ZM12.4444 4.42105H14V14H12.4444V4.42105ZM6.22222 0H7.77778V14H6.22222V0Z" fill="#292929"/>
</svg>
